<?xml version="1.0" encoding="utf-8"?>
<!-- Generator: Adobe Illustrator 23.0.1, SVG Export Plug-In . SVG Version: 6.00 Build 0)  -->
<svg version="1.1" id="OBJECTS" xmlns="http://www.w3.org/2000/svg" xmlns:xlink="http://www.w3.org/1999/xlink" x="0px" y="0px"
	 viewBox="0 0 160 160" style="enable-background:new 0 0 160 160;" xml:space="preserve">
<style type="text/css">
	.st0{fill:none;stroke:#61CE99;stroke-width:6;stroke-linecap:round;stroke-linejoin:round;stroke-miterlimit:10;}
	.st1{fill:none;stroke:#28A067;stroke-width:6;stroke-linecap:round;stroke-linejoin:round;stroke-miterlimit:10;}
	.st2{fill:none;stroke:#41B883;stroke-width:6;stroke-linecap:round;stroke-linejoin:round;stroke-miterlimit:10;}
	.st3{fill:none;stroke:#61CE99;stroke-width:6;stroke-linecap:round;stroke-miterlimit:10;}
</style>
<path class="st0" d="M39.1,145.9l11.7-20.3l2.7-4.7l3.7-6.4l22.1-38.3L61.2,45L3.6,145.9H39.1z M64.8,51.5l2.5,4.2l8.3,14.2V70
	L64.8,51.5z"/>
<path class="st1" d="M101.4,114.7l35.9-0.1L78.2,14.1L61.2,45l6.1,10.7L75.6,70l3.7,6.4 M79.3,76.4l22.1,38.3 M130.1,114.5
	l-21.3,0.1"/>
<path class="st2" d="M39,145.9h117.4l-19.1-31.4l-80.1,0.1L39,145.9z M53.4,121l-10.6,18.5l7.9-13.9L53.4,121z"/>
<line class="st3" x1="39" y1="145.9" x2="61.2" y2="107.6"/>
</svg>
