<?xml version="1.0" encoding="utf-8"?>
<!-- Generator: Adobe Illustrator 23.0.1, SVG Export Plug-In . SVG Version: 6.00 Build 0)  -->
<svg version="1.1" id="Calque_1" xmlns="http://www.w3.org/2000/svg" xmlns:xlink="http://www.w3.org/1999/xlink" x="0px" y="0px"
	 viewBox="0 0 250 250" style="enable-background:new 0 0 250 250;" xml:space="preserve">
<style type="text/css">
	.st0{fill:#F9AD00;}
	.st1{fill:#4E4E4E;}
	.st2{fill:#FFFFFF;}
	.st3{fill:#368FB9;}
</style>
<g>
	<g>
		<g>
			<path id="arNRoK435" class="st0" d="M150.5,75.1h-36.8V38.3h36.8V75.1z"/>
		</g>
	</g>
	<g>
		<g>
			<path id="a3H2WU7Px" class="st0" d="M110,75.1H73.2V38.3H110V75.1z"/>
		</g>
	</g>
	<g>
		<g>
			<path id="b1DInM56vl" class="st0" d="M69.5,75.1H32.7V38.3h36.8V75.1z"/>
		</g>
	</g>
	<g>
		<g>
			<path id="a7LFlgQIwu" class="st0" d="M150.5,115.6h-36.8V78.8h36.8V115.6z"/>
		</g>
	</g>
	<g>
		<g>
			<path id="amwLiZcuo" class="st1" d="M110,115.6H73.2V78.8H110V115.6z"/>
		</g>
	</g>
	<g>
		<g>
			<path id="f3Peu5RWan" class="st1" d="M110,156.1H73.2v-36.8H110V156.1z"/>
		</g>
	</g>
	<g>
		<g>
			<path id="a6DXBfqPa" class="st1" d="M150.5,156.1h-36.8v-36.8h36.8V156.1z"/>
		</g>
	</g>
	<g>
		<g>
			<path id="c1GWSTH1z7" class="st1" d="M69.5,156.1H32.7v-36.8h36.8V156.1z"/>
		</g>
	</g>
</g>
<circle class="st2" cx="151.2" cy="143.5" r="71.7"/>
<g>
	<path class="st3" d="M151.2,82.4c-33.7,0-61.1,27.4-61.1,61.1s27.4,61.1,61.1,61.1s61.1-27.4,61.1-61.1S185,82.4,151.2,82.4"/>
	<path class="st2" d="M187.2,165.5c-3.8,0.9-5.7,1.7-10.4,4.8c-7.3,4.7-15.3,6.9-15.3,6.9s-0.7,1-2.6,1.4
		c-3.3,0.8-15.7,1.5-16.9,1.5c-3,0-4.9-0.8-5.4-2c-1.6-3.8,2.3-5.4,2.3-5.4s-0.8-0.5-1.3-1c-0.4-0.4-0.9-1.3-1.1-1
		c-0.6,1.4-0.9,5-2.5,6.5c-2.2,2.2-6.3,1.5-8.7,0.2c-2.7-1.4,0.2-4.7,0.2-4.7s-1.4,0.8-2.6-0.9c-1-1.6-2-4.3-1.7-7.7
		c0.3-3.8,4.6-7.6,4.6-7.6s-0.8-5.7,1.7-11.5c2.2-5.3,8.3-9.6,8.3-9.6s-5.1-5.6-3.2-10.7c1.2-3.3,1.7-3.3,2.1-3.4
		c1.4-0.5,2.8-1.1,3.8-2.2c5.1-5.5,11.5-4.4,11.5-4.4s3.1-9.3,5.9-7.5c0.9,0.6,4,7.6,4,7.6s3.4-2,3.7-1.2c2,3.9,2.3,11.5,1.4,16
		c-1.5,7.6-5.3,11.6-6.8,14.2c-0.4,0.6,4.1,2.5,6.8,10.2c2.6,7.1,0.3,13,0.7,13.6c0.1,0.1,0.1,0.2,0.1,0.2s2.9,0.2,8.9-3.4
		c3.2-2,6.9-4.2,11.2-4.2C190.1,159.9,190.3,164.8,187.2,165.5L187.2,165.5z M192.8,162.1c-0.4-3.4-3.3-5.7-6.9-5.6
		c-5.4,0.1-10,2.9-13,4.7c-1.2,0.7-2.2,1.3-3.1,1.7c0.2-2.7,0-6.3-1.4-10.3c-1.7-4.7-4-7.6-5.7-9.3c1.9-2.8,4.5-6.8,5.8-13.1
		c1.1-5.4,0.7-13.7-1.7-18.4c-0.5-0.9-1.3-1.6-2.4-1.9c-0.4-0.1-1.2-0.4-2.8,0.1c-2.4-4.9-3.2-5.5-3.8-5.9c-1.3-0.8-2.9-1-4.3-0.5
		c-2,0.7-3.6,2.6-5.2,5.9c-0.2,0.5-0.4,1-0.6,1.4c-3,0.2-7.7,1.3-11.7,5.6c-0.5,0.5-1.5,0.9-2.5,1.3h0c-2.1,0.7-3,2.4-4.2,5.5
		c-1.6,4.3,0,8.5,1.7,11.3c-2.2,2-5.2,5.1-6.7,8.8c-1.9,4.6-2.1,9.1-2.1,11.5c-1.7,1.7-4.2,5-4.5,8.7c-0.4,5.1,1.5,8.6,2.3,9.9
		c0.2,0.4,0.5,0.7,0.8,1c-0.1,0.6-0.1,1.3,0,2c0.3,1.7,1.3,3,2.9,3.8c3.1,1.7,7.5,2.4,10.8,0.7c1.2,1.3,3.4,2.5,7.4,2.5h0.2
		c1,0,13.9-0.7,17.6-1.6c1.7-0.4,2.8-1.1,3.6-1.7c2.4-0.8,9.1-3,15.3-7.1c4.4-2.9,6-3.5,9.3-4.3
		C191.2,168.2,193.2,165.3,192.8,162.1L192.8,162.1z"/>
</g>
</svg>
