<?xml version="1.0" encoding="utf-8"?>
<!-- Generator: Adobe Illustrator 25.2.0, SVG Export Plug-In . SVG Version: 6.00 Build 0)  -->
<svg version="1.1" id="Layer_1" xmlns="http://www.w3.org/2000/svg" xmlns:xlink="http://www.w3.org/1999/xlink" x="0px" y="0px"
	 viewBox="0 0 410 404" style="enable-background:new 0 0 410 404;" xml:space="preserve">
<style type="text/css">
	.st0{fill:#685E68;}
	.st1{fill:#433F43;}
	.st2{fill:#F4EAFA;}
	.st3{fill:#C2BCE0;}
	.st4{fill:#3ADB73;}
	.st5{fill:#69E291;}
	.st6{fill:#FD3581;}
	.st7{fill:#C3186C;}
</style>
<g>
	<g>
		<path class="st0" d="M47,186.7c0,18.7,16.2,33.8,34.8,33.8v-67.7C63.1,152.8,47,168,47,186.7z"/>
		<path class="st0" d="M363.1,186.7c0,18.7-16.2,33.8-34.8,33.8v-67.7C346.9,152.8,363.1,168,363.1,186.7z"/>
		<path class="st1" d="M363.1,186.7c0,18.7-16.2,33.8-34.8,33.8v-2.9c12.1-5.3,20.9-17.1,20.9-30.9c0-13.8-8.8-25.6-20.9-30.9v-2.9
			C346.9,152.8,363.1,168,363.1,186.7L363.1,186.7z"/>
		<path class="st0" d="M230.4,278.5c0,14-11.4,25.3-25.4,25.3c-2.8,0-5.5-0.4-8-1.3c-10.1-3.3-17.4-12.8-17.4-24.1H230.4z"/>
		<path class="st1" d="M230.4,278.5c0,14-11.4,25.3-25.4,25.3c-2.8,0-5.5-0.4-8-1.3c10.1-3.3,17.4-12.8,17.4-24.1H230.4z"/>
		<path class="st2" d="M329.2,186.7c0,45.8-5.8,82.9-5.8,82.9s-5.2,0.9-14.5,2.2c-19.7,2.7-57.6,6.8-103.9,6.8
			c-68.1,0-118.4-9-118.4-9s-5.8-37.2-5.8-82.9s5.8-82.9,5.8-82.9s50.2-9,118.4-9c45.9,0,83.7,4.1,103.5,6.7
			c9.6,1.3,14.9,2.2,14.9,2.2S329.2,140.9,329.2,186.7z"/>
		<path class="st3" d="M329.2,186.7c0,45.8-5.8,82.9-5.8,82.9s-5.2,0.9-14.5,2.2c10.1-84.9,1.8-154.8-0.4-170.2
			c9.6,1.3,14.9,2.2,14.9,2.2S329.2,140.9,329.2,186.7z"/>
		<path class="st4" d="M300.8,128.1c-4.3-0.5-9-1-14.2-1.6c-21.1-2.1-49.4-4.1-81.5-4.1c-40,0-74.1,3.1-95.7,5.6
			c-1.4,15.1-2.9,35.8-2.9,58.5s1.4,43.4,2.9,58.5c21.6,2.6,55.8,5.6,95.7,5.6c32.1,0,60.5-2,81.6-4.1c5.2-0.5,9.9-1,14.2-1.5
			c1.4-15.1,2.9-35.8,2.9-58.5S302.2,143.2,300.8,128.1L300.8,128.1z"/>
		<path class="st5" d="M303.7,186.7c0,22.7-1.4,43.4-2.9,58.5c-4.3,0.5-9,1-14.2,1.5c5.7-53.1,1.4-105.4,0-120.1
			c5.2,0.5,9.9,1,14.2,1.6C302.2,143.2,303.7,164,303.7,186.7z"/>
		<path class="st2" d="M328.2,348.8h-49.9l-73.3-6.4l-73.3,6.4H81.8C94,316,100.5,303.9,205,303.9c12.6,0,23.8,0.2,33.8,0.5
			C311.3,307.1,317.6,320,328.2,348.8L328.2,348.8z"/>
		<path class="st3" d="M328.2,348.8h-22.3c-3.1-29.4-42.5-40.4-67.1-44.3C311.3,307.1,317.6,320,328.2,348.8L328.2,348.8z"/>
		<path class="st0" d="M278.4,348.8H131.7c0.9-8.7,1.7-14.1,1.7-14.1s30.4-5.4,71.6-5.4c22.7,0,42.2,1.7,55,3.1
			c10.5,1.2,16.6,2.3,16.6,2.3S277.5,340,278.4,348.8z"/>
		<path class="st1" d="M278.4,348.8h-16.7l-1.6-16.4c10.5,1.2,16.6,2.3,16.6,2.3S277.5,340,278.4,348.8z"/>
		<g>
			<path class="st6" d="M214.6,64.8c0,5.3-4.3,9.5-9.5,9.5c-1.7,0-3.3-0.4-4.6-1.2c-2.9-1.6-4.9-4.8-4.9-8.3c0-3.6,2-6.7,4.9-8.3
				c1.4-0.8,3-1.2,4.6-1.2C210.3,55.2,214.6,59.5,214.6,64.8z"/>
			<path class="st7" d="M214.6,64.8c0,5.3-4.3,9.5-9.5,9.5c-1.7,0-3.3-0.4-4.6-1.2c2.9-1.6,4.9-4.8,4.9-8.3c0-3.6-2-6.7-4.9-8.3
				c1.4-0.8,3-1.2,4.6-1.2C210.3,55.2,214.6,59.5,214.6,64.8z"/>
		</g>
	</g>
	<g>
		<path d="M324.3,274.2c2-0.4,3.6-1.9,3.9-4c0-0.3,2.9-18.7,4.6-45.3c8.7-1,16.8-4.8,23.2-11c15.7-14.5,15.7-40.2,0-54.7
			c-6.4-6.2-14.6-10-23.2-11c-1.7-26.6-4.6-45-4.6-45.3c-0.3-2-1.9-3.6-3.9-4c-0.5-0.1-49.1-8.6-114.5-9.1V78.3
			c15-5.5,11.4-27.5-4.8-27.8c-16.1,0.3-19.7,22.3-4.8,27.8V90c-22.3,0.1-45,1.2-67.4,3.2c-2.6,0.2-4.6,2.6-4.3,5.2
			c0.2,2.6,2.6,4.6,5.2,4.3c23.7-2.1,47.8-3.2,71.4-3.2c57,0,101.8,6.4,114.2,8.4c1.4,10.1,5.3,41.8,5.3,78.8s-3.9,68.6-5.3,78.8
			c-12.3,2-57.2,8.4-114.2,8.4c-57,0-101.8-6.4-114.2-8.4c-1.4-10.1-5.3-41.8-5.3-78.8c0-37,3.9-68.6,5.3-78.8
			c3.9-0.6,11.1-1.7,20.9-2.9c2.6-0.3,4.5-2.7,4.2-5.3c-0.3-2.6-2.7-4.5-5.3-4.2c-15.5,1.9-24.4,3.4-24.8,3.5c-2,0.4-3.6,1.9-3.9,4
			c0,0.3-2.9,18.7-4.6,45.3c-8.7,1-16.8,4.8-23.2,11c-11.2,10.6-15,27.1-9.2,41.2c1,2.5,3.8,3.6,6.2,2.6c2.4-1,3.6-3.8,2.6-6.2
			c-7.1-16.8,5.3-36.1,23-38.9c-0.9,17.7-0.9,39.6,0,57.3c-4.1-0.7-8-2.2-11.5-4.5c-2.2-1.4-5.2-0.8-6.6,1.4
			c-1.4,2.2-0.8,5.2,1.4,6.6c5.2,3.4,11.1,5.5,17.2,6.2c1.7,26.6,4.6,45,4.6,45.3c0.3,2,1.9,3.6,3.9,4c0.4,0.1,37,6.5,89.4,8.5
			c0.9,6.4,3.8,12.1,8.1,16.6c-39,0.8-61.9,4-76.4,10.3c-18.7,8.2-23.7,21.7-29.5,37.4c-0.9,2.5,0.3,5.2,2.8,6.1
			c2.4,0.9,5.2-0.3,6.1-2.8c11.3-30.4,15.5-41.8,118.7-41.8s107.5,11.4,118.7,41.8c0.9,2.5,3.7,3.7,6.1,2.8c2.5-0.9,3.7-3.7,2.8-6.1
			c-5.8-15.7-10.8-29.2-29.5-37.4c-14.5-6.4-37.4-9.6-76.4-10.3c4.3-4.5,7.2-10.2,8.1-16.6C287.2,280.8,323.8,274.3,324.3,274.2
			L324.3,274.2z M333.3,158c33.2,6.7,33.2,50.6,0,57.3C334.2,197.6,334.2,175.7,333.3,158L333.3,158z M205,69.5
			c-2.6,0-4.8-2.1-4.8-4.8c0.2-6.3,9.3-6.3,9.6,0C209.8,67.4,207.7,69.5,205,69.5L205,69.5z M205,299.1c-9.8,0-18-6.9-20.1-16.1
			c12.9,0.3,27.3,0.3,40.2,0C223.1,292.2,214.8,299.1,205,299.1z"/>
		<path d="M281.4,333.9c-0.3-2-1.9-3.6-3.9-4c-1.3-0.2-31.3-5.5-72.5-5.5c-9.2,0-18.7,0.3-28.1,0.8c-2.6,0.2-4.6,2.4-4.5,5
			c0.2,2.6,2.4,4.6,5,4.5c9.2-0.5,18.5-0.8,27.5-0.8c32.5,0,58.4,3.5,67.4,4.8c0.3,2.4,0.7,6,1.2,10.4c0.2,2.5,2.3,4.3,4.7,4.3
			c0.2,0,0.3,0,0.5,0c2.6-0.3,4.5-2.6,4.3-5.2C282.2,339.5,281.4,334.2,281.4,333.9L281.4,333.9z"/>
		<path d="M154.4,327.1c-13.5,1.4-21.5,2.8-21.9,2.9c-2,0.4-3.6,1.9-3.9,4c0,0.2-0.9,5.6-1.7,14.4c-0.3,2.6,1.7,5,4.3,5.2
			c2.6,0.3,5-1.6,5.2-4.3c0.4-4.4,0.9-8,1.2-10.4c3.5-0.5,9.7-1.4,17.8-2.2c2.6-0.3,4.5-2.6,4.3-5.2
			C159.4,328.7,157.1,326.8,154.4,327.1L154.4,327.1z"/>
		<path d="M298.9,186.7c0,2.6,2.1,4.8,4.8,4.8c2.6,0,4.8-2.1,4.8-4.8c0-23.6-1.6-45.1-2.9-59c-0.2-2.2-2-4-4.2-4.3
			c-21.7-2.6-56.1-5.7-96.3-5.7c-40.2,0-74.6,3.1-96.3,5.7c-2.2,0.3-4,2-4.2,4.3c-1.3,13.8-2.9,35.3-2.9,59c0,23.6,1.6,45.1,2.9,59
			c0.2,2.2,2,4,4.2,4.3c21.7,2.6,56.1,5.7,96.3,5.7c40.2,0,74.6-3.1,96.3-5.7c2.2-0.3,4-2,4.2-4.3c1.2-12.5,2-25.1,2.5-37.4
			c0.1-2.6-2-4.8-4.6-4.9c-2.6-0.1-4.9,2-4.9,4.6c-0.4,10.9-1.1,22-2.1,33c-21.6,2.4-53.9,5.1-91.3,5.1c-37.4,0-69.8-2.7-91.3-5.1
			c-3.1-26.3-3.1-82.1,0-108.4c21.6-2.4,53.9-5.1,91.3-5.1c37.4,0,69.8,2.7,91.3,5.1C297.6,146,298.9,165.5,298.9,186.7z"/>
		<path d="M195.2,170.3c0-2.6-2.1-4.8-4.8-4.8h-35.5c-6.3,0.2-6.3,9.3,0,9.5h35.5C193.1,175.1,195.2,172.9,195.2,170.3z"/>
		<path d="M259.4,170.3c0-2.6-2.1-4.8-4.8-4.8h-35.5c-6.3,0.2-6.3,9.3,0,9.5h35.5C257.3,175.1,259.4,172.9,259.4,170.3z"/>
		<path d="M192.3,211.6h25.4c6.3-0.2,6.3-9.3,0-9.5h-25.4C186,202.3,186,211.4,192.3,211.6z"/>
		<path d="M129.4,220.5c-2.6,0-4.8,2.1-4.8,4.8c0.2,6.3,9.3,6.3,9.5,0C134.2,222.7,132.1,220.5,129.4,220.5z"/>
		<path d="M129.4,143.6c-2.6,0-4.8,2.1-4.8,4.8c0.2,6.3,9.3,6.3,9.5,0C134.2,145.7,132.1,143.6,129.4,143.6z"/>
		<path d="M280.1,220.5c-2.6,0-4.8,2.1-4.8,4.8c0.2,6.3,9.3,6.3,9.5,0C284.9,222.7,282.7,220.5,280.1,220.5z"/>
		<path d="M280.1,143.6c-2.6,0-4.8,2.1-4.8,4.8c0.2,6.3,9.3,6.3,9.5,0C284.9,145.7,282.7,143.6,280.1,143.6z"/>
	</g>
</g>
</svg>
