<?xml version="1.0" encoding="utf-8"?>
<!-- Generator: Adobe Illustrator 23.0.1, SVG Export Plug-In . SVG Version: 6.00 Build 0)  -->
<svg version="1.1" id="Calque_1" xmlns="http://www.w3.org/2000/svg" xmlns:xlink="http://www.w3.org/1999/xlink" x="0px" y="0px"
	 viewBox="0 0 250 250" style="enable-background:new 0 0 250 250;" xml:space="preserve">
<style type="text/css">
	.st0{fill-rule:evenodd;clip-rule:evenodd;fill:#FFFFFF;filter:url(#Adobe_OpacityMaskFilter);}
	.st1{mask:url(#mask0_2_);}
	.st2{fill:#0065A9;}
	.st3{fill:#007ACC;}
	.st4{fill:#1F9CF0;}
	.st5{opacity:0.25;}
	.st6{fill-rule:evenodd;clip-rule:evenodd;fill:url(#SVGID_1_);}
</style>
<defs>
	<filter id="Adobe_OpacityMaskFilter" filterUnits="userSpaceOnUse" x="47.2" y="47.6" width="155.7" height="154.8">
		<feColorMatrix  type="matrix" values="1 0 0 0 0  0 1 0 0 0  0 0 1 0 0  0 0 0 1 0"/>
	</filter>
</defs>
<mask maskUnits="userSpaceOnUse" x="47.2" y="47.6" width="155.7" height="154.8" id="mask0_2_">
	<path class="st0" d="M157.6,201.7c2.5,1,5.2,0.9,7.7-0.3l32-15.4c3.4-1.6,5.5-5,5.5-8.8V72.7c0-3.7-2.1-7.1-5.5-8.8l-32-15.4
		c-3.2-1.6-7-1.2-9.9,0.9c-0.4,0.3-0.8,0.6-1.2,1l-61.3,55.9L66.2,86.1c-2.5-1.9-6-1.7-8.3,0.4l-8.6,7.8c-2.8,2.6-2.8,7,0,9.6
		L72.5,125l-23.2,21.1c-2.8,2.6-2.8,7,0,9.6l8.6,7.8c2.3,2.1,5.8,2.3,8.3,0.4l26.7-20.3l61.3,55.9
		C155.2,200.5,156.4,201.3,157.6,201.7z M164,89.7L117.4,125l46.5,35.3V89.7z"/>
</mask>
<g class="st1">
	<path class="st2" d="M197.3,64l-32.1-15.4c-3.7-1.8-8.1-1-11.1,1.9L49.3,146.1c-2.8,2.6-2.8,7,0,9.6l8.6,7.8
		c2.3,2.1,5.8,2.3,8.3,0.4L192.5,68c4.2-3.2,10.3-0.2,10.3,5.1v-0.4C202.8,69,200.7,65.6,197.3,64z"/>
	<g>
		<path class="st3" d="M197.3,186l-32.1,15.4c-3.7,1.8-8.1,1-11.1-1.9L49.3,103.9c-2.8-2.6-2.8-7,0-9.6l8.6-7.8
			c2.3-2.1,5.8-2.3,8.3-0.4L192.5,182c4.2,3.2,10.3,0.2,10.3-5.1v0.4C202.8,181,200.7,184.4,197.3,186z"/>
	</g>
	<g>
		<path class="st4" d="M165.3,201.4c-3.7,1.8-8.1,1-11.1-1.9c3.6,3.6,9.7,1,9.7-4V54.5c0-5.1-6.1-7.6-9.7-4
			c2.9-2.9,7.3-3.7,11.1-1.9L197.3,64c3.4,1.6,5.5,5,5.5,8.8v104.5c0,3.7-2.1,7.1-5.5,8.8L165.3,201.4z"/>
	</g>
	<g class="st5">
		
			<linearGradient id="SVGID_1_" gradientUnits="userSpaceOnUse" x1="124.9526" y1="204.3936" x2="124.9526" y2="49.6063" gradientTransform="matrix(1 0 0 -1 0 252)">
			<stop  offset="0" style="stop-color:#FFFFFF"/>
			<stop  offset="1" style="stop-color:#FFFFFF;stop-opacity:0"/>
		</linearGradient>
		<path class="st6" d="M157.5,201.7c2.5,1,5.2,0.9,7.7-0.3l32-15.4c3.4-1.6,5.5-5,5.5-8.8V72.7c0-3.7-2.1-7.1-5.5-8.8l-32-15.4
			c-3.2-1.6-7-1.2-9.9,0.9c-0.4,0.3-0.8,0.6-1.2,1l-61.3,55.9L66.1,86.1c-2.5-1.9-6-1.7-8.3,0.4l-8.6,7.8c-2.8,2.6-2.8,7,0,9.6
			L72.4,125l-23.2,21.1c-2.8,2.6-2.8,7,0,9.6l8.6,7.8c2.3,2.1,5.8,2.3,8.3,0.4l26.7-20.3l61.3,55.9
			C155.1,200.5,156.3,201.3,157.5,201.7z M163.9,89.7L117.3,125l46.5,35.3V89.7z"/>
	</g>
</g>
</svg>
