<?xml version="1.0" encoding="utf-8"?>
<!-- Generator: Adobe Illustrator 23.0.1, SVG Export Plug-In . SVG Version: 6.00 Build 0)  -->
<svg version="1.1" id="Capa_1" xmlns="http://www.w3.org/2000/svg" xmlns:xlink="http://www.w3.org/1999/xlink" x="0px" y="0px"
	 viewBox="0 0 512 512" style="enable-background:new 0 0 512 512;" xml:space="preserve">
<style type="text/css">
	.st0{fill:none;stroke:#ACC0CC;stroke-miterlimit:10;}
	.st1{fill:#FAF1A9;}
	.st2{fill:#F6E06E;}
	.st3{fill:#DDA86A;}
	.st4{fill:#FFFFFF;}
	.st5{fill:#E1BDFC;}
	.st6{fill:#3C122C;}
</style>
<rect class="st0" width="511.9" height="511.9"/>
<g>
	<g>
		<path class="st1" d="M386,282.8c0-38.3-26.1-45.9-58.3-45.9c-2.1,0-4.1,0-6.1,0.1l-1.6-33.6H176.4l-8.3,178.4
			c-0.4,9.1,7.3,16.8,16.9,16.8h126.4c9.7,0,17.4-7.6,16.9-16.8l-1.4-29.7c0.2,0,0.4,0,0.6,0C359.9,352.1,386,321,386,282.8
			L386,282.8z M322.6,258.1c1.1,0,2.1,0,3.2,0c20.4,0,36.9,4.8,36.9,29c0,24.1-16.4,43.6-36.6,43.8L322.6,258.1z"/>
		<path class="st2" d="M293.9,378.6h-91.2c-7,0-12.5-6.7-12.2-14.7l6-156.2H300l6.1,156.2C306.5,372,300.9,378.6,293.9,378.6
			L293.9,378.6z"/>
		<path class="st3" d="M306.2,364L300,207.7h-23.2l4.8,134.6c0.2,6.9-4.1,12.7-9.6,12.7h-71.9c-4.1,0-7.6-3.2-9-7.7l-0.6,16.7
			c-0.3,8,5.3,14.7,12.2,14.7h91.2C300.9,378.6,306.5,372,306.2,364z"/>
		<path class="st4" d="M289.8,148.6c-8.4-12.1-22.9-20.1-39.3-20.1c-16.9,0-31.8,8.5-40,21.2c-5.6-5.5-13.4-8.9-22-8.9
			c-16.9,0-30.5,12.9-30.5,28.9c0,6.4,2.2,12.3,5.9,17.1c-6.1,5.3-9.9,12.8-9.9,21.3c0,16,13.7,28.9,30.5,28.9
			c7.8,0,14.9-2.8,20.3-7.3c4.6,2.7,10.1,4.2,15.9,4.2c12,0,22.5-6.6,27.4-16.2c0.8,0,1.6,0.1,2.4,0.1c6.1,0,11.9-1.1,17.3-3.1
			c6,3.8,13.2,6,21,6c21,0,38-16.1,38-36C326.7,165,310.3,149.2,289.8,148.6L289.8,148.6z"/>
		<path class="st5" d="M289.8,148.6c-8.4-12.1-2.4-1.1,3,2.7c7.6,5.4,12.6,13.8,12.6,23.1c0,16.3-14.8,29.5-33,29.5
			c-6.7,0-13-1.8-18.2-4.9c-4.6,1.6-9.7,2.6-15,2.6c-0.7,0-1.4,0-2.1,0c-4.3,7.9-13.3,13.3-23.8,13.3c-5.1,0-9.8-1.3-13.8-3.5
			c-4.7,3.7-10.9,6-17.6,6c-13,0-23.8-8.4-26.1-19.5c-1.2,3.2-1.9,6.6-1.9,10.1c0,16,13.7,28.9,30.5,28.9c7.8,0,14.9-2.8,20.3-7.3
			c4.6,2.7,10.1,4.2,15.9,4.2c12,0,22.5-6.6,27.4-16.2c0.8,0,1.6,0.1,2.4,0.1c6.1,0,11.9-1.1,17.3-3.1c6,3.8,13.2,6,21,6
			c21,0,38-16.1,38-36C326.7,165,310.3,149.2,289.8,148.6L289.8,148.6z"/>
		<path class="st1" d="M379.8,162.4l4.8,13.5c0.2,0.6,0.6,1,1.1,1.3l12,5.4c1.7,0.8,1.7,3.5,0,4.2l-12,5.4c-0.5,0.2-0.9,0.7-1.1,1.3
			l-4.8,13.5c-0.7,1.9-3.1,1.9-3.8,0l-4.8-13.5c-0.2-0.6-0.6-1-1.1-1.3l-12-5.4c-1.7-0.8-1.7-3.5,0-4.2l12-5.4
			c0.5-0.2,0.9-0.7,1.1-1.3l4.8-13.5C376.7,160.5,379.1,160.5,379.8,162.4z"/>
		<ellipse class="st2" cx="345.4" cy="118.1" rx="10.5" ry="10.5"/>
		<circle class="st2" cx="117.5" cy="173.9" r="4.5"/>
		<path class="st1" d="M141.7,108.7l3.6,10c0.2,0.4,0.5,0.8,0.8,0.9l8.9,4c1.3,0.6,1.3,2.6,0,3.1l-8.9,4c-0.4,0.2-0.7,0.5-0.8,0.9
			l-3.6,10c-0.5,1.4-2.3,1.4-2.8,0l-3.6-10c-0.2-0.4-0.5-0.8-0.8-0.9l-8.9-4c-1.3-0.6-1.3-2.6,0-3.1l8.9-4c0.4-0.2,0.7-0.5,0.8-0.9
			l3.6-10C139.4,107.3,141.2,107.3,141.7,108.7z"/>
	</g>
	<g>
		<g>
			<path class="st6" d="M391.8,282.8c0-19.7-6.7-33.9-19.8-42.2c-10.2-6.5-24.3-9.5-44.4-9.5c-0.2,0-0.3,0-0.5,0l-1.2-24.5
				c4.2-6.4,6.6-13.9,6.6-22c0-11-4.5-21.4-12.5-29.3c-7.3-7.1-16.8-11.4-27.1-12.3c-10-12.7-25.6-20.3-42.4-20.3
				c-16.2,0-31.1,6.9-41.1,18.6c-6.1-4.1-13.4-6.4-21-6.4c-20,0-36.4,15.6-36.4,34.7c0,5.8,1.5,11.3,4.3,16.3
				c-5.3,6.2-8.2,13.9-8.2,22c0,13.8,8.5,25.8,20.8,31.4l-6.6,142.1c-0.3,5.9,1.8,11.5,6,15.8c4.3,4.5,10.4,7.1,16.8,7.1h126.4
				c6.4,0,12.5-2.6,16.8-7.1c4.1-4.3,6.2-9.9,6-15.8l-1.1-23.9C366,354.3,391.8,322,391.8,282.8L391.8,282.8z M328.6,261.6
				c21.9,0.6,30.6,7.8,30.6,25.4c0,19.8-11.9,36.3-27.5,39.7L328.6,261.6z M159.7,208c0-6.5,2.8-12.4,7.9-16.9c2.3-2,2.7-5.5,0.8-8
				c-3.1-3.9-4.7-8.6-4.7-13.5c0-12.7,11.1-23,24.7-23c6.8,0,13.2,2.6,17.9,7.2c1.2,1.2,3,1.8,4.7,1.7c1.7-0.2,3.3-1.1,4.3-2.6
				c7.6-11.6,20.7-18.5,35.2-18.5c14,0,26.9,6.6,34.5,17.6c1.1,1.5,2.8,2.5,4.6,2.5c17.5,0.5,31.2,13.7,31.2,30.1
				c0,16.6-14.4,30.1-32.1,30.1c-6.4,0-12.6-1.8-17.9-5.1c-1.5-1-3.4-1.2-5.2-0.5c-4.9,1.8-10,2.7-15.2,2.7c-0.7,0-1.4,0-2.1-0.1
				c-2.3-0.1-4.4,1.1-5.5,3.2c-4.1,7.9-12.8,13.1-22.2,13.1c-4.6,0-9.1-1.2-13-3.4c-2.1-1.2-4.8-1-6.7,0.6c-4.5,3.8-10.4,6-16.5,6
				C170.8,231,159.7,220.7,159.7,208L159.7,208z M300.3,364.2c0.1,2.6-0.8,5.1-2.4,6.8c-0.8,0.8-2.2,1.8-4,1.8h-91.2
				c-1.8,0-3.2-1-4-1.8c-1.6-1.7-2.5-4.2-2.4-6.8l4.8-125.3c1.5-0.7,2.9-1.5,4.2-2.4c4.8,2.1,10,3.2,15.3,3.2
				c12.6,0,24.1-6.1,30.7-16.2c5.4-0.1,10.7-0.9,15.8-2.6c6.6,3.6,14,5.4,21.6,5.4c2.1,0,4.2-0.2,6.2-0.4L300.3,364.2z M319.9,389.2
				c-2.1,2.2-5.2,3.5-8.4,3.5H185.1c-3.2,0-6.2-1.3-8.4-3.5c-1.9-2-2.9-4.5-2.7-7.2l6.5-139.6c1.3,0.1,2.6,0.2,4,0.2
				c1.6,0,3.2-0.1,4.8-0.3l-4.6,121.3c-0.2,5.8,1.8,11.4,5.6,15.3c3.4,3.5,7.8,5.4,12.4,5.4h91.2c4.6,0,9.1-1.9,12.4-5.4
				c3.8-4,5.9-9.6,5.6-15.3l-5.5-141c3-1.3,5.8-2.8,8.4-4.7l7.8,164C322.8,384.7,321.8,387.3,319.9,389.2L319.9,389.2z M332.6,345.9
				l-0.6-12.1c19.3-3.5,34.1-23.1,34.1-46.7c0-12.4-4.2-21.3-12.4-26.5c-6-3.8-14.1-5.7-25.5-5.9l-0.6-11.9
				c37.7,0,52.4,11.2,52.4,40C380.1,315.7,359.2,342.9,332.6,345.9L332.6,345.9z"/>
			<path class="st6" d="M232.4,355.2c-8.3,0-15-6.7-15-15s6.7-15,15-15c8.3,0,15,6.7,15,15C247.4,348.5,240.7,355.2,232.4,355.2z
				 M232.4,332.2c-4.4,0-8,3.6-8,8c0,4.4,3.6,8,8,8s8-3.6,8-8S236.8,332.2,232.4,332.2L232.4,332.2z"/>
			<path class="st6" d="M264.3,302.8c-7.3,0-13.2-5.9-13.2-13.2s5.9-13.2,13.2-13.2s13.2,5.9,13.2,13.2
				C277.4,296.9,271.5,302.8,264.3,302.8z M264.3,283.5c-3.4,0-6.2,2.8-6.2,6.2c0,3.4,2.8,6.2,6.2,6.2c3.4,0,6.2-2.8,6.2-6.2
				C270.4,286.3,267.7,283.5,264.3,283.5z"/>
			<path class="st6" d="M241,276.9c-7.3,0-13.2-5.9-13.2-13.2s5.9-13.2,13.2-13.2c7.3,0,13.2,5.9,13.2,13.2
				C254.2,271,248.3,276.9,241,276.9L241,276.9z M241,257.5c-3.4,0-6.2,2.8-6.2,6.2c0,3.4,2.8,6.2,6.2,6.2c3.4,0,6.2-2.8,6.2-6.2
				C247.1,260.3,244.4,257.5,241,257.5z"/>
			<path class="st6" d="M238.5,196.3c-1.9,0-3.5-1.6-3.5-3.5c0-6.7-5.5-12.2-12.2-12.2s-12.2,5.5-12.2,12.2c0,1.9-1.6,3.5-3.5,3.5
				c-1.9,0-3.5-1.6-3.5-3.5c0-10.6,8.6-19.2,19.2-19.2c10.6,0,19.2,8.6,19.2,19.2C242.1,194.7,240.5,196.3,238.5,196.3L238.5,196.3z
				"/>
			<path class="st6" d="M271.8,178.7c-1.9,0-3.5-1.6-3.5-3.5c0-3.3-2.7-6.1-6.1-6.1c-3.3,0-6.1,2.7-6.1,6.1c0,1.9-1.6,3.5-3.5,3.5
				c-1.9,0-3.5-1.6-3.5-3.5c0-7.2,5.9-13.1,13.1-13.1c7.2,0,13.1,5.9,13.1,13.1C275.3,177.2,273.7,178.7,271.8,178.7z"/>
			<path class="st6" d="M279.9,256c-1.9,0-3.5-1.6-3.5-3.5v-7.2c0-1.9,1.6-3.5,3.5-3.5c1.9,0,3.5,1.6,3.5,3.5v7.2
				C283.4,254.4,281.8,256,279.9,256z"/>
			<path class="st6" d="M268.5,333c-1.9,0-3.5-1.6-3.5-3.5v-7.2c0-1.9,1.6-3.5,3.5-3.5s3.5,1.6,3.5,3.5v7.2
				C272,331.4,270.4,333,268.5,333z"/>
			<path class="st6" d="M284.2,343.5c-1.9,0-3.5-1.6-3.5-3.5v-7.2c0-1.9,1.6-3.5,3.5-3.5s3.5,1.6,3.5,3.5v7.2
				C287.7,341.9,286.2,343.5,284.2,343.5z"/>
		</g>
		<path class="st4" d="M210.8,312.6c-0.2,0-0.5,0-0.7,0c-3.2-0.4-5.5-3.3-5.1-6.5c0.5-3.9,0.4-8.1,0.4-12.6c0-4.6-0.1-9.3,0.5-14
			c0.4-3.2,3.3-5.5,6.5-5.1c3.2,0.4,5.5,3.3,5.1,6.5c-0.5,3.9-0.4,8.1-0.4,12.5c0,4.6,0.1,9.4-0.5,14
			C216.3,310.4,213.7,312.6,210.8,312.6z"/>
		<path class="st4" d="M212.3,267.1c-0.1,0-0.1,0-0.2,0c-3.2-0.1-5.8-2.8-5.6-6l0.3-8.4c0.1-3.2,2.8-5.8,6-5.6
			c3.2,0.1,5.8,2.8,5.6,6l-0.3,8.4C218,264.6,215.4,267.1,212.3,267.1z"/>
	</g>
</g>
</svg>
