<?xml version="1.0" encoding="utf-8"?>
<!-- Generator: Adobe Illustrator 23.0.1, SVG Export Plug-In . SVG Version: 6.00 Build 0)  -->
<svg version="1.1" id="Capa_1" xmlns="http://www.w3.org/2000/svg" xmlns:xlink="http://www.w3.org/1999/xlink" x="0px" y="0px"
	 viewBox="0 0 512 512" style="enable-background:new 0 0 512 512;" xml:space="preserve">
<style type="text/css">
	.st0{fill:none;stroke:#ACC0CC;stroke-miterlimit:10;}
	.st1{fill:#FFFFFF;}
	.st2{fill:#E1BDFC;}
	.st3{fill:#A1E8C3;}
	.st4{fill:#85ADC2;}
	.st5{fill:#F3D4D2;}
	.st6{fill:#DBA2B3;}
	.st7{fill:#CDF4E3;}
	.st8{fill:#A2E9C4;}
	.st9{fill:#3C122C;}
</style>
<rect class="st0" width="511.9" height="511.9"/>
<g>
	<g>
		<path class="st1" d="M295.6,397.8h-83c-26.8,0-48.8-21.1-50-47.8l-6.5-144.6c-0.4-8.6,6.5-15.8,15.1-15.8h165.6
			c8.6,0,15.5,7.2,15.1,15.8L345.5,350C344.3,376.7,322.3,397.8,295.6,397.8L295.6,397.8z"/>
		<path class="st2" d="M336.9,189.6h-43.3c6.6,0,11.8,5.5,11.5,12l-1.8,39.7h15.3c1.4,0,2.3,0.7,2.7,1.7c1,0.5,1.7,1.4,1.7,2.7v82.7
			c0,1.9-1.3,2.9-2.8,3v33.4h-6.5c0.2,1.7-0.8,3.6-3,3.6H197.9c-2.2,0-3.2-1.9-3-3.6l-5.6-2.5l-3.3-14.5h-4.7
			c-8.9,0-16.4-6-18.6-14.2l1.1,22.7c0.6,13.6,22.5,38.4,36.1,38.4h110.2c13.6,0,34-24.9,34.6-38.4l7.5-151
			C352.4,196.8,345.5,189.6,336.9,189.6L336.9,189.6z"/>
		<g>
			<ellipse transform="matrix(0.9818 -0.19 0.19 0.9818 -16.807 45.0495)" class="st3" cx="226.6" cy="110.2" rx="9.6" ry="25.7"/>
			<ellipse transform="matrix(0.9818 -0.19 0.19 0.9818 -16.807 45.0495)" class="st3" cx="226.6" cy="110.2" rx="9.6" ry="25.7"/>
			
				<ellipse transform="matrix(6.200471e-02 -0.9981 0.9981 6.200471e-02 104.9859 374.6018)" class="st3" cx="251.8" cy="131.4" rx="25.7" ry="9.6"/>
			
				<ellipse transform="matrix(0.276 -0.9611 0.9611 0.276 51.8027 370.0756)" class="st3" cx="271.6" cy="150.7" rx="25.7" ry="9.6"/>
			
				<ellipse transform="matrix(0.5158 -0.8567 0.8567 0.5158 -11.2995 331.1438)" class="st3" cx="287.3" cy="175.6" rx="25.7" ry="9.6"/>
			
				<ellipse transform="matrix(0.7379 -0.6749 0.6749 0.7379 -56.2897 256.2325)" class="st3" cx="301.8" cy="200.6" rx="25.7" ry="9.6"/>
			<ellipse transform="matrix(0.11 -0.9939 0.9939 0.11 42.6606 314.612)" class="st3" cx="197" cy="133.5" rx="9.6" ry="25.7"/>
			
				<ellipse transform="matrix(0.9888 -0.149 0.149 0.9888 -21.1989 33.8773)" class="st3" cx="215.5" cy="158.4" rx="25.7" ry="9.6"/>
			<ellipse transform="matrix(0.968 -0.251 0.251 0.968 -38.2248 63.5503)" class="st3" cx="230" cy="181.6" rx="25.7" ry="9.6"/>
			
				<ellipse transform="matrix(0.9938 -0.111 0.111 0.9938 -21.0367 28.4565)" class="st3" cx="245.1" cy="203.2" rx="25.7" ry="9.6"/>
		</g>
		<path class="st4" d="M321.2,189.6h-21.4c-0.5,0.3-0.9,0.7-1.4,1.1c4.1,1.9,6.9,6.1,6.7,11l-0.4,8.9c1.2-0.9,2.3-1.9,3.5-3
			C314.9,201.4,319.6,194.7,321.2,189.6L321.2,189.6z"/>
		<path class="st5" d="M301.6,371.4h-95.1c-9.9,0-18.1-6.7-18.6-15.2l-5.5-105.4c-0.3-5.4,4.8-9.9,11.1-9.9h121.1
			c6.3,0,11.3,4.5,11.1,9.9l-5.5,105.4C319.8,364.7,311.6,371.4,301.6,371.4L301.6,371.4z"/>
		<path class="st6" d="M303.2,242.9l-3.9,86.6c-0.5,10.3-9,18.5-19.3,18.5h-92.6V361c2.7,3,5.2,6.1,7.8,9.2h116
			c4.5-3.7,4.6-7.7,9-11.6l4.5-115.8L303.2,242.9L303.2,242.9z"/>
		<path class="st1" d="M251.8,289.5l-5.7-18.7c-1.9-6.1-8.3-9.5-14.4-7.7l-18,5.5c-6.1,1.9-9.5,8.3-7.7,14.4l5.7,18.7
			c1.9,6.1,8.3,9.5,14.4,7.7l18-5.5C250.2,302.1,253.6,295.6,251.8,289.5z"/>
		<path class="st7" d="M374.7,91l5.7,15.9c0.2,0.7,0.7,1.2,1.3,1.5l14.2,6.4c2,0.9,2,4.1,0,5l-14.2,6.4c-0.6,0.3-1.1,0.8-1.3,1.5
			l-5.7,15.9c-0.8,2.3-3.6,2.3-4.4,0l-5.7-15.9c-0.2-0.7-0.7-1.2-1.3-1.5l-14.2-6.4c-2-0.9-2-4.1,0-5l14.2-6.4
			c0.6-0.3,1.1-0.8,1.3-1.5l5.7-15.9C371,88.8,373.9,88.8,374.7,91z"/>
		<path class="st8" d="M137.2,97.7c0,6.8-5.5,12.4-12.4,12.4c-6.8,0-12.4-5.5-12.4-12.4s5.5-12.4,12.4-12.4
			C131.6,85.3,137.2,90.9,137.2,97.7z"/>
		<path class="st8" d="M310.1,85.7c0,2.9-2.4,5.3-5.3,5.3c-2.9,0-5.3-2.4-5.3-5.3c0-2.9,2.4-5.3,5.3-5.3
			C307.7,80.4,310.1,82.8,310.1,85.7z"/>
		<path class="st7" d="M104.4,176.4l4.2,11.8c0.2,0.5,0.5,0.9,1,1.1l10.5,4.7c1.5,0.7,1.5,3,0,3.7l-10.5,4.7c-0.4,0.2-0.8,0.6-1,1.1
			l-4.2,11.8c-0.6,1.7-2.7,1.7-3.3,0l-4.2-11.8c-0.2-0.5-0.5-0.9-1-1.1l-10.5-4.7c-1.5-0.7-1.5-3,0-3.7l10.5-4.7
			c0.4-0.2,0.8-0.6,1-1.1l4.2-11.8C101.7,174.7,103.8,174.7,104.4,176.4z"/>
	</g>
	<g>
		<path class="st9" d="M352.4,189.9c-4.1-4.3-9.6-6.6-15.5-6.6h-11.8c-0.3-1-0.9-1.9-1.6-2.7c-2-2.2-6.2-4.2-14.4-0.9
			c-2.2,0.9-4.5,2.1-6.9,3.6h-4.1c0.2-0.3,0.3-0.5,0.5-0.8c3.8-6.3,6.4-12.8,7.4-18.3c1.6-8.7-1.1-12.4-3.7-13.9
			c-2.6-1.6-7.1-2.3-14,3.2c-1.8,1.4-3.6,3.2-5.4,5.2c0.5-1.4,1-2.9,1.4-4.4c3.9-13.7,4.1-29.5-4.7-32.1c-5.3-1.5-10.4,2.7-14.5,9.3
			c0.7-14-2.5-29-11.6-29.6c-6-0.4-10.3,6-12.8,14.3c-0.2-2.8-0.6-5.7-1.1-8.6c-1.4-7.2-3.8-13.8-6.7-18.6
			c-4.6-7.5-9.1-8.4-12.1-7.9c-3,0.6-6.8,3.1-8.3,11.8c-0.9,5.6-0.7,12.6,0.7,19.7c0.8,4.2,2,8.5,3.6,12.3c-5-2.4-11.5-4.1-18.6-4.9
			c-14.1-1.6-29.8,0.9-30.8,10.1c-1,9.2,13.7,15,27.9,16.6c2.6,0.3,5.2,0.4,7.7,0.4c0.4,0,0.7,0,1.1,0c-3.6,1.1-6.9,2.4-9.6,3.9
			c-7.7,4.3-8.8,8.7-8.4,11.7c0.5,3,2.8,6.9,11.4,8.7c2.8,0.6,6.1,0.9,9.5,0.9c3.3,0,6.7-0.3,10.2-0.8c0.1,0,0.1,0,0.2,0
			c-7.2,3-13.3,7-15.6,11.6h-30.9c-5.9,0-11.4,2.4-15.5,6.6c-4.1,4.3-6.2,9.9-5.9,15.8l6.5,144.6c1.4,30.2,26.1,53.9,56.3,53.9h83
			c30.2,0,55-23.7,56.3-53.9l6.5-144.6C358.6,199.8,356.5,194.2,352.4,189.9L352.4,189.9z M266.9,200.6c-0.2,1.8-7.6,6.7-21.1,8.2
			c-13.5,1.5-21.9-1.6-22.4-3.3c0.2-1.8,7.6-6.7,21.1-8.2c2.5-0.3,4.8-0.4,7-0.4C260.8,197,266.4,199.3,266.9,200.6L266.9,200.6z
			 M267.4,179.1c1.4-0.3,2.7-1,4-1.9c-0.8,1.8-1.4,3.6-2,5.4C268.7,181.4,268,180.2,267.4,179.1L267.4,179.1z M285.9,197.7
			c-2.2,2.6-4.1,5.4-5.5,8c-0.6-1.4-1.2-2.8-1.8-4.1C281,201,283.5,199.6,285.9,197.7z M297.8,196.2c0.1-0.1,0.2-0.2,0.3-0.3h15.4
			c-1.9,2.7-4.5,5.7-7.9,8.8c-10.1,9.2-18.6,11.5-20,10.6C284.7,213.8,287.7,205.4,297.8,196.2L297.8,196.2z M282.2,172.6
			c6.7-11.1,13.8-15.9,15.9-15.9c0.1,0,0.2,0,0.3,0c1.3,1.2,0.7,10.1-6.3,21.8c-1,1.7-2.1,3.3-3.1,4.7h-11.8
			C278.2,180.1,279.9,176.5,282.2,172.6z M266,149c3.7-13,9.7-19.5,11.5-19.5c0,0,0,0,0,0c1.6,0.8,3.3,9.6-0.5,22.7
			s-9.9,19.6-11.6,19.5C263.9,170.8,262.2,162.1,266,149z M260.9,183.2h-5.2c1.3-1.4,2.2-2.8,2.7-4.3
			C259.2,180.4,260,181.8,260.9,183.2z M254.7,159.7c0.6-0.4,1.1-0.8,1.6-1.2c-0.1,1.1-0.2,2.1-0.2,3.1
			C255.7,160.9,255.2,160.3,254.7,159.7L254.7,159.7z M246,131.1c0.8-13.6,5.4-21.2,7.1-21.5c1.7,0.5,5.3,8.6,4.4,22.2
			c-0.8,13.6-5.4,21.2-7.1,21.5C248.7,152.8,245.2,144.7,246,131.1z M244.1,158.4c2.3,3,4.6,6,6.8,9.1c-4.8-1.4-11.2-1.3-17.6-0.3
			c1.1-0.5,2.1-1,3.1-1.5C240.8,163.3,243.1,160.7,244.1,158.4z M238.3,134.3c0,2,0,4,0.2,6c-0.9-0.9-1.8-1.9-2.7-2.8
			C236.7,136.7,237.5,135.7,238.3,134.3z M222.4,88.7c1.8,0,7.3,7,9.8,20.4c2.6,13.4,0.1,21.9-1.5,22.6c-1.8,0-7.3-7-9.8-20.4
			C218.3,98,220.8,89.4,222.4,88.7z M225.9,138.5c2.3,2.2,4.5,4.4,6.7,6.7c-3.9-0.7-8.4-0.9-13.3-0.6
			C223.3,142.8,225.2,140.5,225.9,138.5z M196.3,139.2c-13.5-1.5-21-6.4-21.1-8.1c0.5-1.4,6.1-3.8,15.6-3.8c2.1,0,4.4,0.1,6.9,0.4
			c13.5,1.5,21,6.4,21.1,8.1C218.2,137.5,209.9,140.7,196.3,139.2z M216.4,164.1c-13.5,2-21.9-0.8-22.5-2.4c0.1-1.8,7.3-7,20.8-9
			c3.3-0.5,6.3-0.7,9-0.7c8.1,0,13,1.9,13.5,3.1C237.1,156.9,229.9,162.1,216.4,164.1L216.4,164.1z M228.6,176
			c5.4-1.4,10-1.9,13.7-1.9c5.3,0,8.5,1.1,9,2c0,1.2-2.9,4.2-8.8,7.1h-30.2C215.4,180.9,220.9,178,228.6,176L228.6,176z
			 M339.2,349.7c-1,23.4-20.2,41.7-43.6,41.7h-83c-23.4,0-42.6-18.3-43.6-41.7l-6.5-144.6c-0.1-2.4,0.8-4.7,2.4-6.5
			c1.7-1.8,3.9-2.7,6.4-2.7h38.8c2.3,0.5,4.9,0.8,7.6,0.8c1.3,0,2.7-0.1,4.1-0.2c-5.4,3.5-6.3,7.2-6,9.8c0.8,7.5,11.4,10.5,23,10.5
			c2.6,0,5.3-0.2,7.9-0.4c7.3-0.8,14-2.7,19.1-5.2c3.2-1.6,5.3-3.3,6.6-4.9c4.5,10.6,8.4,21.8,11.6,33.7h8c-1.5-5.8-3.2-11.5-5-16.9
			c2,0,4.4-0.5,7.4-1.8c5.2-2.1,11.1-6,16.5-10.9c4.7-4.3,9.1-9.5,11.8-14.4h14.3c2.4,0,4.7,1,6.4,2.7s2.5,4,2.4,6.5L339.2,349.7z"
			/>
		<path class="st9" d="M301.6,375.3h-95.1c-12,0-21.8-8.3-22.4-18.8L178.6,251c-0.2-3.4,1.1-6.7,3.5-9.2c2.8-3,7-4.7,11.4-4.7h121.1
			c4.4,0,8.5,1.7,11.4,4.7c2.4,2.6,3.7,5.9,3.5,9.2L324,356.4C323.5,367,313.6,375.3,301.6,375.3L301.6,375.3z M193.5,244.7
			c-2.3,0-4.4,0.8-5.8,2.3c-0.7,0.7-1.5,2-1.4,3.6l5.5,105.4c0.3,6.5,6.8,11.6,14.8,11.6h95.1c7.9,0,14.4-5.1,14.8-11.6l5.5-105.4
			c0.1-1.6-0.7-2.9-1.4-3.6c-1.4-1.5-3.5-2.3-5.8-2.3H193.5z"/>
		<path class="st9" d="M222.8,313.7c-6.6,0-12.7-4.3-14.7-10.9l-5.6-18.6c-2.5-8.1,2.1-16.7,10.3-19.2l17.9-5.4
			c3.9-1.2,8.1-0.8,11.7,1.2c3.6,1.9,6.3,5.2,7.5,9.1l5.6,18.6c2.5,8.1-2.1,16.7-10.3,19.2l-17.9,5.4
			C225.8,313.5,224.3,313.7,222.8,313.7L222.8,313.7z M235.1,266.5c-0.8,0-1.5,0.1-2.3,0.3l-17.9,5.4c-4.1,1.2-6.4,5.6-5.2,9.7
			l5.6,18.6c1.2,4.1,5.6,6.4,9.7,5.2l17.9-5.4c4.1-1.2,6.4-5.6,5.2-9.7l-5.6-18.6c-0.6-2-1.9-3.6-3.8-4.6
			C237.6,266.8,236.3,266.5,235.1,266.5L235.1,266.5z"/>
		<path class="st9" d="M272.8,337.8c-2.1,0-3.8-1.7-3.8-3.8v-9.7c0-2.1,1.7-3.8,3.8-3.8c2.1,0,3.8,1.7,3.8,3.8v9.7
			C276.6,336.1,274.9,337.8,272.8,337.8z"/>
		<path class="st9" d="M294,325.8c-2.1,0-3.8-1.7-3.8-3.8v-9.7c0-2.1,1.7-3.8,3.8-3.8s3.8,1.7,3.8,3.8v9.7
			C297.9,324,296.2,325.8,294,325.8z"/>
	</g>
</g>
</svg>
