<?xml version="1.0" encoding="utf-8"?>
<!-- Generator: Adobe Illustrator 23.0.1, SVG Export Plug-In . SVG Version: 6.00 Build 0)  -->
<svg version="1.1" id="Capa_1" xmlns="http://www.w3.org/2000/svg" xmlns:xlink="http://www.w3.org/1999/xlink" x="0px" y="0px"
	 viewBox="0 0 512 512" style="enable-background:new 0 0 512 512;" xml:space="preserve">
<style type="text/css">
	.st0{fill:#FFFFFF;}
	.st1{fill:#E1BDFC;}
	.st2{fill:#C49A8B;}
	.st3{fill:#F4DAB5;}
	.st4{fill:#FAF1A9;}
	.st5{fill:#F6E06E;}
	.st6{fill:#3C122C;}
	.st7{fill:none;stroke:#ACC0CC;stroke-miterlimit:10;}
</style>
<g>
	<g>
		<path class="st0" d="M380.1,241.6c0-91.6-219-91.6-219,0c0,0.3,0,0.6,0,0.8c-17.6,0.2-32.8,5.5-36.7,15.8
			c-9.2,24.5,8.9,52.1,36.4,60.3c11,3.3,22,3,31.9,0.1c8,8.1,17.2,14.9,27.3,20.2c-4.4,2.5-6.9,5.6-6.9,9.4
			c0,12.2,25.7,26.7,57.3,26.7s57.3-14.5,57.3-26.7c0-3.8-2.5-6.9-6.9-9.4C356.2,320.5,380.1,283.9,380.1,241.6z M164.9,300.8
			c-15.3-4.5-25.4-19.3-20.5-32.3c1.9-5.1,9.5-7.8,18.4-8.1c2.6,15.1,8.3,29.1,16.4,41.4C174.6,302.5,169.7,302.2,164.9,300.8z"/>
		<path class="st1" d="M264.9,173c47.1,1.4,95.7,20.9,95.7,58.4c0,51.4-47.1,93.1-101.3,93.1c-52.2,0-94.8-38.6-98-87.4
			c-0.1,1.5-0.2,3-0.2,4.6c0,60.5,49,109.5,109.5,109.5s109.5-49,109.5-109.5C380.1,194.2,321.5,171.3,264.9,173L264.9,173z"/>
		<path class="st2" d="M360.7,232.7c0,22.9-40.3,39.3-90.1,39.3s-90.1-16.4-90.1-39.3c0-22.9,40.3-43.5,90.1-43.5
			C320.4,189.2,360.7,209.9,360.7,232.7z"/>
		<path class="st3" d="M314.2,230.1c-9.6-4.1-25.1-4.1-34.6,0l-8.9,3.8l-8.9-3.8c-9.6-4.1-25.1-4.1-34.6,0c-9.6,4.1-9.6,10.6,0,14.7
			l8.9,3.8l24.4,10.3c6.3,2.7,14.3,2.7,20.5,0l24.4-10.3l8.9-3.8C323.7,240.7,323.7,234.1,314.2,230.1L314.2,230.1z"/>
		<path class="st3" d="M293.1,202.3c-4.9-2.9-12.9-2.9-17.8,0l-4.6,2.7l-4.6-2.7c-4.9-2.9-12.9-2.9-17.8,0s-4.9,7.5,0,10.4l4.6,2.7
			l12.6,7.3c3.2,1.9,7.4,1.9,10.6,0l12.6-7.3l4.6-2.7C298,209.8,298,205.2,293.1,202.3z"/>
		<path class="st4" d="M127.3,157.5l4.8,13.5c0.2,0.6,0.6,1,1.1,1.3l12,5.4c1.7,0.8,1.7,3.5,0,4.2l-12,5.4c-0.5,0.2-0.9,0.7-1.1,1.3
			l-4.8,13.5c-0.7,1.9-3.1,1.9-3.8,0l-4.8-13.5c-0.2-0.6-0.6-1-1.1-1.3l-12-5.4c-1.7-0.8-1.7-3.5,0-4.2l12-5.4
			c0.5-0.2,0.9-0.7,1.1-1.3l4.8-13.5C124.2,155.6,126.6,155.6,127.3,157.5z"/>
		<ellipse class="st5" cx="163" cy="126.8" rx="10.5" ry="10.5"/>
		<path class="st4" d="M367.3,120.4l3.6,10c0.2,0.4,0.5,0.8,0.8,0.9l8.9,4c1.3,0.6,1.3,2.6,0,3.1l-8.9,4c-0.4,0.2-0.7,0.5-0.8,0.9
			l-3.6,10c-0.5,1.4-2.3,1.4-2.8,0l-3.6-10c-0.2-0.4-0.5-0.8-0.8-0.9l-8.9-4c-1.3-0.6-1.3-2.6,0-3.1l8.9-4c0.4-0.2,0.7-0.5,0.8-0.9
			l3.6-10C365.1,119,366.8,119,367.3,120.4z"/>
	</g>
	<g>
		<path class="st6" d="M386,241.6c0-23.5-12.9-43.1-37.2-56.7C328,173.4,300.3,167,270.6,167s-57.4,6.4-78.1,17.9
			c-22.7,12.7-35.4,30.5-37,51.9c-6.8,0.5-13.3,1.8-18.8,3.8c-9,3.4-15.1,8.7-17.6,15.5c-4.4,11.8-3.6,24.9,2.4,37
			c7.2,14.6,21.4,26.2,37.8,31.1c5.9,1.8,11.9,2.6,17.8,2.6c4.8,0,9.6-0.6,14.1-1.7c5.8,5.5,12.2,10.4,19,14.7
			c-1.7,2.4-2.7,5.2-2.7,8.4c0,8.4,7.3,16.8,20,23.1c12.2,6,27.5,9.4,43.1,9.4s30.9-3.3,43.1-9.4c12.7-6.3,20-14.7,20-23.1
			c0-3.2-1-6-2.7-8.4C364,319.4,386,283,386,241.6L386,241.6z M170.2,298.3c-1.5-0.2-2.9-0.5-4.4-0.9c-7.6-2.3-14-7.4-17.2-13.9
			c-1.6-3.3-3.1-8.3-1-13.8c0.8-2,3.3-3.3,5.2-4.1c1.4-0.5,3-0.9,4.7-1.2C160,276.5,164.3,287.9,170.2,298.3z M162.6,313
			c-13.4-4-24.9-13.3-30.7-25c-4.5-9.1-5.2-18.9-1.9-27.6c1.7-4.4,6.8-7.1,10.8-8.6c4.3-1.6,9.4-2.6,14.8-3.1c0.2,3,0.5,5.9,0.9,8.9
			c-2.2,0.4-4.2,0.9-6,1.6c-4.7,1.8-7.9,4.6-9.3,8.2c-2.3,6.2-1.9,13.1,1.3,19.4c4,8.1,12.1,14.7,21.5,17.5c3.4,1,6.9,1.5,10.4,1.5
			c0.2,0,0.3,0,0.5,0c2.1,3.2,4.4,6.3,6.9,9.2C175.5,315.4,169,314.9,162.6,313L162.6,313z M322.1,348.2c0,2.9-4.2,8-13.5,12.6
			c-10.5,5.2-24.3,8.2-37.9,8.2c-13.7,0-27.5-3-37.9-8.2c-9.3-4.6-13.5-9.8-13.5-12.6c0-0.8,0.5-1.7,1.5-2.6
			c15.1,7.3,32.1,11.4,50,11.4c17.9,0,34.9-4.1,50-11.4C321.6,346.4,322.1,347.3,322.1,348.2L322.1,348.2z M270.6,345.2
			c-57.1,0-103.6-46.5-103.6-103.6c0-24,17-38.5,31.2-46.4c19-10.6,44.7-16.4,72.4-16.4c27.7,0,53.4,5.8,72.4,16.4
			c14.2,7.9,31.2,22.4,31.2,46.4C374.3,298.8,327.8,345.2,270.6,345.2L270.6,345.2z"/>
		<path class="st6" d="M270.6,334.3c-1.9,0-3.5-1.5-3.5-3.5c0-1.9,1.5-3.5,3.5-3.6c13.8-0.1,27.6-3.7,39-10c1.7-0.9,3.8-0.3,4.8,1.4
			s0.3,3.8-1.4,4.8C300.7,330.2,285.6,334.1,270.6,334.3C270.7,334.3,270.6,334.3,270.6,334.3L270.6,334.3z"/>
		<path class="st6" d="M327.7,312.1c-1,0-1.9-0.4-2.6-1.1c-1.3-1.4-1.2-3.7,0.2-5c2.5-2.3,4.8-4.7,7-7.3c1.3-1.5,3.5-1.7,5-0.4
			c1.5,1.3,1.7,3.5,0.4,5c-2.4,2.8-4.9,5.4-7.6,7.9C329.4,311.8,328.5,312.1,327.7,312.1L327.7,312.1z"/>
		<path class="st6" d="M270.6,275.5c-24.8,0-47.9-4-65.1-11.3c-18.4-7.8-28.5-19-28.5-31.4c0-12.6,10.1-24.5,28.3-33.5
			c17.7-8.7,40.9-13.6,65.2-13.6s47.5,4.8,65.2,13.6c18.3,9,28.3,20.9,28.3,33.5c0,12.4-10.1,23.6-28.5,31.4
			C318.6,271.5,295.5,275.5,270.6,275.5L270.6,275.5z M270.6,192.7c-51,0-86.5,21.1-86.5,40c0,9.4,8.6,18.3,24.2,25
			c16.3,6.9,38.4,10.8,62.3,10.8s46-3.8,62.3-10.8c15.6-6.7,24.2-15.5,24.2-25C357.2,213.8,321.6,192.7,270.6,192.7L270.6,192.7z"/>
		<path class="st6" d="M215.4,155.1c-1,0-2-0.3-2.9-0.8c-2.8-1.6-3.8-5.2-2.1-8c0-0.1,5.1-8.9,5.1-17.3c0-3.5-0.9-5-2.1-7.2
			c-1.7-2.9-3.7-6.4-3.7-13.1c0-11.6,6.4-22.7,6.6-23.2c1.6-2.8,5.2-3.8,8-2.1c2.8,1.6,3.8,5.2,2.1,8c-0.1,0.1-5.1,9-5.1,17.3
			c0,3.5,0.9,5,2.1,7.2c1.7,2.9,3.7,6.4,3.7,13.1c0,11.6-6.4,22.7-6.6,23.2C219.4,154,217.4,155.1,215.4,155.1z"/>
		<path class="st6" d="M309.1,155.1c-1,0-2-0.3-2.9-0.8c-2.8-1.6-3.8-5.2-2.1-8c0-0.1,5.1-8.9,5.1-17.3c0-3.5-0.9-5-2.1-7.2
			c-1.7-2.9-3.7-6.4-3.7-13.1c0-11.6,6.4-22.7,6.6-23.2c1.6-2.8,5.2-3.8,8-2.1c2.8,1.6,3.8,5.2,2.1,8c-0.1,0.1-5.1,9-5.1,17.3
			c0,3.5,0.9,5,2.1,7.2c1.7,2.9,3.7,6.4,3.7,13.1c0,11.6-6.4,22.7-6.6,23.2C313.1,154,311.1,155.1,309.1,155.1z"/>
		<path class="st6" d="M262.2,155.1c-1,0-2-0.3-2.9-0.8c-2.8-1.6-3.8-5.2-2.1-8c0-0.1,5.1-8.9,5.1-17.3c0-3.5-0.9-5-2.1-7.2
			c-1.7-2.9-3.7-6.4-3.7-13.1c0-11.6,6.4-22.7,6.6-23.2c1.6-2.8,5.2-3.8,8-2.1c2.8,1.6,3.8,5.2,2.1,8c-0.1,0.1-5.1,9-5.1,17.3
			c0,3.5,0.9,5,2.1,7.2c1.7,2.9,3.7,6.4,3.7,13.1c0,11.6-6.4,22.7-6.6,23.2C266.2,154,264.3,155.1,262.2,155.1z"/>
	</g>
</g>
<rect class="st7" width="511.9" height="511.9"/>
</svg>
