<?xml version="1.0" encoding="utf-8"?>
<!-- Generator: Adobe Illustrator 23.0.1, SVG Export Plug-In . SVG Version: 6.00 Build 0)  -->
<svg version="1.1" id="Capa_1" xmlns="http://www.w3.org/2000/svg" xmlns:xlink="http://www.w3.org/1999/xlink" x="0px" y="0px"
	 viewBox="0 0 512 512" style="enable-background:new 0 0 512 512;" xml:space="preserve">
<style type="text/css">
	.st0{fill:none;stroke:#ACC0CC;stroke-miterlimit:10;}
	.st1{fill:#C1E5EF;}
	.st2{fill:#A6AAED;}
	.st3{fill:#FAF1A9;}
	.st4{fill:#DFB5A7;}
	.st5{fill:#FFFFFF;}
	.st6{fill:#E1BDFC;}
	.st7{fill:#A1E8C3;}
	.st8{fill:#85ADC2;}
	.st9{fill:#F6E06E;}
	.st10{fill:#3C122C;}
</style>
<rect class="st0" width="511.9" height="511.9"/>
<g>
	<g>
		<path class="st1" d="M338.2,359.7H168.9c-6.5,0-11.7,5.2-11.7,11.7v0.1c0,6.5,5.2,11.7,11.7,11.7h169.3c6.5,0,11.7-5.2,11.7-11.7
			v-0.1C349.9,364.9,344.7,359.7,338.2,359.7z"/>
		<path class="st1" d="M174.2,320.6c0.3,0,0.5,0,0.8,0c9.5,21.9,31.3,37.3,56.7,37.3h43.8c34.1,0,61.8-27.7,61.8-61.8v-90.7
			c0-8.2-6.7-14.9-14.9-14.9H184.7c-8.2,0-14.9,6.7-14.9,14.9v8.3H164c-26.2,0-47.6,21.3-47.6,47.6v11.9c0,26.2,21.3,47.6,47.6,47.6
			H174.2z M138.6,273.1v-11.9c0-14,11.4-25.4,25.4-25.4h5.8v60.3c0,0.8,0,1.6,0.1,2.4h-5.9C150,298.5,138.6,287.1,138.6,273.1z"/>
		<path class="st2" d="M322.3,190.5h-37.8c8.2,0,14.9,6.7,14.9,14.9V258c0,34.2-27.8,62-62,62h-5.6c-34.2,0-62-27.8-62-62v37.8
			c0,34.2,27.8,62,62,62h43.4c34.2,0,62-27.8,62-62v-90.5C337.3,197.1,330.6,190.5,322.3,190.5L322.3,190.5z"/>
		<path class="st3" d="M263.9,338.7h-20.7c-29.7,0-53.8-24.1-53.8-53.8v-62.6c0-4,3.2-7.2,7.2-7.2h113.9c4,0,7.2,3.2,7.2,7.2v62.6
			C317.8,314.6,293.6,338.7,263.9,338.7L263.9,338.7z"/>
		<path class="st4" d="M310.5,215.1h-11.1V258c0,34.2-27.8,62-62,62h-5.6c-14,0-27-4.7-37.4-12.6c8.6,18.5,27.4,31.3,49.1,31.3h20
			c29.9,0,54.2-24.3,54.2-54.2v-62.2C317.8,218.4,314.5,215.1,310.5,215.1L310.5,215.1z"/>
		<path class="st5" d="M321.2,318.7h-41.1c-6.6,0-12-5.7-12-12.8v-40c0-3.3,1.2-6.4,3.3-8.8l20.3-22.9c4.7-5.3,12.6-5.3,17.4-0.1
			l20.8,23c2.2,2.4,3.4,5.6,3.4,8.9v39.9C333.3,313,327.9,318.7,321.2,318.7L321.2,318.7z"/>
		<path class="st6" d="M329.9,257.1l-20.8-23c-3.8-4.3-9.8-5-14.4-2.4c0.6,0.4,1.1,0.9,1.6,1.5l14.3,18.1c1.5,1.9,2.3,4.4,2.3,7
			v31.5c0,5.6-3.7,10.1-8.3,10.1h-28.3c-4.6,0-8.3-4.5-8.3-10.1v16c0,7.1,5.4,12.8,12,12.8h41.1c6.6,0,12-5.7,12-12.8V266
			C333.3,262.7,332.1,259.5,329.9,257.1L329.9,257.1z"/>
		<path class="st7" d="M320,308.1h-38c-1.8,0-3.3-1.5-3.3-3.3v-24.4c0-1.8,1.5-3.3,3.3-3.3h38c1.8,0,3.3,1.5,3.3,3.3v24.4
			C323.2,306.7,321.8,308.1,320,308.1z"/>
		<path class="st8" d="M320,277.3h-7.1v12.6c0,5.6-3.7,10.1-8.3,10.1h-25.9v4.9c0,1.8,1.5,3.3,3.3,3.3h38c1.8,0,3.3-1.5,3.3-3.3
			v-24.3C323.2,278.7,321.8,277.3,320,277.3L320,277.3z"/>
		<path class="st3" d="M355.9,116.4l5,14.2c0.2,0.6,0.6,1.1,1.2,1.3l12.6,5.7c1.8,0.8,1.8,3.6,0,4.4l-12.6,5.7
			c-0.5,0.2-1,0.7-1.2,1.3l-5,14.2c-0.7,2-3.2,2-3.9,0l-5-14.2c-0.2-0.6-0.6-1.1-1.2-1.3l-12.6-5.7c-1.8-0.8-1.8-3.6,0-4.4l12.6-5.7
			c0.5-0.2,1-0.7,1.2-1.3l5-14.2C352.7,114.4,355.2,114.4,355.9,116.4z"/>
		<path class="st9" d="M163.1,139.3c0,2.6-2.1,4.7-4.7,4.7s-4.7-2.1-4.7-4.7c0-2.6,2.1-4.7,4.7-4.7S163.1,136.7,163.1,139.3z"/>
		<path class="st9" d="M387.2,186.2c0,2.6-2.1,4.7-4.7,4.7c-2.6,0-4.7-2.1-4.7-4.7c0-2.6,2.1-4.7,4.7-4.7
			C385.1,181.5,387.2,183.6,387.2,186.2z"/>
		<path class="st3" d="M120.6,152.2l3.7,10.5c0.2,0.4,0.5,0.8,0.9,1l9.3,4.2c1.3,0.6,1.3,2.7,0,3.3l-9.3,4.2c-0.4,0.2-0.7,0.5-0.9,1
			l-3.7,10.5c-0.5,1.5-2.4,1.5-2.9,0l-3.7-10.5c-0.2-0.5-0.5-0.8-0.9-1l-9.3-4.2c-1.3-0.6-1.3-2.7,0-3.3l9.3-4.2
			c0.4-0.2,0.7-0.5,0.9-1l3.7-10.5C118.2,150.7,120.1,150.7,120.6,152.2z"/>
	</g>
	<g>
		<path class="st5" d="M207,288.9c-3.4,0-6.1-2.7-6.1-6.1V274c0-3.4,2.7-6.1,6.1-6.1c3.4,0,6.1,2.7,6.1,6.1v8.7
			C213.2,286.1,210.4,288.9,207,288.9z"/>
		<path class="st5" d="M207,262.5c-3.4,0-6.1-2.7-6.1-6.1v-3.7c0-3.4,2.7-6.1,6.1-6.1c3.4,0,6.1,2.7,6.1,6.1v3.7
			C213.2,259.8,210.4,262.5,207,262.5z"/>
		<g>
			<path class="st10" d="M210.4,149.6c-1.1,0-2.2-0.3-3.2-0.9c-2.9-1.8-3.8-5.6-2-8.4c0-0.1,5.2-8.6,5.2-16.5c0-3.2-0.8-4.5-2.1-6.7
				c-1.7-2.7-4-6.4-4-13.1c0-11.5,6.8-22.5,7.1-23c1.8-2.9,5.6-3.8,8.4-2c2.9,1.8,3.7,5.5,2,8.4c-0.1,0.1-5.2,8.6-5.2,16.6
				c0,3.2,0.8,4.5,2.1,6.7c1.7,2.7,4,6.4,4,13.1c0,11.5-6.8,22.5-7.1,23C214.4,148.6,212.4,149.6,210.4,149.6z"/>
			<path class="st10" d="M284,149.6c-1.1,0-2.2-0.3-3.2-0.9c-2.9-1.8-3.8-5.6-2-8.4c0-0.1,5.2-8.6,5.2-16.5c0-3.2-0.8-4.5-2.1-6.7
				c-1.7-2.7-4-6.4-4-13.1c0-11.5,6.8-22.5,7.1-23c1.8-2.9,5.6-3.8,8.4-2c2.9,1.8,3.8,5.5,2,8.4c-0.1,0.2-5.2,8.6-5.2,16.6
				c0,3.2,0.8,4.5,2.1,6.7c1.7,2.7,4,6.4,4,13.1c0,11.5-6.8,22.5-7.1,23C288.1,148.6,286.1,149.6,284,149.6L284,149.6z"/>
			<path class="st10" d="M247.2,149.6c-1.1,0-2.2-0.3-3.2-0.9c-2.9-1.8-3.8-5.6-2-8.4c0-0.1,5.2-8.6,5.2-16.5c0-3.2-0.8-4.5-2.1-6.7
				c-1.7-2.7-4-6.4-4-13.1c0-11.5,6.8-22.5,7.1-23c1.8-2.9,5.6-3.8,8.4-2c2.9,1.8,3.8,5.5,2,8.4c-0.1,0.2-5.2,8.7-5.2,16.6
				c0,3.2,0.8,4.5,2.1,6.7c1.7,2.7,4,6.4,4,13.1c0,11.5-6.8,22.5-7.1,23C251.3,148.6,249.3,149.6,247.2,149.6L247.2,149.6z"/>
			<path class="st10" d="M338.2,353.6h-26.6c19.1-12,31.8-33.3,31.8-57.5v-90.7c0-11.6-9.4-21-21-21h-19.6c-3.1-9.9-12.3-17-23.1-17
				c-10.9,0-20.1,7.2-23.1,17h-71.8c-11.6,0-21,9.4-21,21v2.2c-29.5,0.2-53.4,24.2-53.4,53.7v11.9c0,29.6,24.1,53.7,53.7,53.7h7
				c5.6,11,14.1,20.3,24.4,26.8h-26.6c-9.8,0-17.8,8-17.8,17.8v0.1c0,9.8,8,17.8,17.8,17.8h169.3c9.8,0,17.8-8,17.8-17.8v-0.1
				C356.1,361.5,348.1,353.6,338.2,353.6L338.2,353.6z M164,314.5c-22.8,0-41.4-18.6-41.4-41.4v-11.9c0-22.7,18.4-41.3,41.1-41.4
				v9.9c-17.2,0.2-31.2,14.2-31.2,31.5v11.9c0,17.4,14.1,31.5,31.5,31.5h0.2c0.4,3.4,1.1,6.7,2,9.9L164,314.5L164,314.5z
				 M163.7,241.9v50.5c-10.5-0.2-19-8.8-19-19.3v-11.9C144.8,250.6,153.2,242,163.7,241.9z M303.9,196.6h18.5c4.8,0,8.8,3.9,8.8,8.8
				V253l-9.7-10.8v-19.9c0-6-4.9-10.9-10.9-10.9h-6.5L303.9,196.6L303.9,196.6z M303.9,218.8h6.5c2,0,3.6,1.6,3.6,3.6v11.8l-2.3-2.5
				c-2.1-2.4-4.9-4-7.9-4.7V218.8z M306.4,236.6l20.8,23c1.6,1.7,2.4,4,2.4,6.4v40.4c0,5-3.7,9.1-8.3,9.1h-41.1
				c-4.6,0-8.3-4.1-8.3-9.1v-40.5c0-2.4,0.8-4.6,2.3-6.3l20.3-22.9c0.6-0.7,1.4-1.3,2.1-1.7v15.2c-3,1.4-5.1,4.5-5.1,8
				c0,4.9,4,8.8,8.8,8.8c4.9,0,8.8-4,8.8-8.8c0-3.6-2.2-6.7-5.2-8.1v-15.3C304.8,235.2,305.7,235.8,306.4,236.6L306.4,236.6z
				 M296.6,227.1c-2.9,0.8-5.6,2.4-7.6,4.7l-20.3,22.9c-2.7,3.1-4.2,7-4.2,11.2v40.5c0,9.1,7,16.4,15.7,16.4h18.7
				c-8.3,7.6-19.4,12.3-31.6,12.3h-27.3c-25.8,0-46.9-21-46.9-46.9v-65.9c0-2,1.6-3.6,3.6-3.6h99.9L296.6,227.1z M279.7,174.7
				c6.7,0,12.6,4,15.3,9.7h-30.6C267.1,178.6,273,174.7,279.7,174.7L279.7,174.7z M176,296.1v-90.7c0-4.8,3.9-8.8,8.8-8.8h73.9
				c0.1,0,0.3,0,0.4,0c0.1,0,0.3,0,0.4,0h37.1v14.9h-99.9c-6,0-10.9,4.9-10.9,10.9v65.9c0,29.9,24.3,54.2,54.2,54.2h27.3
				c16.8,0,31.7-7.6,41.7-19.6h12.3c1.1,0,2.2-0.1,3.3-0.4c-9.4,17.4-27.9,29.3-49,29.3h-43.8C201,351.8,176,326.8,176,296.1
				L176,296.1z M343.8,371.4c0,3.1-2.5,5.6-5.6,5.6H168.9c-3.1,0-5.6-2.5-5.6-5.6v-0.1c0-3.1,2.5-5.6,5.6-5.6h169.3
				C341.3,365.8,343.8,368.3,343.8,371.4L343.8,371.4L343.8,371.4z"/>
			<path class="st10" d="M320,311.8h-38c-3.8,0-6.9-3.1-6.9-6.9v-24.3c0-3.8,3.1-6.9,6.9-6.9h38c3.8,0,6.9,3.1,6.9,6.9v24.3
				C326.9,308.7,323.8,311.8,320,311.8z M282.4,304.5h37.2v-23.5h-37.2V304.5z"/>
		</g>
	</g>
</g>
</svg>
