<?xml version="1.0" encoding="utf-8"?>
<!-- Generator: Adobe Illustrator 23.0.1, SVG Export Plug-In . SVG Version: 6.00 Build 0)  -->
<svg version="1.1" id="Capa_1" xmlns="http://www.w3.org/2000/svg" xmlns:xlink="http://www.w3.org/1999/xlink" x="0px" y="0px"
	 viewBox="0 0 512 512" style="enable-background:new 0 0 512 512;" xml:space="preserve">
<style type="text/css">
	.st0{fill:none;stroke:#ACC0CC;stroke-miterlimit:10;}
	.st1{fill:#FFFFFF;}
	.st2{fill:#E1BDFC;}
	.st3{fill:#E8A284;}
	.st4{fill:#D57B84;}
	.st5{fill:#C49A8B;}
	.st6{fill:#A1E8C3;}
	.st7{fill:#85ADC2;}
	.st8{fill:#EFC5B4;}
	.st9{fill:#3C122C;}
</style>
<rect class="st0" width="511.9" height="511.9"/>
<g>
	<g>
		<path class="st1" d="M234,387.7h-87.6c-8.1,0-14.8-8.7-15-19.6l-5.2-215.6h127L249,367.9C248.8,378.9,242.1,387.7,234,387.7z"/>
		<path class="st2" d="M217.7,152.4l-3.3,180c-0.2,9.2-5.5,16.5-12,16.5h-60c-5.8,0-10.7-5.8-11.8-13.5l0.8,32.6
			c0.3,10.9,6.9,19.6,15,19.6H234c8.1,0,14.8-8.8,15-19.8l4.2-215.5L217.7,152.4L217.7,152.4z"/>
		<path class="st3" d="M301.4,247.4c-28.9,0-53.7,17.5-64.4,42.4l1.9-103.1h-97.2l3.9,164.6c0.3,11.2,6.9,20.1,15,20.1h60.2
			c8.1,0,14.8-9,15-20.3l0.2-8.3c10.2,26.2,35.6,44.8,65.4,44.8c38.7,0,70.1-31.4,70.1-70.1S340.1,247.4,301.4,247.4L301.4,247.4z"
			/>
		<path class="st4" d="M301.4,247.4c-19.4,0-36.9,7.9-49.6,20.5c9.9-9.9,23.5-16,38.6-16c30.2,0,54.6,24.5,54.6,54.6
			c0,30.2-24.5,54.6-54.6,54.6c-27.2,0-49.8-19.9-53.9-46l0.4-19.3c2.1-10.4,7-19.7,14-27c-5.8,6-10.6,13.1-13.9,20.9l1.9-103.1
			h-21.8l-2.7,145.7c-0.2,9.2-5.5,16.5-12,16.5h-56.8l0.1,2.4c0.3,11.2,6.9,20.1,15,20.1h60.2c8.1,0,14.8-9,15-20.3l0.2-8.3
			c10.2,26.2,35.6,44.8,65.4,44.8c38.7,0,70.1-31.4,70.1-70.1S340.1,247.4,301.4,247.4L301.4,247.4z"/>
		<path class="st5" d="M289.6,246.5c-0.8-8.4-2.8-18.4-3.1-22.3c-0.4-3.6,2-6.8,5.5-6.8c3.6,0,5.6,3,6.5,6.5
			c1.3,5.7,2.4,14.1,2.6,21.7"/>
		<path class="st6" d="M375,271.2c-3.9-8-10.8-19.1-21.4-25.9c5.4-5,9.3-11,11.9-15.7c2.3-4.2,0.2-9.8-4.2-11.5
			c-8.3-3.2-21.8-6.7-34.1-2.2c-16.3,6-25.1,24.2-27.6,29.9c-1,0.5-1.6,0.8-1.6,0.8s9.1,29.2,31.4,38.6c14.1,5.9,30.2,2.6,40.1-0.7
			C374.7,282.8,377.5,276.3,375,271.2z"/>
		<path class="st7" d="M339.5,240.1c5.3,1.6,10.6,3.2,15.5,5.5c5.5-5.2,9.5-11.3,12.2-16.1c2.4-4.3,0.2-10.1-4.4-11.9
			c-8.6-3.3-19-2.4-12.6-0.6c3.4,0.9,4.5,6.9,2.5,9.8C350,230.7,345.5,236.1,339.5,240.1z"/>
		<path class="st7" d="M376.8,272.1c-4.7-9.7-14.4-17.2-10.3-10.6c2.2,3.5-1.7,9.5-5.7,10.4c-7.6,1.7-19.9,3.1-31.3-1.7
			c-13.6-5.7-23.5-16.5-27.5-21.4c-1.2,0.5-2.3,1.1-3.5,1.6c3.3,8.4,13,28.5,31.1,36.2c14.6,6.1,31.1,2.7,41.4-0.7
			C376.4,284,379.3,277.2,376.8,272.1z"/>
		<ellipse class="st3" cx="381.1" cy="167.2" rx="10" ry="10"/>
		<path class="st3" d="M334.1,172.6c0,2.4-1.9,4.3-4.3,4.3s-4.3-1.9-4.3-4.3c0-2.4,1.9-4.3,4.3-4.3S334.1,170.2,334.1,172.6z"/>
		<path class="st8" d="M293.7,119.9l3.4,9.6c0.1,0.4,0.4,0.7,0.8,0.9l8.5,3.8c1.2,0.5,1.2,2.5,0,3l-8.5,3.8
			c-0.4,0.2-0.7,0.5-0.8,0.9l-3.4,9.6c-0.5,1.4-2.2,1.4-2.7,0l-3.4-9.6c-0.1-0.4-0.4-0.7-0.8-0.9l-8.5-3.8c-1.2-0.5-1.2-2.5,0-3
			l8.5-3.8c0.4-0.2,0.7-0.5,0.8-0.9l3.4-9.6C291.5,118.6,293.2,118.6,293.7,119.9z"/>
	</g>
	<g>
		<g>
			<path class="st1" d="M160.6,280.7c-3,0-5.4-2.4-5.4-5.3l-0.4-36.6c0-3,2.4-5.4,5.3-5.5c0,0,0,0,0.1,0c3,0,5.4,2.4,5.4,5.3
				l0.4,36.6C166,278.2,163.6,280.7,160.6,280.7C160.6,280.7,160.6,280.7,160.6,280.7z"/>
			<path class="st1" d="M159.9,220.7c-3,0-5.4-2.4-5.4-5.3l-0.1-9.4c0-3,2.4-5.4,5.3-5.5c0,0,0,0,0.1,0c3,0,5.4,2.4,5.4,5.3l0.1,9.4
				C165.3,218.3,162.9,220.7,159.9,220.7C159.9,220.7,159.9,220.7,159.9,220.7z"/>
			<path class="st1" d="M278.3,274c-2,0-4-1.1-4.9-3.1c-1.3-2.7-0.1-5.9,2.6-7.2c0.7-0.3,1.5-0.7,2.2-1c2.7-1.2,5.9,0.1,7.1,2.9
				c1.2,2.7-0.1,5.9-2.9,7.1c-0.6,0.3-1.2,0.5-1.8,0.8C279.9,273.8,279.1,274,278.3,274L278.3,274z"/>
			<path class="st1" d="M250.7,304c-0.6,0-1.3-0.1-1.9-0.4c-2.8-1.1-4.2-4.2-3.1-7c2.9-7.5,7.3-14.5,12.8-20.3
				c1.7-1.8,3.5-3.4,5.3-5c2.3-1.9,5.7-1.6,7.6,0.7c1.9,2.3,1.6,5.7-0.7,7.6c-1.5,1.3-3,2.6-4.4,4.1c-4.6,4.8-8.2,10.6-10.6,16.7
				C254.9,302.7,252.9,304,250.7,304L250.7,304z"/>
		</g>
		<path class="st9" d="M380.1,281.2c1.7-4,1.6-8.5-0.2-12.3c0,0,0,0,0,0c-3.8-7.7-9.6-17.1-18.2-24.3c3.5-4.1,6.4-8.5,8.5-12.4
			c1.8-3.4,2.1-7.4,0.7-11.1c-1.4-3.7-4.2-6.6-7.8-8c-9.8-3.8-24.3-7.2-37.9-2.2c-10,3.7-17.4,11.2-22.5,18.3
			c-0.3-2.2-0.7-4.3-1.2-6.1c-1.4-5.6-5-8.9-9.6-8.9c-2.5,0-4.8,1-6.4,2.8c-1.8,2-2.6,4.7-2.4,7.5c0.2,1.6,0.6,4.1,1.1,7.2
			c0.6,3.6,1.2,7.8,1.7,11.9c-10.8,2.3-20.8,6.8-29.4,13.2l2-104.2c0-1.4-0.5-2.9-1.5-3.9c-1-1-2.4-1.6-3.9-1.6h-127
			c-1.5,0-2.8,0.6-3.9,1.6c-1,1-1.6,2.4-1.5,3.9l5.2,215.6c0.3,14,9.3,24.9,20.4,24.9H234c9,0,16.6-7.2,19.3-17.3
			c13.1,10.8,29.8,17.3,48.1,17.3c41.7,0,75.5-33.9,75.5-75.5c0-9.9-1.9-19.3-5.4-28C375.4,288.1,378.5,285.1,380.1,281.2
			L380.1,281.2z M329,221c11-4,23.7-0.4,30.3,2.1h0c0.6,0.2,1.2,0.9,1.5,1.7c0.3,0.8,0.3,1.6-0.1,2.2c-1.7,3.1-4.4,7.5-8.1,11.5
			c-1-0.5-2-1-3-1.4c-6.2-2.6-12.8-3.6-19-3.7c3.3-1.1,6.9-1.8,10.8-2.2c1.8-0.2,3.1-1.7,2.9-3.5c-0.2-1.8-1.7-3.1-3.5-2.9
			c-12.6,1.1-22.2,6.1-28.9,11.1c-0.3,0.1-0.5,0.1-0.8,0.2C315.3,230.1,321.2,223.8,329,221z M290.4,221.3c0.4-0.4,0.9-0.7,1.6-0.7
			c2,0,3,2.5,3.3,4c1,4.4,1.9,10.4,2.3,16.2c-1.2,0.5-1.9,0.9-2.1,1c-0.3,0.1-0.5,0.3-0.8,0.5c-0.8,0.1-1.5,0.1-2.3,0.2
			c-0.5-4.1-1.2-8.3-1.7-11.8c-0.5-2.9-0.9-5.4-1-6.8C289.6,222.8,289.8,221.9,290.4,221.3L290.4,221.3z M243.6,367.8
			c-0.2,7.8-4.6,14.5-9.6,14.5h-87.6c-5,0-9.4-6.6-9.6-14.4l-5.1-210.1h116l-2.1,108.9c-2,2.2-3.9,4.6-5.7,7.1l1.6-87.6
			c0-0.9-0.3-1.7-0.9-2.3c-0.6-0.6-1.4-1-2.3-1h-97.2c-0.9,0-1.7,0.4-2.3,1c-0.6,0.6-0.9,1.5-0.9,2.3l3.9,164.6
			c0.3,13.1,8.3,23.3,18.3,23.3h60.2c8.1,0,14.9-6.8,17.3-16.3c1.9,3,3.9,5.8,6.2,8.4L243.6,367.8z M233.2,285.1
			c-4.7,9.8-7.3,20.8-7.3,32.4c0,10.6,2.2,20.7,6.2,29.8l-0.1,3.2c-0.2,9.4-5.5,17.1-11.8,17.1h-60.2c-6.3,0-11.6-7.6-11.8-17
			l-3.8-161.3h90.6L233.2,285.1z M301.4,382.3c-35.7,0-64.7-29-64.7-64.7c0-33.4,25.4-61,58-64.4c3.8,9.3,13.9,29.2,32.7,37.1
			c6.4,2.7,13,3.7,19.5,3.7c5,0,9.8-0.6,14.3-1.5c3.3,7.7,5.1,16.2,5.1,25.2C366.1,353.2,337.1,382.3,301.4,382.3L301.4,382.3z
			 M370.2,277c-0.5,1.2-1.4,2-2.4,2.4c-9.8,3.2-24,6-36.3,0.8c-12.5-5.2-20.5-17.8-24.7-26.4c8.8-0.6,25.6,0.3,41.1,12.4
			c0.6,0.5,1.3,0.7,2,0.7c1,0,1.9-0.4,2.6-1.2c1.1-1.4,0.8-3.4-0.6-4.5c-14.5-11.3-29.8-13.9-40.2-14c9.1-2.7,22.4-4.9,33.8-0.1
			c12.3,5.2,20.2,17.3,24.8,26.6C370.7,274.6,370.6,275.8,370.2,277L370.2,277z"/>
		<path class="st9" d="M259.4,352.6c-1.8,0-3.2-1.5-3.2-3.2v-3.9c0-1.8,1.5-3.2,3.2-3.2c1.8,0,3.2,1.5,3.2,3.2v3.9
			C262.7,351.1,261.2,352.6,259.4,352.6z"/>
		<path class="st9" d="M248.2,340.4c-1.8,0-3.2-1.5-3.2-3.2v-3.9c0-1.8,1.5-3.2,3.2-3.2c1.8,0,3.2,1.5,3.2,3.2v3.9
			C251.5,338.9,250,340.4,248.2,340.4z"/>
		<path class="st9" d="M258.2,331.6c-1.8,0-3.2-1.5-3.2-3.2v-3.9c0-1.8,1.5-3.2,3.2-3.2c1.8,0,3.2,1.5,3.2,3.2v3.9
			C261.5,330.1,260,331.6,258.2,331.6z"/>
	</g>
</g>
</svg>
