<?xml version="1.0" encoding="utf-8"?>
<!-- Generator: Adobe Illustrator 23.0.1, SVG Export Plug-In . SVG Version: 6.00 Build 0)  -->
<svg version="1.1" id="Capa_1" xmlns="http://www.w3.org/2000/svg" xmlns:xlink="http://www.w3.org/1999/xlink" x="0px" y="0px"
	 viewBox="0 0 512 512" style="enable-background:new 0 0 512 512;" xml:space="preserve">
<style type="text/css">
	.st0{fill:#FFFFFF;}
	.st1{fill:#A07575;}
	.st2{fill:#F4DAB5;}
	.st3{fill:#E1BDFC;}
	.st4{fill:#925873;}
	.st5{fill:#DBA2B3;}
	.st6{fill:#EFC5B4;}
	.st7{fill:#E8A284;}
	.st8{fill:#3C122C;}
</style>
<g>
	<g>
		<path class="st0" d="M342.2,127.6h-17.4c-1.2-13.7-12.7-24.4-26.7-24.4H259c-6.6-7.3-16.2-11.8-26.8-11.8
			c-20,0-36.3,16.2-36.3,36.2h-13.7c-6.2,0-11.1,5.4-10.4,11.6l18.7,240.5c2.5,23.3,22.2,41,45.6,41h52.9
			c23.5,0,43.3-17.8,45.6-41.2l18-240.3C353.2,133,348.4,127.6,342.2,127.6L342.2,127.6z"/>
		<path class="st1" d="M203.1,225h116.8v63.1H203.1L203.1,225z"/>
		<path class="st2" d="M314.2,363.3c0,19.1-9.9,33.6-29,33.6h-44.1c-21,0-31.1-13.1-31.1-34.1l-7-73.8h116.8L314.2,363.3z"/>
		<path class="st3" d="M304.1,160l-3.7,61.3h25.5l4-60.2c0.5-5.2-3.1-9.7-7.7-9.7h-24.3C301.6,151.4,304.5,155.4,304.1,160z"/>
		<path class="st4" d="M321.7,285.2l3.8-57.1H300l-3.4,57.1H321.7z"/>
		<path class="st5" d="M296.2,291.9l-2.9,47.6c-1.4,17.5-13.3,30.8-27.4,30.8h-31.7c-11.7,0-21.9-9.2-25.8-22.4l1.1,16.3
			c1.9,19.7,16.5,34.6,33.8,34.6h39.3c17.5,0,32.1-15,33.9-34.8l4.7-72.1H296.2z"/>
		<path class="st6" d="M123.1,184.5l5.6,15.7c0.2,0.7,0.7,1.2,1.3,1.5l14,6.3c2,0.9,2,4,0,4.9l-14,6.3c-0.6,0.3-1.1,0.8-1.3,1.5
			l-5.6,15.7c-0.8,2.2-3.6,2.2-4.4,0l-5.6-15.7c-0.2-0.7-0.7-1.2-1.3-1.5l-14-6.3c-2-0.9-2-4,0-4.9l14-6.3c0.6-0.3,1.1-0.8,1.3-1.5
			l5.6-15.7C119.6,182.3,122.3,182.3,123.1,184.5z"/>
		<circle class="st7" cx="403.4" cy="123.6" r="12.2"/>
		<ellipse class="st7" cx="128.7" cy="145.3" rx="5.3" ry="5.3"/>
		<path class="st6" d="M398.4,183l4.1,11.7c0.2,0.5,0.5,0.9,1,1.1l10.4,4.7c1.5,0.7,1.5,3,0,3.7l-10.4,4.7c-0.4,0.2-0.8,0.6-1,1.1
			l-4.1,11.7c-0.6,1.6-2.7,1.6-3.2,0l-4.1-11.7c-0.2-0.5-0.5-0.9-1-1.1l-10.4-4.7c-1.5-0.7-1.5-3,0-3.7l10.4-4.7
			c0.4-0.2,0.8-0.6,1-1.1l4.1-11.7C395.7,181.3,397.8,181.3,398.4,183z"/>
	</g>
	<g>
		<path class="st8" d="M355,126.5c-3.3-3.6-7.9-5.7-12.8-5.7h-11.9c-4-14.1-16.9-24.4-32.3-24.4h-36.3c-8-7.5-18.6-11.8-29.6-11.8
			c-21.4,0-39.2,15.7-42.5,36.2h-7.6c-4.9,0-9.5,2.1-12.8,5.7c-3.2,3.6-4.8,8.4-4.3,13.2l18.7,240.4c0,0.1,0,0.1,0,0.2
			c2.9,26.8,25.4,47,52.3,47h52.9c27.1,0,49.6-20.3,52.4-47.3c0-0.1,0-0.1,0-0.2l18-240.2C359.8,134.9,358.2,130.1,355,126.5
			L355,126.5z M232.2,98.1c8.3,0,16.2,3.5,21.8,9.6c1.3,1.4,3.1,2.2,5,2.2h39.1c7.8,0,14.5,4.5,17.9,10.9H203.4
			C206.5,107.8,218.2,98.1,232.2,98.1L232.2,98.1z M345.9,138.4c0,0.1,0,0.1,0,0.2l-18,240.2c-2.1,20-18.8,35.1-38.9,35.1H236
			c-20,0-36.7-15-38.9-34.8l-18.7-240.4c0-0.1,0-0.1,0-0.2c-0.2-1.4,0.5-2.4,0.9-2.9c0.4-0.5,1.3-1.2,2.8-1.2h160.1
			c1.4,0,2.4,0.8,2.8,1.2C345.4,136,346,137,345.9,138.4L345.9,138.4z"/>
		<path class="st8" d="M296.4,367.3c-0.4,0-0.8-0.1-1.2-0.2c-2.1-0.6-3.4-2.9-2.7-5c0.9-2.9,1.4-5.9,1.6-9.1
			c0.2-2.2,2.1-3.9,4.3-3.8c2.2,0.2,3.9,2.1,3.8,4.3c-0.3,3.7-0.9,7.4-1.9,10.8C299.7,366.1,298.1,367.3,296.4,367.3z"/>
		<path class="st8" d="M269.2,387.7c-2.3,0-4.6-0.1-6.7-0.2c-1.9-0.1-3.7-0.2-5.4-0.2c-2.2,0-4-1.8-4-4.1c0-2.2,1.8-4,4-4h0
			c1.8,0,3.7,0.1,5.7,0.2c9.1,0.4,18.5,0.8,23.7-5.4c1.4-1.7,4-1.9,5.7-0.5c1.7,1.4,1.9,4,0.5,5.7
			C286.6,386.4,277.7,387.7,269.2,387.7L269.2,387.7z"/>
		<path class="st8" d="M327.9,151.9c-2.2-2.4-5.1-3.7-8.1-3.7H204.5c-3.1,0-6,1.3-8.1,3.7c-2.5,2.7-3.7,6.5-3.4,10.4l13.5,202
			c0,0,0,0.1,0,0.1c2,21.7,17.9,38.1,36.9,38.1h38.1c19.1,0,35-16.5,36.9-38.3c0,0,0-0.1,0-0.1l13-201.8
			C331.6,158.4,330.4,154.6,327.9,151.9L327.9,151.9z M281.4,394.4h-38.1c-14.8,0-27.2-13.2-28.8-30.7l-4.7-71.2h105.1l-4.6,71
			C308.7,381.1,296.3,394.4,281.4,394.4L281.4,394.4z M315.3,284.4H209.2l-3.7-55.8h113.4L315.3,284.4z M323.2,161.6
			C323.2,161.6,323.2,161.7,323.2,161.6l-3.8,58.9H205l-3.9-58.7c0,0,0-0.1,0-0.1c-0.1-1.6,0.3-3.2,1.3-4.3c0.4-0.5,1.2-1.1,2.2-1.1
			h115.3c1,0,1.7,0.6,2.2,1.1C322.9,158.4,323.4,160,323.2,161.6L323.2,161.6z"/>
		<path class="st8" d="M229.6,272.1c-2.2,0-4-1.8-4-4v-7.5c0-2.2,1.8-4,4-4c2.2,0,4,1.8,4,4v7.5
			C233.7,270.3,231.9,272.1,229.6,272.1z"/>
		<path class="st8" d="M249.5,257.3c-2.2,0-4-1.8-4-4v-7.5c0-2.2,1.8-4,4-4c2.2,0,4,1.8,4,4v7.5
			C253.5,255.5,251.7,257.3,249.5,257.3z"/>
		<path class="st8" d="M285.2,264.8c-2.2,0-4-1.8-4-4v-7.5c0-2.2,1.8-4,4-4c2.2,0,4,1.8,4,4v7.5C289.2,263,287.4,264.8,285.2,264.8z
			"/>
	</g>
</g>
</svg>
