<?xml version="1.0" encoding="utf-8"?>
<!-- Generator: Adobe Illustrator 23.0.1, SVG Export Plug-In . SVG Version: 6.00 Build 0)  -->
<svg version="1.1" id="Capa_1" xmlns="http://www.w3.org/2000/svg" xmlns:xlink="http://www.w3.org/1999/xlink" x="0px" y="0px"
	 viewBox="0 0 512 512" style="enable-background:new 0 0 512 512;" xml:space="preserve">
<style type="text/css">
	.st0{fill:#A07575;}
	.st1{fill:#FFFFFF;}
	.st2{fill:#C49A8B;}
	.st3{fill:#E1BDFC;}
	.st4{fill:#D789B9;}
	.st5{fill:#F6E06E;}
	.st6{fill:#E8C2D8;}
	.st7{fill:#B2748A;}
	.st8{fill:#EFC5B4;}
	.st9{fill:#E8A284;}
	.st10{fill:#3C122C;}
</style>
<g>
	<g>
		<path class="st0" d="M260.8,247.9c4.1,1.6,8.9,0.4,11.8-3.2l81-101.6c3.5-4.4,2.8-10.9-1.6-14.4c-4.4-3.5-10.9-2.8-14.4,1.6
			l-81,101.6c-3.5,4.4-2.8,10.9,1.6,14.4C258.9,247,259.8,247.5,260.8,247.9L260.8,247.9z"/>
		<path class="st0" d="M235.2,246.3c-4.3,0.8-8.8-1.3-10.9-5.4l-59.7-115.4c-2.6-5-0.6-11.2,4.4-13.8c5-2.6,11.2-0.6,13.8,4.4
			l59.7,115.4c2.6,5,0.6,11.2-4.4,13.8C237.1,245.8,236.2,246.1,235.2,246.3L235.2,246.3z"/>
		<path class="st1" d="M307.1,176.3c0.9-2.7,1.4-5.5,1.4-8.5c0-13.6-10.4-24.7-23.7-25.8c0-0.5,0-1.1,0-1.6
			c0-16.2-24.5-29.3-29.3-29.3s-29.3,13.1-29.3,29.3c0,0.7,0,1.3,0.1,2c-12,2.3-21.1,12.8-21.1,25.4c0,3,0.5,5.8,1.4,8.5
			c-7.1,4.6-11.8,12.6-11.8,21.7c0,14.3,11.6,25.9,25.9,25.9H293c14.3,0,25.9-11.6,25.9-25.9C318.9,188.9,314.2,180.9,307.1,176.3
			L307.1,176.3z"/>
		<path class="st2" d="M335.9,266c-0.5,0-0.9,0-1.4,0c-1.2-6.6-5-12.6-10.5-17.1c0-0.3,0-0.7,0-1v-32.5c0-8.4-8.2-15.2-18.3-15.2
			h-99.2c-10.1,0-18.3,6.8-18.3,15.2v32.5c0,0.3,0,0.7,0,1c-6.8,5.5-10.9,13.2-10.9,21.7v99.9c0,16.8,16.4,30.4,36.7,30.4h84.2
			c20.3,0,36.7-13.6,36.7-30.4v-5.8c0.3,0,0.6,0,1,0c27.6,0,50-26.6,50-59.4C385.9,272.5,363.5,266,335.9,266z M334.9,346.5v-62.3
			c17.2,0.1,31,4.3,31,24.8C365.9,329.5,352.1,346.1,334.9,346.5z"/>
		<path class="st3" d="M318.7,200.3c0.1-0.9,0.1-1.7,0.1-2.6c-0.1-9-4.7-16.9-11.8-21.4c0.9-2.7,1.4-5.5,1.4-8.5
			c0-13.6-10.4-24.7-23.7-25.8c0-0.5,0-1.1,0-1.6c0-16.2-24.5-29.3-29.3-29.3c-3.7,0-19.4,8-26.2,19.1c5.2-4.2,11-6.8,12.8-6.8
			c3.6,0,22.4,10,22.4,22.4c0,0.4,0,0.8,0,1.3c10.2,0.8,18.2,9.4,18.2,19.8c0,2.3-0.4,4.5-1.1,6.5c0,0,0.1,0,0.1,0.1
			c3,2,1.5,6.6-2.1,6.6h-77.6c-4.5,4.7-7.2,11-7.1,18c0,0.7,0,1.5,0.1,2.2L318.7,200.3L318.7,200.3z"/>
		<path class="st4" d="M239.7,185.5c-3,2.1-7.2,1.4-9.3-1.7l-8.8-12.6c-2.1-3-1.4-7.2,1.7-9.3s7.2-1.4,9.3,1.7l8.8,12.6
			C243.5,179.2,242.8,183.4,239.7,185.5z"/>
		<path class="st5" d="M254.5,159.7c-3.2-1.6-4.5-5.4-3-8.6l6.5-13.3c1.6-3.2,5.4-4.5,8.6-3c3.2,1.6,4.5,5.4,3,8.6l-6.5,13.3
			C261.6,159.9,257.7,161.2,254.5,159.7L254.5,159.7z"/>
		<path class="st6" d="M270.6,177.2c0.5-3.3,3.5-5.7,6.9-5.2l13.8,1.9c3.3,0.5,5.7,3.5,5.2,6.9c-0.5,3.3-3.5,5.7-6.9,5.2l-13.8-1.9
			C272.5,183.6,270.2,180.5,270.6,177.2L270.6,177.2z"/>
		<path class="st7" d="M324,248.9c0-0.3,0-0.7,0-1v-32.5c0-8.4-8.2-15.2-18.3-15.2h-23.3c8.3,0,15,5.8,15,13v10.5h-82.9
			c-6.3,0-11.4,5.1-11.4,11.4c0,6.3,5.1,11.4,11.4,11.4h82.9c0,1,0,2.1,0,3.1c0,4,1.2,7.9,3.7,11c3.3,4.2,5.2,9.2,5.2,14.7v70.6
			c0,14.4-13.5,26-30.1,26h-68.9c-16.6,0-30.1-11.7-30.1-26v24.5c0,16.8,16.4,30.4,36.7,30.4h84.2c20.3,0,36.7-13.6,36.7-30.4v-99.9
			C334.9,262.1,330.8,254.4,324,248.9L324,248.9z"/>
		<path class="st8" d="M139.6,158.9l4.9,13.7c0.2,0.6,0.6,1.1,1.1,1.3l12.2,5.5c1.7,0.8,1.7,3.5,0,4.3l-12.2,5.5
			c-0.5,0.2-0.9,0.7-1.1,1.3l-4.9,13.7c-0.7,1.9-3.1,1.9-3.8,0l-4.9-13.7c-0.2-0.6-0.6-1.1-1.1-1.3l-12.2-5.5
			c-1.7-0.8-1.7-3.5,0-4.3l12.2-5.5c0.5-0.2,0.9-0.7,1.1-1.3l4.9-13.7C136.5,157,138.9,157,139.6,158.9z"/>
		<ellipse class="st9" cx="385.2" cy="165.5" rx="10.7" ry="10.7"/>
		<path class="st9" d="M159.3,230.5c0,2.5-2.1,4.6-4.6,4.6c-2.5,0-4.6-2.1-4.6-4.6c0-2.5,2.1-4.6,4.6-4.6
			C157.3,225.9,159.3,227.9,159.3,230.5z"/>
		<path class="st8" d="M371.8,208.6l3.6,10.2c0.2,0.4,0.5,0.8,0.8,1l9,4.1c1.3,0.6,1.3,2.6,0,3.2l-9,4.1c-0.4,0.2-0.7,0.5-0.8,1
			l-3.6,10.2c-0.5,1.4-2.3,1.4-2.8,0l-3.6-10.2c-0.2-0.4-0.5-0.8-0.8-1l-9-4.1c-1.3-0.6-1.3-2.6,0-3.2l9-4.1c0.4-0.2,0.7-0.5,0.8-1
			l3.6-10.2C369.5,207.2,371.3,207.2,371.8,208.6L371.8,208.6z"/>
	</g>
	<g>
		<g>
			<path class="st10" d="M391.8,305.3c0-17.2-5.9-29.6-17.4-36.9c-8.4-5.3-19.6-7.9-35.3-8.2c-1.8-5.1-4.9-9.8-9.1-13.8v-30.9
				c0-5-2.1-9.7-5.5-13.3c0.2-1.3,0.3-2.7,0.3-4.1c0-3.7-0.7-7.4-1.9-10.8l33.4-41.9c4.7-6,3.8-14.7-2.2-19.4
				c-2.9-2.3-6.5-3.3-10.2-2.9c-3.7,0.4-6.9,2.2-9.2,5.1l-22.4,28.1c-3.7-9.4-11.8-16.7-21.7-19.3c-1.4-9.5-8.7-17.1-14.9-22
				c-6.1-4.8-15.1-9.8-20.1-9.8s-14,5.1-20.1,9.8c-6.4,5-13.8,12.9-15,22.8c-6.7,2.4-12.2,6.9-16,12.6l-18.6-36
				c-1.7-3.3-4.6-5.7-8.1-6.8c-3.5-1.1-7.3-0.8-10.5,0.9c-6.8,3.5-9.4,11.8-5.9,18.6l30.2,58.4c-1.6,3.9-2.5,8.1-2.5,12.4
				c0,0.9,0,1.8,0.1,2.6c-4.3,3.8-7,9-7,14.8v30.9c-7.1,6.7-10.9,15.2-10.9,24.3v99.9c0,20,19.1,36.3,42.7,36.3h84.2
				c23.5,0,42.7-16.3,42.7-36.3v-0.1C369.4,367.4,391.8,339.4,391.8,305.3L391.8,305.3z M340.2,132.6c1.1-1.4,2.7-2.3,4.5-2.5
				c0.3,0,0.5,0,0.8,0c1.5,0,3,0.5,4.2,1.5c2.9,2.3,3.4,6.5,1.1,9.4l-31.3,39.3c-1.5-2.3-3.4-4.4-5.5-6.2c0.4-2,0.6-4.1,0.6-6.2
				c0-0.9,0-1.8-0.1-2.8L340.2,132.6z M167.8,123.9c-1.7-3.3-0.4-7.3,2.9-9c1-0.5,2-0.8,3.1-0.8c0.7,0,1.4,0.1,2,0.3
				c1.7,0.5,3.1,1.7,3.9,3.3l21.1,40.9c-0.9,2.9-1.4,6-1.4,9.2c0,2.1,0.2,4.2,0.6,6.2c-1.5,1.3-2.9,2.8-4.1,4.4L167.8,123.9z
				 M210,181.3c2.3-1.5,3.3-4.3,2.4-6.9c-0.7-2.1-1.1-4.3-1.1-6.6c0-9.6,6.8-17.8,16.2-19.6c2.9-0.6,5-3.2,4.8-6.2
				c0-0.6-0.1-1.1-0.1-1.6c0-11.3,18.8-22.2,23.3-23.3c4.5,1.1,23.3,12,23.3,23.3c0,0.4,0,0.8,0,1.3c-0.2,3.2,2.2,6,5.4,6.2
				c10.3,0.8,18.3,9.6,18.3,19.9c0,2.2-0.4,4.4-1.1,6.6c-0.9,2.6,0.1,5.4,2.4,6.9c4.9,3.2,8.1,8.3,8.9,13.9c-2.2-0.6-4.6-0.9-7-0.9
				h-99.2c-1.8,0-3.6,0.2-5.3,0.5C202.1,189.3,205.3,184.4,210,181.3z M329,370.5c0,13.5-13.8,24.5-30.8,24.5H214
				c-17,0-30.8-11-30.8-24.5v-99.9c0-6.4,3.1-12.4,8.8-17.1c1.5-1.2,2.3-3.1,2.2-5.1c0-0.2,0-0.4,0-0.5v-32.5c0-5,5.7-9.2,12.4-9.2
				h99.2c6.7,0,12.4,4.2,12.4,9.2v32.5c0,0.1,0,0.3,0,0.6c-0.2,1.9,0.7,3.8,2.2,5.1c5.7,4.6,8.8,10.7,8.8,17.1V370.5z M340.9,288
				c15.4,1.3,21.5,7.5,21.5,21c0,16-9.2,29.5-21.5,33V288z M340.9,358.4v-9.1c16.3-3.6,28.6-20.3,28.6-40.4
				c0-21.9-14.9-27.1-28.6-28.2V272c28,1,39.1,10.6,39.1,33.3C380,332.7,362.8,355.4,340.9,358.4z"/>
			<path class="st10" d="M235.9,190.3c-3.2,0-6.4-1.5-8.4-4.4l-8.8-12.6c-3.2-4.6-2.1-11,2.5-14.3c2.2-1.6,5-2.2,7.7-1.7
				c2.7,0.5,5,2,6.6,4.2l8.8,12.6c1.6,2.2,2.2,5,1.7,7.7c-0.5,2.7-2,5-4.2,6.6C240,189.7,237.9,190.3,235.9,190.3z M227.1,164.3
				c-0.6,0-1.3,0.2-1.8,0.6c-1.4,1-1.8,3-0.8,4.4l8.8,12.6c1,1.4,3,1.8,4.4,0.8c0.7-0.5,1.2-1.2,1.3-2c0.1-0.8,0-1.7-0.5-2.4
				l-8.8-12.6c-0.5-0.7-1.2-1.2-2-1.3C227.5,164.3,227.3,164.3,227.1,164.3L227.1,164.3z"/>
			<path class="st10" d="M257.3,163.9c-1.5,0-3-0.3-4.4-1c-2.4-1.2-4.2-3.2-5.1-5.7c-0.9-2.5-0.7-5.2,0.5-7.6l6.5-13.3
				c2.4-5,8.4-7,13.4-4.6c5,2.4,7,8.4,4.6,13.4l-6.5,13.3C264.6,161.8,261,163.9,257.3,163.9L257.3,163.9z M256,156.5
				c1.4,0.7,3.2,0.1,3.9-1.3l6.5-13.3c0.7-1.4,0.1-3.2-1.3-3.9c-1.4-0.7-3.2-0.1-3.9,1.3l-6.5,13.3c-0.3,0.7-0.4,1.5-0.1,2.2
				C254.8,155.6,255.3,156.1,256,156.5L256,156.5z"/>
			<path class="st10" d="M290.5,189.5c-0.4,0-0.9,0-1.3-0.1l-13.8-1.9c-5.3-0.7-9-5.6-8.3-10.8v0c0.7-5.3,5.6-9,10.8-8.3l13.8,1.9
				c2.6,0.3,4.8,1.7,6.4,3.7c1.6,2,2.2,4.6,1.9,7.1c-0.3,2.6-1.7,4.8-3.7,6.4C294.6,188.9,292.6,189.5,290.5,189.5z M274.2,177.7
				c-0.2,1.4,0.8,2.7,2.2,2.9l13.8,1.9c0.7,0.1,1.3-0.1,1.9-0.5c0.5-0.4,0.9-1,1-1.7c0.1-0.7-0.1-1.3-0.5-1.9c-0.4-0.5-1-0.9-1.7-1
				l-13.8-1.9C275.6,175.3,274.4,176.3,274.2,177.7L274.2,177.7z"/>
			<path class="st10" d="M294.3,228.7H218c-2,0-3.6-1.6-3.6-3.6s1.6-3.6,3.6-3.6h76.3c2,0,3.6,1.6,3.6,3.6
				C297.8,227.1,296.3,228.7,294.3,228.7z"/>
			<path class="st10" d="M294.3,248.9H218c-2,0-3.6-1.6-3.6-3.6s1.6-3.6,3.6-3.6h76.3c2,0,3.6,1.6,3.6,3.6
				C297.8,247.4,296.3,248.9,294.3,248.9z"/>
		</g>
		<path class="st1" d="M202.1,323c-3.3,0-5.9-2.7-5.9-5.9v-5c0-3.3,2.7-5.9,5.9-5.9s5.9,2.7,5.9,5.9v5
			C208,320.4,205.4,323,202.1,323z"/>
		<path class="st1" d="M201.8,295.9c-3.2,0-5.9-2.6-5.9-5.8c-0.1-4.6,0.1-10.6,2.5-16.1c6.9-15.9,24.7-14.8,36.4-14l0.3,0
			c3.3,0.2,5.7,3,5.5,6.3c-0.2,3.3-3,5.7-6.3,5.5l-0.3,0c-12-0.8-21.5-0.7-24.8,6.9c-1.5,3.4-1.6,7.6-1.6,11.2c0.1,3.3-2.5,6-5.8,6
			C201.8,295.9,201.8,295.9,201.8,295.9L201.8,295.9z"/>
	</g>
</g>
</svg>
