<?xml version="1.0" encoding="utf-8"?>
<!-- Generator: Adobe Illustrator 23.0.1, SVG Export Plug-In . SVG Version: 6.00 Build 0)  -->
<svg version="1.1" id="Capa_1" xmlns="http://www.w3.org/2000/svg" xmlns:xlink="http://www.w3.org/1999/xlink" x="0px" y="0px"
	 viewBox="0 0 512 512" style="enable-background:new 0 0 512 512;" xml:space="preserve">
<style type="text/css">
	.st0{fill:none;stroke:#ACC0CC;stroke-miterlimit:10;}
	.st1{fill:#A6AAED;}
	.st2{fill:#FFFFFF;}
	.st3{fill:#96B4EB;}
	.st4{fill:#E1BDFC;}
	.st5{fill:#8286EA;}
	.st6{fill:#C1E5EF;}
	.st7{fill:#3C122C;}
</style>
<rect class="st0" width="511.9" height="511.9"/>
<g>
	<g>
		<path class="st1" d="M329.4,164.6l-30.3,51.3v160.2l-13.8,10.4h59.6c7.6,0,13.7-6.1,13.7-13.7V215.9L329.4,164.6z"/>
		<path class="st2" d="M329.3,164.7L329.3,164.7L329.3,164.7v-17.9c0-7.3-5.9-13.2-13.2-13.2H205.8c-7.3,0-13.2,5.9-13.2,13.2v17.8
			h-1.3l-34.5,51.3v156.9c0,7.6,6.1,13.7,13.7,13.7h114.7c7.6,0,13.7-6.1,13.7-13.7V215.9L329.3,164.7z"/>
		<path class="st3" d="M156.5,366.7c0,0,15.3-26.1,41-26.1s40.3,13.3,58.5,13.3s41-30,41-30v-63.3c0,0-22.9,28.4-41,28.4
			c-10.4,0-19.7-5.6-30.6-10.5v9.7c0,3.9-3.2,7.1-7.1,7.1s-7.1-3.2-7.1-7.1v-14.8c-3.8-0.9-7.9-1.6-12.3-1.7v25.3
			c0,3.9-3.2,7.1-7.1,7.1s-7.1-3.2-7.1-7.1v-23.3c-17.9,5.9-28,22.6-28,22.6"/>
		<path class="st4" d="M332.4,147.3c0-7.6-6.1-13.7-13.7-13.7h-35.9c7.6,0,13.7,6.1,13.7,13.7v23.2l-24.9,45.1v127.8
			c0,6.5-5,11.8-11.1,11.8h-92.6c-6.1,0-11.1-5.3-11.1-11.8v29.4c0,7.6,6.1,13.7,13.7,13.7h114.7c7.6,0,13.7-6.1,13.7-13.7V215.9
			l22.4-37.7L332.4,147.3z"/>
		<path class="st5" d="M271.6,283.6v59.8c0,2.1-0.5,4-1.4,5.7c14-8.5,26.8-25.2,26.8-25.2v-63.3C297,260.6,285.1,275.4,271.6,283.6z
			"/>
		<path class="st1" d="M248,191.6c0,8.7-12.2,15.8-27.2,15.8s-27.2-7.1-27.2-15.8l0-15.5l54.4,0.1L248,191.6z"/>
		<ellipse class="st6" cx="220.8" cy="176.1" rx="27.2" ry="15.8"/>
		<path class="st6" d="M376.2,128.3l4.6,13.1c0.2,0.6,0.6,1,1.1,1.2l11.6,5.2c1.6,0.7,1.6,3.4,0,4.1l-11.6,5.2
			c-0.5,0.2-0.9,0.7-1.1,1.2l-4.6,13.1c-0.7,1.8-3,1.8-3.6,0l-4.6-13.1c-0.2-0.6-0.6-1-1.1-1.2l-11.6-5.2c-1.6-0.7-1.6-3.4,0-4.1
			l11.6-5.2c0.5-0.2,0.9-0.7,1.1-1.2l4.6-13.1C373.2,126.5,375.5,126.5,376.2,128.3z"/>
		<ellipse class="st3" cx="156.5" cy="130.2" rx="10.2" ry="10.2"/>
		<path class="st3" d="M392.6,200.1c0,2.4-2,4.4-4.4,4.4c-2.4,0-4.4-2-4.4-4.4c0-2.4,2-4.4,4.4-4.4
			C390.6,195.7,392.6,197.7,392.6,200.1z"/>
		<path class="st6" d="M133.7,163.1l3.4,9.7c0.1,0.4,0.4,0.7,0.8,0.9l8.6,3.9c1.2,0.5,1.2,2.5,0,3l-8.6,3.9
			c-0.4,0.2-0.7,0.5-0.8,0.9l-3.4,9.7c-0.5,1.4-2.2,1.4-2.7,0l-3.4-9.7c-0.1-0.4-0.4-0.7-0.8-0.9l-8.6-3.9c-1.2-0.5-1.2-2.5,0-3
			l8.6-3.9c0.4-0.2,0.7-0.5,0.8-0.9l3.4-9.7C131.5,161.7,133.2,161.7,133.7,163.1z"/>
	</g>
	<g>
		<path class="st7" d="M263.3,329.4c-1.8,0-3.3-1.5-3.3-3.3v-7c0-1.8,1.5-3.3,3.3-3.3c1.8,0,3.3,1.5,3.3,3.3v7
			C266.5,327.9,265.1,329.4,263.3,329.4z"/>
		<path class="st7" d="M276.1,314.5c-1.8,0-3.3-1.5-3.3-3.3v-7c0-1.8,1.5-3.3,3.3-3.3c1.8,0,3.3,1.5,3.3,3.3v7
			C279.4,313,277.9,314.5,276.1,314.5z"/>
		<path class="st7" d="M363.3,213.2l-28.5-50v-16.4c0-10.3-8.4-18.7-18.7-18.7H205.8c-10.3,0-18.7,8.4-18.7,18.7v14.3
			c-0.1,0.1-0.2,0.3-0.3,0.5l-34.5,51.3c-0.6,0.9-0.9,2-0.9,3.1v156.9c0,10.6,8.6,19.2,19.2,19.2h59.6h55.1h59.6
			c10.6,0,19.2-8.6,19.2-19.2V215.9C364,214.9,363.8,214,363.3,213.2L363.3,213.2z M329.3,175.5l21.6,37.9h-44.1L329.3,175.5z
			 M205.8,139h110.3c4.3,0,7.8,3.5,7.8,7.8v12.4h-88.7c-4.3-1.4-9.1-2.2-14.4-2.2c-5.2,0-10.1,0.8-14.4,2.2H198v-12.4
			C198,142.5,201.5,139,205.8,139L205.8,139z M244.7,176.1c0,6.1-9.6,12.6-23.9,12.6c-14.3,0-23.9-6.5-23.9-12.6
			c0-6.1,9.6-12.6,23.9-12.6C235.1,163.5,244.7,170,244.7,176.1z M196.9,188.1c5.5,4.4,14.1,7.1,23.9,7.1c9.8,0,18.4-2.8,23.9-7.2
			l0,3.6v0c0,6.1-9.6,12.6-23.9,12.6c-14.3,0-23.9-6.5-23.9-12.6L196.9,188.1z M190.3,175.9c0,0.1,0,0.1,0,0.2c0,0,0,0,0,0.1l0,15.5
			c0,10.7,13.4,19.1,30.5,19.1c17.1,0,30.5-8.4,30.5-19.1l0-15.4c0-0.2,0-0.3,0-0.5c0-2-0.6-3.9-1.5-5.7h70l-25.5,43
			c-0.1,0.1-0.1,0.2-0.2,0.3h-129L190.3,175.9z M162.3,293.9c3.5-4.4,10-11.3,19-15.4v18.5c0,5.7,4.7,10.4,10.4,10.4
			c5.7,0,10.4-4.7,10.4-10.4v-21.8c1.9,0.2,3.8,0.5,5.7,0.9v12.2c0,5.7,4.7,10.4,10.4,10.4c5.7,0,10.4-4.7,10.4-10.4v-4.6
			c0.6,0.3,1.1,0.5,1.7,0.8c8.6,4,16.6,7.8,25.7,7.8c13.7,0,29.2-14,37.5-22.8v53.6c-6.9,8.7-24.6,27.6-37.5,27.6
			c-7.7,0-14.8-2.6-22.9-5.6c-9.8-3.6-21-7.7-35.5-7.7c-15.8,0-27.8,8.9-35.2,16.7L162.3,293.9z M293.5,259.7
			c-6.9,8.2-24.6,26.1-37.5,26.1c-7.6,0-14.7-3.3-22.9-7.2c-2.1-1-4.2-2-6.4-3c-1-0.4-2.2-0.4-3.1,0.2c-0.9,0.6-1.5,1.6-1.5,2.7v9.7
			c0,2.1-1.7,3.8-3.8,3.8c-2.1,0-3.8-1.7-3.8-3.8v-14.8c0-1.5-1-2.8-2.5-3.2c-4.4-1.1-8.6-1.7-13-1.8c-0.9,0-1.7,0.3-2.4,0.9
			c-0.6,0.6-1,1.5-1,2.4v25.3c0,2.1-1.7,3.8-3.8,3.8c-2.1,0-3.8-1.7-3.8-3.8v-23.3c0-1.1-0.5-2-1.4-2.7c-0.9-0.6-1.9-0.8-2.9-0.5
			c-9.1,3-16.2,8.5-21.3,13.5V220h131.2L293.5,259.7L293.5,259.7z M230.1,381h-59.6c-4.5,0-8.2-3.7-8.2-8.2v-8.6
			c5.4-7,17.8-20.2,35.2-20.2c13.4,0,23.5,3.7,33.3,7.3c8.4,3.1,16.3,6,25.2,6c13.7,0,29.2-14.8,37.5-24v39.6c0,4.5-3.7,8.2-8.2,8.2
			H230.1z M344.8,381h-42.3c1.2-2.5,1.9-5.3,1.9-8.2V220h48.6v152.8C353.1,377.3,349.4,381,344.8,381z"/>
		<path class="st7" d="M190.1,259.7c-1.7,0-3.1-1.1-3.6-2.6c0,0,0-0.1,0-0.1l-3.9-13.2l-2.4,13c-0.3,1.8-2,3-3.8,2.6
			c-1.8-0.3-3-2-2.6-3.8l4.4-24.3c0.3-1.8,1.8-3,3.5-3.1c1.8-0.1,3.3,1,3.9,2.6c0,0,0,0.1,0,0.1l4.5,15.2l4.3-15.2c0,0,0-0.1,0-0.1
			c0.5-1.7,2.1-2.8,3.9-2.6c1.7,0.1,3.2,1.4,3.5,3.1l4.7,24.4c0.3,1.8-0.8,3.5-2.6,3.8c-1.8,0.3-3.5-0.8-3.8-2.6l-2.5-13.1
			l-3.8,13.2c0,0,0,0.1,0,0.1C193.2,258.6,191.8,259.7,190.1,259.7C190.1,259.7,190.1,259.7,190.1,259.7z"/>
		<path class="st7" d="M240,259.7c-2.8,0-2.9,0-3.2-0.1c-1.6-0.3-2.7-1.6-2.7-3.2v-25c0-1.8,1.5-3.3,3.3-3.3c1.8,0,3.3,1.5,3.3,3.3
			v21.7c1.7,0,3.8,0,5.4,0h0c1.8,0,3.3,1.5,3.3,3.3c0,1.8-1.5,3.3-3.3,3.3C243.3,259.7,241.3,259.7,240,259.7L240,259.7z"/>
		<path class="st7" d="M279.8,254l-11-10.6l10.1-9.3c1.3-1.2,1.4-3.3,0.2-4.6c-1.2-1.3-3.3-1.4-4.6-0.2l-7.9,7.3v-5.2
			c0-1.8-1.5-3.3-3.3-3.3c-1.8,0-3.3,1.5-3.3,3.3v25c0,1.8,1.5,3.3,3.3,3.3c1.8,0,3.3-1.5,3.3-3.3v-6.1l8.8,8.5
			c0.6,0.6,1.5,0.9,2.3,0.9c0.9,0,1.7-0.3,2.4-1C281.1,257.4,281.1,255.3,279.8,254z"/>
		<path class="st7" d="M220.3,259.7c-1.8,0-3.3-1.5-3.3-3.3v-25c0-1.8,1.5-3.3,3.3-3.3c1.8,0,3.3,1.5,3.3,3.3v25
			C223.6,258.2,222.1,259.7,220.3,259.7z"/>
	</g>
</g>
</svg>
