<?xml version="1.0" encoding="utf-8"?>
<!-- Generator: Adobe Illustrator 23.0.1, SVG Export Plug-In . SVG Version: 6.00 Build 0)  -->
<svg version="1.1" id="Capa_1" xmlns="http://www.w3.org/2000/svg" xmlns:xlink="http://www.w3.org/1999/xlink" x="0px" y="0px"
	 viewBox="0 0 512 512" style="enable-background:new 0 0 512 512;" xml:space="preserve">
<style type="text/css">
	.st0{fill:none;stroke:#ACC0CC;stroke-miterlimit:10;}
	.st1{fill:#FFFFFF;}
	.st2{fill:#C1E5EF;}
	.st3{fill:#A6AAED;}
	.st4{fill:#E1BDFC;}
	.st5{fill:#CCF3E2;}
	.st6{fill:#B1B6E1;}
	.st7{fill:#A1E8C3;}
	.st8{fill:#F6E06E;}
	.st9{fill:#FAF1A9;}
	.st10{fill:#96B4EB;}
	.st11{fill:#3C122C;}
</style>
<rect class="st0" width="511.9" height="511.9"/>
<g>
	<g>
		<path class="st1" d="M265.1,249.9c4.6-18.1,4.8-37.3,0.8-55.7c-4.8-22-15-54.6-35.2-69.1l0.5-36.9l-42.9-0.6l-0.5,36
			c-21.4,13.4-32.6,46.6-38,69c-5.3,21.9-4.7,45.2,2.4,66.4c0.2,0.7,0.5,1.5,0.8,2.2c2.9,8.1,4.6,18.9,4.4,30.6
			c-0.2,11.8,0.3,23.2-2.7,31.2c-5.6,14.5-8.4,30.4-8.6,46.4c-0.2,15.1,14.2,28.7,22.4,27.6c8.2-1,11.7-8.1,17.8-8
			c6.1,0.1,11.4,7.7,19.4,7.8c8,0.1,14.1-7.9,18.3-7.8c4.2,0.1,9,6.7,17.8,7.8c5,0.6,11.7-3.3,16.6-9.6c1.1,5.7,5.6,9.9,10.9,9.9
			h65.3c6.1,0,11-5.5,11.2-12.4l3.1-134.9L265.1,249.9L265.1,249.9z"/>
		<path class="st2" d="M256.2,285.8c0.1-0.8,0.1-1.5,0.2-2.2h-0.1V249h9.1c4.4-17.8,4.5-36.7,0.6-54.7c-1.8-8.3-4.4-18.2-8-28h-100
			c-3.5,9.2-6.2,18.5-8.1,26.4c-5.3,21.9-4.7,45.2,2.4,66.4c0.2,0.7,0.5,1.5,0.8,2.2c2.9,8.1,4.6,18.9,4.4,30.6s0.3,23.2-2.7,31.2
			c-5.6,14.5-8.4,30.4-8.6,46.4c-0.2,15.1,14.2,28.7,22.4,27.6c8.2-1,11.7-8.1,17.8-8c6.1,0.1,11.4,7.7,19.4,7.8
			c8,0.1,14.1-7.9,18.3-7.8c4.2,0.1,9,6.7,17.8,7.8c5,0.6,11.7-3.3,16.6-9.6c1.1,5.7,5.6,9.9,10.9,9.9h65.3c6.1,0,11-5.5,11.2-12.4
			l2.3-99L256.2,285.8z"/>
		<path class="st3" d="M265.9,194.3c-1.8-8.3-4.4-18.1-8-27.9l-20,0.5c2.4,6.4,4.2,13,5.5,19.5c1.9,9.7,2.6,19.7,2.1,29.6l23-0.2
			C268.3,208.5,267.4,201.3,265.9,194.3L265.9,194.3z"/>
		<path class="st3" d="M255.6,311.2l-18.1,0.2c3.5,10.9,5.2,17.1,5,30c-0.2,13.3-11.7,24.8-18.8,23.9c-7.1-1-11-6.8-14.4-6.9
			c-3.4,0-8.4,7-14.9,6.9c-6.5-0.1-10.8-6.8-15.7-6.9c-5-0.1-7.8,6.2-14.4,7.1c-5.1,0.7-13.3-6.3-16.6-15.6c-1,6.4-1.5,13-1.6,19.5
			c-0.2,15.1,14.2,28.7,22.4,27.6c8.2-1,11.7-8.1,17.8-8c6.1,0.1,11.4,7.7,19.4,7.8c8,0.1,14.1-7.9,18.3-7.8c4.2,0.1,9,6.7,17.8,7.8
			c8.8,1.1,22.9-11.9,23.1-27c0.2-16-2.1-31.9-7.3-46.6C256.3,319.7,255.8,315.6,255.6,311.2L255.6,311.2z"/>
		<path class="st4" d="M230.7,125.2l0.5-36.9L213.9,88v3.1l1.6,0l-0.6,42.5c10.9,8.5,18.2,20.5,23.1,33.2l20-0.5
			C252,150.2,243.3,134.2,230.7,125.2L230.7,125.2z"/>
		<path class="st5" d="M255.9,246.3h9.7c2.1-8.1,2.9-16.7,0.4-30.1L148.4,215c-4.1,40.4,8.3,41,12.4,94.3l93.1,1.2
			c-0.1-11.9,0.8-21.3,2-29L255.9,246.3L255.9,246.3z"/>
		<path class="st6" d="M255.9,290.1v-43.8h10c2.2-10,3.1-20.3,2.7-30.5l-23,0.2c-0.5,9.9-2.3,19.6-5.4,28.9
			c-0.2,0.6-0.4,1.3-0.7,1.9c-2.5,7.1-4.2,24.6-4.4,35c-0.1,10.4-0.9,19.4,1.4,26.6c0.3,1.1,0.7,2.1,1,3.1l18.1-0.2
			c-0.2-5.5,0.1-11.5,0.2-18C255.8,292.1,255.9,291.1,255.9,290.1L255.9,290.1z"/>
		<path class="st7" d="M211.2,266.6c-3.3,4.8-17.5,5.4-30.8-5.1c-13.3-10.5-14.2-31.4-14.2-31.4s20.5-3.8,33.8,6.7
			C213.3,247.3,214.5,261.8,211.2,266.6L211.2,266.6z"/>
		
			<ellipse transform="matrix(0.2985 -0.9544 0.9544 0.2985 -107.3462 393.7448)" class="st8" cx="214.2" cy="269.9" rx="29.2" ry="29.2"/>
		<circle class="st9" cx="214.2" cy="269.8" r="15.5"/>
		<path class="st4" d="M345.6,249.9h-24.5l-0.8,37l24.5-0.4L345.6,249.9z"/>
		<path class="st3" d="M320.3,287l-1.5,75.7c-0.1,5.7-3.8,10.3-8.3,10.3H269c-4,0-7.4-3.6-8.2-8.5l0.5,20.4
			c0.2,6.8,4.8,12.3,10.4,12.3h60.6c5.6,0,10.3-5.5,10.4-12.4l2.1-98.3L320.3,287z"/>
		<path class="st2" d="M311.8,99l5.2,14.7c0.2,0.6,0.7,1.1,1.2,1.4l13,5.9c1.8,0.8,1.8,3.8,0,4.6l-13,5.9c-0.6,0.3-1,0.7-1.2,1.4
			l-5.2,14.7c-0.7,2.1-3.3,2.1-4.1,0l-5.2-14.7c-0.2-0.6-0.7-1.1-1.2-1.4l-13-5.9c-1.8-0.8-1.8-3.8,0-4.6l13-5.9
			c0.6-0.3,1-0.7,1.2-1.4l5.2-14.7C308.5,96.9,311.1,96.9,311.8,99L311.8,99z"/>
		<ellipse class="st10" cx="318.1" cy="196.8" rx="11.4" ry="11.4"/>
		<ellipse class="st10" cx="374.1" cy="141.5" rx="4.9" ry="4.9"/>
		<path class="st2" d="M381.7,168.4l3.9,10.9c0.2,0.5,0.5,0.8,0.9,1l9.7,4.4c1.4,0.6,1.4,2.8,0,3.4l-9.7,4.4c-0.4,0.2-0.7,0.6-0.9,1
			l-3.9,10.9c-0.5,1.5-2.5,1.5-3,0l-3.9-10.9c-0.2-0.5-0.5-0.8-0.9-1l-9.7-4.4c-1.4-0.6-1.4-2.8,0-3.4l9.7-4.4
			c0.4-0.2,0.7-0.6,0.9-1l3.9-10.9C379.2,166.8,381.1,166.8,381.7,168.4z"/>
	</g>
	<g>
		<g>
			<path class="st11" d="M181,203.7c-6.9,0-12.5-5.6-12.5-12.5c0-6.9,5.6-12.5,12.5-12.5c6.9,0,12.5,5.6,12.5,12.5
				C193.5,198.1,187.9,203.7,181,203.7z M181,186.4c-2.7,0-4.9,2.2-4.9,4.9c0,2.7,2.2,4.9,4.9,4.9s4.9-2.2,4.9-4.9
				C185.9,188.6,183.7,186.4,181,186.4z"/>
			<path class="st11" d="M235.5,362.9c-6.9,0-12.5-5.6-12.5-12.5s5.6-12.5,12.5-12.5c6.9,0,12.5,5.6,12.5,12.5
				S242.4,362.9,235.5,362.9z M235.5,345.6c-2.7,0-4.9,2.2-4.9,4.9c0,2.7,2.2,4.9,4.9,4.9s4.9-2.2,4.9-4.9
				C240.4,347.7,238.2,345.6,235.5,345.6z"/>
			
				<ellipse transform="matrix(0.23 -0.9732 0.9732 0.23 -159.3759 459.8637)" class="st11" cx="210.9" cy="330.7" rx="5.7" ry="5.7"/>
			<path class="st11" d="M188.9,346.6c0,2.4-1.9,4.3-4.3,4.3s-4.3-1.9-4.3-4.3c0-2.4,1.9-4.3,4.3-4.3S188.9,344.2,188.9,346.6z"/>
			<circle class="st11" cx="229" cy="201.2" r="4.3"/>
			<path class="st11" d="M214.2,236.8c-2.6,0-5.1,0.3-7.5,0.9c-1.3-1.3-2.7-2.6-4.2-3.9c-14.5-11.5-36-7.6-36.9-7.4
				c-1.9,0.3-3.2,2-3.1,3.9c0,0.9,1.2,22.7,15.7,34.2c1,0.8,2.1,1.6,3.2,2.3c-0.1,1-0.1,2-0.1,3c0,18.2,14.8,33.1,33.1,33.1
				s33.1-14.8,33.1-33.1S232.4,236.8,214.2,236.8L214.2,236.8z M182.8,258.5c-8.7-6.9-11.5-19.1-12.4-25.1c6-0.5,18.6-0.5,27.2,6.3
				c0.4,0.3,0.7,0.6,1,0.9c-2.6,1.4-5.1,3.2-7.2,5.2l-4.8-3.8c-1.6-1.3-4-1-5.4,0.6c-1.3,1.6-1,4,0.6,5.4l4.6,3.7
				c-1.4,2.2-2.6,4.5-3.5,7C183,258.6,182.9,258.6,182.8,258.5z M214.2,295.3c-14,0-25.4-11.4-25.4-25.4c0-14,11.4-25.4,25.4-25.4
				s25.4,11.4,25.4,25.4C239.6,283.8,228.2,295.3,214.2,295.3L214.2,295.3z"/>
			<path class="st11" d="M214.2,289.6c-10.9,0-19.8-8.9-19.8-19.8c0-10.9,8.9-19.8,19.8-19.8c10.9,0,19.8,8.9,19.8,19.8
				C234,280.8,225.1,289.6,214.2,289.6z M214.2,257.6c-6.7,0-12.2,5.5-12.2,12.2c0,6.7,5.5,12.2,12.2,12.2c6.7,0,12.2-5.5,12.2-12.2
				C226.4,263.1,220.9,257.6,214.2,257.6z"/>
			<path class="st11" d="M353.4,245.5c-1.2-1.2-2.8-1.9-4.5-1.9H273c3.1-16.5,2.8-33.7-0.9-50.7c-5.1-23.7-15.3-54.8-35-70.9
				l0.3-24.5c0.1-4.2-1.5-8.1-4.4-11.1c-2.9-3-6.8-4.6-10.9-4.7l-24.5-0.3c-8.6-0.1-15.6,6.8-15.8,15.3l-0.3,23.5
				c-20.8,15.2-32,46.6-37.8,70.9c-5.7,23.7-4.8,47.8,2.5,69.9c0.3,0.8,0.5,1.6,0.8,2.3c2.7,7.7,4.2,17.8,4,28.4c0,1.8,0,3.7,0,5.5
				c0,9.2-0.1,17.9-2.3,23.6c-5.7,14.9-8.8,31.3-9,48.6c-0.2,11.6,6.5,21.7,12.7,27.3c4.9,4.4,10.4,6.9,15.1,6.9
				c0.6,0,1.1,0,1.7-0.1c5.7-0.7,9.8-3.6,12.7-5.7c1.7-1.2,3.3-2.3,4.2-2.3c1.1,0,3.2,1.3,5.1,2.5c3.7,2.3,8.3,5.2,14.4,5.3
				c6.6,0.1,11.8-3.4,15.6-5.9c0.9-0.6,2.1-1.4,2.8-1.8c0.7,0.4,1.8,1.1,2.6,1.6c3.3,2.2,7.9,5.2,14.4,6c4.9,0.6,10.6-1.3,15.8-5.4
				c3.2,3.5,7.6,5.7,12.6,5.7h65.3c9.6,0,17.3-8.2,17.5-18.6l3.1-134.9C355.3,248.4,354.6,246.7,353.4,245.5L353.4,245.5z
				 M191.2,129.1l2.9-1.8l0.4-30.2c0-1.6,1.3-2.8,2.8-2.8h0l24.5,0.3c1,0,1.7,0.5,2,0.9c0.3,0.3,0.8,1,0.8,2l-0.4,31l2.7,1.9
				c10.1,7.2,17.5,19.8,22.8,32.9H166C171.9,149.4,180.1,136,191.2,129.1z M156,194.1c1.6-6.5,3.8-14.8,7-23.3h89.7
				c3.2,9.1,5.5,18,6.9,24.8c1.2,5.4,2,11,2.3,16.5L153.2,211C153.8,205.3,154.7,199.7,156,194.1z M250,387
				c-3.2,2.7-6.1,3.8-7.5,3.6c-3.5-0.4-6.3-2.3-9-4c-2.9-1.9-5.8-3.8-9.5-3.8c-3.7,0-6.9,2-9.9,4.1c-2.8,1.9-5.7,3.8-8.4,3.8
				c-2.5,0-4.9-1.6-7.8-3.3c-3.3-2.1-7-4.4-11.7-4.5c-5.1-0.1-8.8,2.6-11.7,4.7c-2.3,1.7-4.3,3.1-6.9,3.4c-0.8,0.1-3.4-0.7-6.7-3.6
				c-4.2-3.7-8.6-10.3-8.5-17.6c0.2-15.8,3-30.7,8.1-44.2c1.4-3.7,2.2-7.8,2.6-12.2l86.3,1.1c0.1,1.3,0.2,2.6,0.4,3.8l1.9,66.9
				c0,0.1,0,0.1,0,0.2C251.2,385.9,250.6,386.5,250,387L250,387z M254.2,243.6c-1.7,0-3.4,0.7-4.6,1.9c-1.2,1.2-1.8,2.9-1.8,4.6
				l1.4,49.7c-0.1,2.3-0.1,4.7-0.1,6.9l-85.6-1.1c0.1-2.7,0.1-5.5,0.1-8.3c0-1.8,0-3.6,0-5.4c0.2-12.1-1.5-23.7-4.8-32.8
				c-0.2-0.7-0.5-1.4-0.7-2.1c-4.1-12.3-5.9-25.3-5.5-38.5l109.6,1.2c0,8.1-0.7,16.1-2.3,23.9L254.2,243.6L254.2,243.6z
				 M339.5,384.7c-0.1,3.4-2.3,6.2-4.9,6.2h-65.3c-2.6,0-4.8-2.7-4.8-6.1l-2.7-94.3h79.9L339.5,384.7z M341.8,282.9h-80.2l-0.8-26.6
				h81.6L341.8,282.9z"/>
			<path class="st11" d="M286,323.7c-6.9,0-12.5-5.6-12.5-12.5s5.6-12.5,12.5-12.5c6.9,0,12.5,5.6,12.5,12.5
				C298.5,318.1,292.9,323.7,286,323.7z M286,306.3c-2.7,0-4.9,2.2-4.9,4.9c0,2.7,2.2,4.9,4.9,4.9c2.7,0,4.9-2.2,4.9-4.9
				C290.9,308.5,288.7,306.3,286,306.3z"/>
			<path class="st11" d="M318.4,379.9c-6.9,0-12.5-5.6-12.5-12.5c0-6.9,5.6-12.5,12.5-12.5c6.9,0,12.5,5.6,12.5,12.5
				C330.8,374.4,325.2,379.9,318.4,379.9z M318.4,362.6c-2.7,0-4.9,2.2-4.9,4.9c0,2.7,2.2,4.9,4.9,4.9s4.9-2.2,4.9-4.9
				C323.2,364.8,321,362.6,318.4,362.6z"/>
			<ellipse class="st11" cx="315.4" cy="333.8" rx="5.7" ry="5.7"/>
			<path class="st11" d="M296,355.9c0,2.4-1.9,4.3-4.3,4.3c-2.4,0-4.3-1.9-4.3-4.3c0-2.4,1.9-4.3,4.3-4.3
				C294.1,351.6,296,353.5,296,355.9z"/>
			<path class="st11" d="M326.7,303.4c0,2.4-1.9,4.3-4.3,4.3c-2.4,0-4.3-1.9-4.3-4.3c0-2.4,1.9-4.3,4.3-4.3
				C324.7,299.1,326.7,301,326.7,303.4z"/>
		</g>
		<path class="st1" d="M274.7,357.3c-3.5,0-6.3-2.8-6.3-6.3c0-1.1,0-2.2,0-3.4c-0.1-5.7-0.1-11-0.5-16.7c-0.2-3.5,2.4-6.5,5.9-6.8
			c3.5-0.2,6.5,2.4,6.8,5.9c0.4,6,0.5,11.6,0.6,17.4c0,1.1,0,2.2,0,3.3C281.1,354.4,278.3,357.3,274.7,357.3
			C274.8,357.3,274.7,357.3,274.7,357.3L274.7,357.3z"/>
		<path class="st1" d="M273.6,317.7c-3.4,0-6.2-2.7-6.3-6.2l-0.2-5.9c-0.1-3.5,2.7-6.4,6.2-6.5c3.5-0.1,6.4,2.7,6.5,6.2l0.2,5.9
			c0.1,3.5-2.7,6.4-6.2,6.5C273.7,317.7,273.6,317.7,273.6,317.7z"/>
	</g>
</g>
</svg>
