<?xml version="1.0" encoding="utf-8"?>
<!-- Generator: Adobe Illustrator 23.0.1, SVG Export Plug-In . SVG Version: 6.00 Build 0)  -->
<svg version="1.1" id="Capa_1" xmlns="http://www.w3.org/2000/svg" xmlns:xlink="http://www.w3.org/1999/xlink" x="0px" y="0px"
	 viewBox="0 0 512 512" style="enable-background:new 0 0 512 512;" xml:space="preserve">
<style type="text/css">
	.st0{fill:#FFFFFF;}
	.st1{fill:#E1BDFC;}
	.st2{fill:#F4DAB5;}
	.st3{fill:#DBA2B3;}
	.st4{fill:#A1E8C3;}
	.st5{fill:#85ADC2;}
	.st6{fill:#FAF1A9;}
	.st7{fill:#F6E06E;}
	.st8{fill:#3C122C;}
</style>
<g>
	<g>
		<path class="st0" d="M388,240.6c-8.3-9.9-21.3-14.2-35.1-12.9c0.7-5.2,1-10.5,1-15.9c0-64-210.3-64-210.3,0
			c0,30.5,10.7,58.3,28.3,79c3.5,4.1,4.5,9.9,5.7,15.1c-26,6.7-42.6,16.9-42.6,28.3c0,20,27.2,56.8,113.8,56.8
			s113.8-36.8,113.8-56.8c0-5-3.1-9.7-8.8-14c6.9-2.5,13.8-6.4,20-11.6C396.8,289.2,403.2,258.8,388,240.6L388,240.6z M359,292
			c-12.1,10.1-27.8,11.5-36.6,3.9c0.9-1.9,1.9-3.6,3.3-5.2c10.3-12.2,18.3-26.9,23.1-43.1c7.5-0.7,14.5,1.5,18.9,6.8
			C375.9,264.3,372,281.1,359,292z"/>
		<ellipse class="st1" cx="247.3" cy="341.5" rx="86.1" ry="29.8"/>
		<path class="st2" d="M331,234.6c0-45.1-164.5-45.1-164.5,0c0,21.5,10.7,38.3,24.4,52.8c3.4,3.6,3.1,10.8,4.6,15l0,0.2
			c4,15.7,16.5,27.6,32.8,27.6h40.8c16.3,0,30-11.1,33.9-26.9v-0.2c0.7-4.8,2.2-12.3,5.6-15.9C322.4,272.8,331,256.1,331,234.6
			L331,234.6z"/>
		<path class="st3" d="M285.9,326c12.7-5.8,18.4-20.7,21.3-35.7c1.7-9.8,14.4-13.2,17.3-23c5.8-16.2,12-37.2-2.6-49.1
			c-2.6,20.6-10.9,39.2-23.2,53.7c-3.7,4.3-4.9,10.1-5.7,16c-4.3,19-19.8,32.4-37.6,32.4h-13.3c-0.7,3.4-1.8,6.6-3.4,9.7
			C255.1,331.7,271.6,333.2,285.9,326L285.9,326z"/>
		<path class="st1" d="M240.6,163.9c42.2,1.4,82.1,15,82.1,40.7c0,4.6-0.3,9.1-0.8,13.6c14.6,11.9,8.3,32.9,2.6,49.1
			c-2.9,9.8-15.5,13.2-17.3,23c-2.9,15-8.6,29.9-21.3,35.7c-14.3,7.2-30.8,5.7-47.2,3.9c-3.5,6.9-9.1,12.7-15.4,17.6h51.6
			c20.9,0,39.1-15.7,44.1-38c0.9-6.9,2.4-13.6,6.7-18.7c17.5-20.7,28.3-48.5,28.3-79C353.9,178.1,295.8,162.2,240.6,163.9
			L240.6,163.9z"/>
		<path class="st4" d="M190.4,344.5c-5.1,8-27.8,9.7-49.8-6.3c-22-16.1-24.8-49.6-24.8-49.6s32.8-7.5,54.8,8.6
			C192.5,313.2,195.4,336.5,190.4,344.5z"/>
		<path class="st5" d="M170.5,297.2c-21.8-15.9-54.1-8.8-54.8-8.6c0.7-0.2,23.1-5,38.2,6c15.3,11.2,17.4,27.4,13.8,33
			c-3.5,5.6-19.4,6.8-34.7-4.4c-15.3-11.2-17.3-34.6-17.3-34.6s2.8,33.5,24.8,49.6c22,16.1,44.7,14.3,49.8,6.3
			C195.4,336.5,192.5,313.2,170.5,297.2L170.5,297.2z"/>
		<path class="st4" d="M176.2,349.2c-6.4-6.9-2.3-29.4,18.9-46.5c21.2-17.2,54.3-11.3,54.3-11.3s-1.2,33.6-22.3,50.8
			C205.9,359.3,182.6,356.2,176.2,349.2L176.2,349.2z"/>
		<path class="st5" d="M199.1,299.8c15.8-9.8,37.2-6,37.2-6s-0.9,25.2-16.7,38.1c-15.9,12.9-33.3,10.5-38.1,5.3
			c-4.8-5.2-1.8-21.8,13.9-34.7c-0.1,0.1-0.2,0.1-0.3,0.2c-21.2,17.2-25.3,39.6-18.9,46.5s29.7,10.1,50.8-7.1
			c21.2-17.2,22.3-50.8,22.3-50.8S220.1,286.2,199.1,299.8L199.1,299.8z"/>
		<path class="st6" d="M147.7,116.7l4.7,13.3c0.2,0.6,0.6,1,1.1,1.2l11.8,5.3c1.7,0.8,1.7,3.4,0,4.2l-11.8,5.3
			c-0.5,0.2-0.9,0.7-1.1,1.2l-4.7,13.3c-0.7,1.9-3,1.9-3.7,0l-4.7-13.3c-0.2-0.6-0.6-1-1.1-1.2l-11.8-5.3c-1.7-0.8-1.7-3.4,0-4.2
			l11.8-5.3c0.5-0.2,0.9-0.7,1.1-1.2l4.7-13.3C144.7,114.8,147.1,114.8,147.7,116.7z"/>
		<ellipse class="st7" cx="303.3" cy="130.7" rx="10.3" ry="10.3"/>
		<circle class="st7" cx="194.1" cy="120.7" r="4.5"/>
		<path class="st6" d="M380.3,157.4l3.5,9.9c0.2,0.4,0.4,0.8,0.8,0.9l8.8,3.9c1.2,0.6,1.2,2.5,0,3.1l-8.8,3.9
			c-0.4,0.2-0.7,0.5-0.8,0.9l-3.5,9.9c-0.5,1.4-2.2,1.4-2.7,0L374,180c-0.2-0.4-0.4-0.8-0.8-0.9l-8.8-3.9c-1.2-0.6-1.2-2.5,0-3.1
			l8.8-3.9c0.4-0.2,0.7-0.5,0.8-0.9l3.5-9.9C378,156,379.8,156,380.3,157.4z"/>
	</g>
	<g>
		<g>
			<path class="st8" d="M392.4,236.9c-7.9-9.5-19.6-14.8-33.1-15.1c0.2-3.3,0.4-6.6,0.4-10c0-12.1-6.3-29.1-36.5-41.3
				c-19.7-8-46.2-12.4-74.5-12.4c-28.3,0-54.7,4.4-74.5,12.4c-30.1,12.2-36.5,29.2-36.5,41.3c0,26.8,8,52.6,22.7,73.7
				c-21.5-7.9-44.9-2.8-46.1-2.5c-2.8,0.6-4.7,3.2-4.5,6.1c0.1,1.3,2.6,28.2,19.2,46.6c0.7,13.8,10.6,28.4,26.9,39.2
				c21.5,14.3,53.6,21.9,92.6,21.9s71.1-7.6,92.6-21.9c16.9-11.2,27-26.4,27-40.7c0-4.3-1.5-8.4-4.5-12.2c4.7-2.4,9.3-5.5,13.6-9
				c12.2-10.2,20.5-23.5,23.4-37.6C403.9,260.7,400.9,247.1,392.4,236.9L392.4,236.9z M353.7,251c4.7,0.5,8.6,2.4,11.2,5.6
				c3.3,3.9,4.3,9.4,3,15.5c-1.5,6.4-5.4,12.5-11.2,17.3c-5.7,4.8-12.5,7.6-19,7.9c-3.2,0.2-6.2-0.3-8.8-1.4c0.3-0.5,0.7-1,1.1-1.5
				C340.7,281.8,348.8,267,353.7,251L353.7,251z M178.6,181.1c18.4-7.5,43.3-11.6,70.1-11.6c26.8,0,51.7,4.1,70.1,11.6
				c13.4,5.4,29.3,15.1,29.3,30.6c0,28.1-9.6,54.8-26.9,75.3c-5.3,6.2-7,14.3-8,21.4c-4.5,19.6-20.3,33.3-38.4,33.3h-42.2
				c2.5-2.5,4.7-5.2,6.7-8h29.8c17.6,0,33-12.1,37.3-29.5c0.1-0.2,0.1-0.5,0.1-0.7c1.4-9.2,3.5-12.6,4.6-13.8
				c15.9-16.9,23.3-34.4,23.3-55.1c0-4.1-1.2-9-5-13.9c4.9-3.6,7.8-7.7,7.8-12.3c0-18.6-45.6-28.7-88.4-28.7
				c-42.9,0-88.4,10.1-88.4,28.7c0,4.7,2.8,8.8,7.8,12.3c-3.9,4.9-5,9.8-5,13.9c0,25.3,14.5,43.6,25.4,55.2c1.5,1.6,2.1,5.1,2.6,8.1
				c0.2,1.1,0.4,2.1,0.6,3.1c-1.6,1.4-3.1,2.7-4.5,4.1c-1.5-2-3.2-3.9-5.1-5.8c-1.1-4.3-2.6-8.7-5.7-12.4
				c-17.3-20.5-26.9-47.2-26.9-75.3C149.4,196.2,165.3,186.5,178.6,181.1L178.6,181.1z M352.6,326.5c2.8,2.6,4.2,5.2,4.2,7.5
				c0,2.4-0.5,5.2-1.6,8.1c-4.9,5.2-14.3,10.2-27,14.2c-21.2,6.7-49.4,10.5-79.4,10.5c-30.1,0-58.3-3.7-79.4-10.5c-1-0.3-2-0.7-3-1
				c2.9,0.5,5.7,0.7,8.2,0.7c2,0,3.8-0.1,5.5-0.4c3.8,1.6,8.6,2.5,13.7,2.5c0.8,0,1.6,0,2.5-0.1c5.3-0.3,12.5-1.5,20.4-5.3
				c2,0.3,4,0.4,6,0.4h52.2c18.2,0,34.5-10.4,43.6-26.6c5,1.7,10.4,2.6,16.2,2.6c0.5,0,1.1,0,1.6,0
				C341.7,329.1,347.2,328.2,352.6,326.5L352.6,326.5z M197.2,305.4c11.8-9.6,27.9-11.5,38.9-11.5c4,0,7.3,0.2,9.5,0.5
				c-0.9,8.5-4.8,32.1-20.8,45.1c-11.2,9.1-21.9,11.4-29,11.8c-5.8,0.3-10.6-0.7-13.8-2.1l39.6-31.9c1.5-1.2,1.7-3.4,0.5-4.9
				c-1.2-1.5-3.4-1.7-4.9-0.5l-40.1,32.2c-0.4-1.5-0.6-3.4-0.4-5.5C177.5,330,183.2,316.8,197.2,305.4L197.2,305.4z M324.5,215.7
				c-4.2-3.5-10-6.8-18-9.7c-15.3-5.6-35.8-8.7-57.7-8.7s-42.4,3.1-57.7,8.7c-8,2.9-13.8,6.3-18,9.7c-3.8-2.5-5.8-5-5.8-7.3
				c0-9.1,31-21.8,81.5-21.8s81.5,12.7,81.5,21.8C330.3,210.7,328.3,213.2,324.5,215.7z M317.8,219.3c-13.5,5.9-37.5,10.9-69,10.9
				c-31.5,0-55.5-4.9-69-10.9c4.2-2.9,9.1-5.1,13.7-6.8c14.5-5.3,34.2-8.2,55.3-8.2s40.8,2.9,55.3,8.2
				C308.7,214.2,313.6,216.4,317.8,219.3z M174.1,224.3c16.7,8.4,46.3,12.8,74.7,12.8s57.9-4.4,74.7-12.8c2.5,3,4.1,6.4,4.1,10.3
				c0,18.8-6.8,34.8-21.4,50.4c-3.1,3.3-5.2,9.1-6.5,17.8c0,0.1,0,0.1,0,0.2c-3.7,14.1-16.2,23.9-30.5,23.9h-25.7
				c8.6-16.6,9.3-34.3,9.4-35.4c0.1-1.7-1.2-3.2-2.9-3.5c-1.3-0.2-30.3-5.1-52.2,8.6c-0.7-4-1.5-8.4-4.3-11.4
				c-16.2-17.3-23.5-32.8-23.5-50.5C170,230.7,171.6,227.3,174.1,224.3L174.1,224.3z M167.1,301.8c5.5,4,9.5,8.4,12.3,12.5
				c-2.6,3.6-4.5,7.3-6,10.7l-24.8-16.9c-1.6-1.1-3.7-0.7-4.8,0.9c-1.1,1.6-0.7,3.7,0.9,4.8l26.3,18c-0.6,2.3-0.9,4.4-1.1,6.3
				c-0.2,2.3-0.1,4.4,0.3,6.3c-7.5-0.8-16.9-4-26.4-10.9c-14.7-10.7-20-30.7-21.7-40.2C131.8,292.1,152.4,291,167.1,301.8z
				 M335,365.2c-13.7,9.1-39.8,19.9-86.2,19.9s-72.5-10.8-86.2-19.9c-3.8-2.5-7-5.1-9.7-7.8c4.2,2,9,3.8,14.4,5.6
				c21.8,7,50.8,10.8,81.5,10.8s59.7-3.8,81.5-10.8c5.4-1.7,10.2-3.6,14.4-5.5C342,360.1,338.8,362.7,335,365.2z M389.6,272.9
				c-2.4,11.6-9.4,22.6-19.5,31.1c-10.2,8.5-22.3,13.4-34.1,13.7c-4.6,0.1-8.9-0.5-12.9-1.7c0.6-1.8,1.1-3.5,1.5-5.4
				c0-0.2,0.1-0.3,0.1-0.5c0.4-2.7,0.8-5.4,1.5-7.9c3.1,1.3,6.6,2,10.3,2c0.5,0,1,0,1.5,0c8-0.4,16.2-3.8,23.1-9.5
				c6.9-5.8,11.7-13.2,13.5-21.1c1.9-8.2,0.3-15.8-4.4-21.4c-3.6-4.3-8.7-7-14.6-7.9c0.9-3.7,1.7-7.4,2.3-11.1
				c10.7,0.1,19.7,3.9,25.7,11C389.8,251.7,391.9,261.9,389.6,272.9L389.6,272.9z"/>
			<path class="st8" d="M204.7,249.1c8,1.6,16.5,2.7,25.8,3.4c0.1,0,0.2,0,0.2,0c1.8,0,3.3-1.4,3.4-3.2c0.1-1.9-1.3-3.6-3.2-3.7
				c-9-0.6-17.2-1.7-25-3.3c-1.9-0.4-3.7,0.8-4.1,2.7C201.6,246.9,202.8,248.7,204.7,249.1L204.7,249.1z"/>
			<path class="st8" d="M260.1,252.9C260.1,252.9,260.1,252.9,260.1,252.9c19-0.2,38.1-3.9,55.4-10.7c1.8-0.7,2.6-2.7,2-4.5
				c-0.7-1.8-2.7-2.6-4.5-1.9c-16.5,6.5-34.8,10-52.9,10.2c-1.9,0-3.4,1.6-3.4,3.5C256.7,251.4,258.2,252.9,260.1,252.9L260.1,252.9
				z"/>
		</g>
		<path class="st0" d="M228.3,220.7c-2.8,0-5.3-2.1-5.7-5c-0.4-3.1,1.8-6,4.9-6.5c10.2-1.4,20.2-1.4,29.6,0c3.1,0.5,5.3,3.4,4.9,6.5
			c-0.5,3.1-3.4,5.3-6.5,4.9c-8.4-1.2-17.3-1.2-26.5,0C228.8,220.7,228.5,220.7,228.3,220.7L228.3,220.7z"/>
		<path class="st0" d="M211.2,224.3c-2.5,0-4.8-1.7-5.5-4.2c-0.9-3.1,0.9-6.2,4-7.1c0.9-0.2,1.8-0.5,2.7-0.7c3.1-0.8,6.2,1.1,7,4.1
			s-1.1,6.2-4.1,7c-0.8,0.2-1.6,0.4-2.5,0.7C212.2,224.2,211.7,224.3,211.2,224.3L211.2,224.3z"/>
	</g>
</g>
</svg>
