<?xml version="1.0" encoding="utf-8"?>
<!-- Generator: Adobe Illustrator 23.0.1, SVG Export Plug-In . SVG Version: 6.00 Build 0)  -->
<svg version="1.1" id="Capa_1" xmlns="http://www.w3.org/2000/svg" xmlns:xlink="http://www.w3.org/1999/xlink" x="0px" y="0px"
	 viewBox="0 0 512 512" style="enable-background:new 0 0 512 512;" xml:space="preserve">
<style type="text/css">
	.st0{fill:none;stroke:#ACC0CC;stroke-miterlimit:10;}
	.st1{fill:#C1E5EF;}
	.st2{fill:#FFFFFF;}
	.st3{fill:#A1E8C3;}
	.st4{fill:#A6AAED;}
	.st5{fill:#E1BDFC;}
	.st6{fill:#85ADC2;}
	.st7{fill:#96B4EB;}
	.st8{fill:#3C122C;}
</style>
<rect class="st0" width="511.9" height="511.9"/>
<g>
	<g>
		<path class="st1" d="M303.9,309c0-10.8,1.9-20.6,5-28c0.3-0.7,0.6-1.3,0.8-2c7.6-19.3,8.5-40.5,3.3-60.6
			c-5.2-20.1-16.3-49.8-37.4-62.8v-20.8H231v20c-22,12.5-33.2,43-38.4,63.5c-5.1,20.1-4.2,41.4,3.4,60.7c0.3,0.7,0.5,1.3,0.8,2
			c3.1,7.4,5,17.2,5,28c0,10.8,0.7,21.2-2.4,28.6c-5.6,13.4-8.2,27.9-8.2,42.5c0,13.8,15.1,26,23.6,25s12-7.6,18.3-7.6
			c6.3,0,11.9,6.9,20.2,6.9c8.3,0,14.5-7.4,18.9-7.4s9.4,6,18.5,6.9c9.1,0.9,23.6-11.2,23.6-25c0-14.6-2.6-29.2-8.2-42.5
			C303,329.1,303.9,319.8,303.9,309z"/>
		<path class="st2" d="M310.9,265.3H197c-11.9-17.9-9.3-39.6,0-63.9h110.4C313.8,220.7,315.5,245.4,310.9,265.3z"/>
		<path class="st3" d="M312,238.7l-16.6-13.5l-16.6,26.2L266,241.1l-18.5,24.8h65.4L312,238.7z"/>
		<path class="st4" d="M303.9,309c0-10.8,1.9-20.6,5-28c0.3-0.7,0.6-1.3,0.8-2c7.6-19.3,8.5-40.5,3.3-60.6
			c-5.2-20.1-16.3-49.8-37.4-62.8v-17.6h-16.3v25.5c17.2,11.5,26.1,30.2,30.4,47.9c4.3,17.7,3.5,36.5-2.7,53.5
			c-0.2,0.6-0.4,1.2-0.7,1.8c-2.5,6.5-4,22.6-4,32.1c0,9.5-0.7,17.7,1.8,24.3c4.5,11.8,6.7,17.3,6.7,30.2
			c0,12.2-11.8,22.9-19.2,22.1s-11.5-6.1-15-6.1c-3.6,0-8.6,6.5-15.3,6.5c-6.8,0-11.3-6.1-16.4-6.1c-5.1,0-8,5.7-14.9,6.7
			c-5.3,0.7-13.8-5.6-17.5-14.1c-0.9,5.9-1.4,11.9-1.4,17.9c0,13.8,15.1,26,23.6,25c8.5-1.1,12-7.6,18.3-7.6s11.9,6.9,20.2,6.9
			c8.3,0,14.5-7.4,18.9-7.4s9.4,6,18.5,6.9c9.1,0.9,23.6-11.2,23.6-25c0-14.6-2.6-29.2-8.2-42.5C303,329.1,303.9,319.8,303.9,309
			L303.9,309z"/>
		<path class="st5" d="M286.7,265.7h27.1c3.6-15.5,3.2-31.7-0.9-47.2c-1.2-4.6-2.7-9.8-4.6-15.1h-21c0.9,2.7,1.6,5.4,2.3,8.2
			c4.3,17.7,3.5,36.5-2.7,53.5C286.8,265.2,286.7,265.5,286.7,265.7z"/>
		<path class="st6" d="M312,238.7l-16.6-13.5l-3.2,5c0.5,11.8-1.2,23.7-5.2,34.8c-0.1,0.2-0.2,0.4-0.3,0.7h26.2L312,238.7z"/>
		<path class="st7" d="M275.4,132.2H231c-2.7,0-4.8-2.2-4.8-4.8v-12.5c0-4.5,3.6-8.1,8.1-8.1h37.8c4.5,0,8.1,3.6,8.1,8.1v12.5
			C280.2,130.1,278.1,132.2,275.4,132.2z"/>
		<path class="st7" d="M241.2,239.9c0,8.5-6.9,15.4-15.4,15.4c-8.5,0-15.4-6.9-15.4-15.4c0-17.9,18-27.5,20.3-26.6
			c1.3,0.5,1.6,9.1,3.9,13.2C236,229.2,241.2,234.3,241.2,239.9L241.2,239.9z"/>
		<path class="st1" d="M162,127.3l5,14c0.2,0.6,0.6,1.1,1.2,1.3l12.5,5.6c1.8,0.8,1.8,3.6,0,4.4l-12.5,5.6c-0.5,0.2-1,0.7-1.2,1.3
			l-5,14c-0.7,2-3.2,2-3.9,0l-5-14c-0.2-0.6-0.6-1.1-1.2-1.3l-12.5-5.6c-1.8-0.8-1.8-3.6,0-4.4l12.5-5.6c0.5-0.2,1-0.7,1.2-1.3l5-14
			C158.9,125.3,161.3,125.3,162,127.3z"/>
		<circle class="st7" cx="353.1" cy="175.6" r="10.9"/>
		<circle class="st7" cx="129" cy="224.5" r="4.7"/>
		<path class="st1" d="M372.9,259.6l3.7,10.4c0.2,0.4,0.5,0.8,0.9,1l9.2,4.2c1.3,0.6,1.3,2.7,0,3.3l-9.2,4.2c-0.4,0.2-0.7,0.5-0.9,1
			l-3.7,10.4c-0.5,1.5-2.4,1.5-2.9,0l-3.7-10.4c-0.2-0.4-0.5-0.8-0.9-1l-9.2-4.2c-1.3-0.6-1.3-2.7,0-3.3l9.2-4.2
			c0.4-0.2,0.7-0.5,0.9-1l3.7-10.4C370.5,258.1,372.3,258.1,372.9,259.6z"/>
	</g>
	<g>
		<g>
			<path class="st8" d="M282.2,322.1h-58c-2,0-3.6-1.6-3.6-3.6c0-2,1.6-3.6,3.6-3.6h58c2,0,3.6,1.6,3.6,3.6
				C285.9,320.5,284.2,322.1,282.2,322.1z"/>
			<path class="st8" d="M282.2,300.9h-58c-2,0-3.6-1.6-3.6-3.6s1.6-3.6,3.6-3.6h58c2,0,3.6,1.6,3.6,3.6S284.2,300.9,282.2,300.9z"/>
			<path class="st8" d="M282.2,343.4h-58c-2,0-3.6-1.6-3.6-3.6c0-2,1.6-3.6,3.6-3.6h58c2,0,3.6,1.6,3.6,3.6
				C285.9,341.8,284.2,343.4,282.2,343.4z"/>
			<path class="st8" d="M225.8,259c-10.5,0-19.1-8.5-19.1-19.1c0-15.3,11.6-24.4,15.1-26.8c3.1-2.1,7.4-4.4,10.2-3.2
				c2.5,1,2.9,3.5,3.7,7.6c0.5,2.4,1.1,5.6,2,7.3c0.3,0.5,0.8,1.2,1.4,2c2.3,3.1,5.7,7.7,5.7,13.1C244.8,250.4,236.3,259,225.8,259
				L225.8,259z M228.4,217.7c-4.6,2.4-14.4,10-14.4,22.2c0,6.5,5.3,11.8,11.8,11.8s11.8-5.3,11.8-11.8c0-3-2.5-6.3-4.3-8.8
				c-0.8-1-1.4-1.9-1.9-2.8c-1.5-2.7-2.2-6.4-2.8-9.5C228.6,218.5,228.5,218.1,228.4,217.7L228.4,217.7z"/>
			<path class="st8" d="M309.9,315c0-1.9,0.1-3.9,0.1-6c0-9.6,1.6-18.7,4.5-25.6c0.3-0.7,0.6-1.4,0.9-2.1c8-20.3,9.2-42.6,3.5-64.4
				c-5.7-21.7-16.7-50-37.2-64.5v-16.1c2.9-2,4.8-5.3,4.8-9v-12.5c0-7.8-6.4-14.2-14.2-14.2h-37.8c-7.8,0-14.2,6.4-14.2,14.2v12.5
				c0,3.7,1.9,7,4.8,9v15.1c-21.3,14.1-32.5,43.1-38.2,65.4c-5.6,21.9-4.4,44.2,3.6,64.4c0.3,0.7,0.6,1.4,0.9,2.1
				c2.9,6.9,4.5,16,4.5,25.6c0,1.7,0,3.4,0,5c0.1,8.3,0.2,16.1-2,21.2c-5.8,13.8-8.7,28.9-8.7,44.9c0,8.4,4.3,17,11.7,23.5
				c5.5,4.8,11.7,7.6,17,7.6c0.6,0,1.2,0,1.8-0.1c5.7-0.7,9.6-3.2,12.7-5.2c2.3-1.5,3.7-2.3,4.9-2.3c1.4,0,3.6,1.2,5.8,2.4
				c3.8,2,8.4,4.5,14.4,4.5c6.5,0,11.7-3.1,15.5-5.4c1.2-0.7,2.7-1.6,3.5-1.9c0.7,0.2,2.2,1.1,3.3,1.7c3.4,1.9,8.1,4.5,14.5,5.2
				c5.9,0.6,13.1-2.3,19.1-7.8c7.1-6.4,11.2-14.9,11.2-23.3c0-16-2.9-31.1-8.7-44.9C309.6,329.3,309.7,322.7,309.9,315L309.9,315z
				 M308.2,262.5h-53.6l12.1-16.2l9.8,8c0.8,0.7,1.9,0.9,2.9,0.8c1-0.2,1.9-0.8,2.5-1.6l14.4-22.8l13.4,10.9
				c0.1,0.1,0.3,0.2,0.4,0.3C310.3,248.8,309.6,255.7,308.2,262.5C308.2,262.5,308.2,262.5,308.2,262.5L308.2,262.5z M198.4,219.9
				c1-4,2.4-8.7,4.1-13.7h100.4c1.8,5.1,3.1,9.8,4.2,13.8c1,3.9,1.8,7.9,2.3,11.8l-11.7-9.5c-0.8-0.7-1.9-0.9-2.9-0.8
				c-1,0.2-1.9,0.8-2.5,1.6L277.9,246l-9.6-7.8c-0.8-0.6-1.8-0.9-2.7-0.8c-1,0.1-1.9,0.6-2.5,1.4l-17.6,23.6h-48.2
				C194.4,248.7,194.8,234.2,198.4,219.9L198.4,219.9z M232.3,114.9c0-1.1,0.9-2,2-2h37.8c1.1,0,2,0.9,2,2v11.2h-41.9L232.3,114.9
				L232.3,114.9z M234,160.1l3.1-1.7V141h32.4v18.1l2.9,1.8c13,8,22,23.6,27.8,38.1h-95C211.1,184,220.3,167.9,234,160.1L234,160.1z
				 M301,393.3c-3.9,3.5-7.8,4.9-9.7,4.7c-3.9-0.4-6.9-2.1-9.8-3.7c-2.9-1.6-5.8-3.3-9.3-3.3c-3.5,0-6.5,1.8-9.7,3.7
				c-3,1.8-6.1,3.7-9.3,3.7c-2.9,0-5.7-1.5-8.7-3.1c-3.3-1.8-7.1-3.8-11.6-3.8c-4.9,0-8.4,2.3-11.5,4.2c-2.5,1.6-4.6,3-7.6,3.3
				c-1.4,0.2-5.1-0.9-9.2-4.5c-4.7-4.2-7.6-9.6-7.6-14.4c0-14.3,2.6-27.9,7.8-40.2c3.1-7.4,3-16.5,2.9-26.1c0-1.6,0-3.2,0-4.9
				c0-11.1-1.9-21.9-5.5-30.3c-0.3-0.6-0.5-1.3-0.8-1.9c-0.9-2.3-1.7-4.7-2.4-7.1h107.3c-0.7,2.4-1.5,4.8-2.4,7.1
				c-0.2,0.6-0.5,1.3-0.8,1.9c-3.5,8.4-5.5,19.2-5.5,30.3c0,2,0,3.9-0.1,5.8c-0.1,8.7-0.3,16.9,2.7,24.1c5.2,12.3,7.8,25.8,7.8,40.2
				C308.2,383.9,305.5,389.2,301,393.3z"/>
		</g>
		<path class="st2" d="M222.2,198c-0.6,0-1.3-0.1-1.9-0.3c-3.2-1.1-4.9-4.5-3.8-7.7c1.3-3.8,5-10,8.8-13.3c2.5-2.2,6.4-2,8.6,0.6
			c2.2,2.5,2,6.4-0.6,8.6c-1.9,1.7-4.6,5.9-5.3,8C227.1,196.4,224.7,198,222.2,198L222.2,198z"/>
		<path class="st2" d="M240.1,177.3c-2.1,0-4.2-1.1-5.3-3.2c-1.6-2.9-0.5-6.6,2.4-8.2c0.7-0.4,1.4-0.7,2.1-1c3.1-1.3,6.7,0,8,3.1
			c1.3,3.1,0,6.7-3.1,8c-0.4,0.2-0.8,0.4-1.2,0.6C242.1,177.1,241.1,177.3,240.1,177.3L240.1,177.3z"/>
	</g>
</g>
</svg>
