<?xml version="1.0" encoding="utf-8"?>
<!-- Generator: Adobe Illustrator 23.0.1, SVG Export Plug-In . SVG Version: 6.00 Build 0)  -->
<svg version="1.1" id="Capa_1" xmlns="http://www.w3.org/2000/svg" xmlns:xlink="http://www.w3.org/1999/xlink" x="0px" y="0px"
	 viewBox="0 0 512 512" style="enable-background:new 0 0 512 512;" xml:space="preserve">
<style type="text/css">
	.st0{fill:none;stroke:#ACC0CC;stroke-miterlimit:10;}
	.st1{fill:#C1E5EF;}
	.st2{fill:#D789B9;}
	.st3{fill:#C668B9;}
	.st4{fill:#E8C2D8;}
	.st5{fill:#3C122C;}
	.st6{fill:#FFFFFF;}
</style>
<rect class="st0" width="511.9" height="511.9"/>
<g>
	<g>
		<path class="st1" d="M337,181.7c4.9-34.4-3.1-61-3.1-61.8c0,0.7-150.6,0-150.6,0c0,0.8-8.1,27.4-3.1,61.8
			c8.3,57.8,44.7,83.8,66.6,91.4v74.9c0,7.1-3.6,13.8-9.5,17.7l-33.8,22.6c-1.6,1.1-0.9,3.6,1.1,3.6c21.1,0,87.1,0.1,108.1,0
			c2,0,2.7-2.5,1.1-3.6l-33.9-22.6c-5.9-4-9.5-10.6-9.5-17.7v-74.9C292.3,265.5,328.7,239.5,337,181.7z"/>
		<path class="st2" d="M197.9,174.2c0.2,3.6,0.5,7.4,1.1,11.4c7.7,53.5,47.1,71.1,59.6,71.3c12.5-0.2,51.9-17.8,59.6-71.3
			c0.6-3.9,0.9-7.7,1.1-11.4H197.9z"/>
		<path class="st3" d="M294.6,174.2c-0.1,2.9-0.4,5.9-0.9,9.1c-6.1,42.7-37.6,56.7-47.5,56.9c-10-0.2-41.4-14.2-47.5-56.9
			c-0.4-3.1-0.7-6.2-0.9-9.1c0.2,3.6,0.5,7.4,1.1,11.4c7.7,53.5,47.1,71.1,59.6,71.3c12.5-0.2,51.9-17.8,59.6-71.3
			c0.6-3.9,0.9-7.7,1.1-11.4H294.6z"/>
		<path class="st4" d="M167.2,252.5l4.7,13.2c0.2,0.6,0.6,1,1.1,1.2l11.7,5.3c1.7,0.7,1.7,3.4,0,4.1l-11.7,5.3
			c-0.5,0.2-0.9,0.7-1.1,1.2l-4.7,13.2c-0.7,1.9-3,1.9-3.7,0l-4.7-13.2c-0.2-0.6-0.6-1-1.1-1.2l-11.7-5.3c-1.7-0.7-1.7-3.4,0-4.1
			l11.7-5.3c0.5-0.2,0.9-0.7,1.1-1.2l4.7-13.2C164.2,250.7,166.6,250.7,167.2,252.5L167.2,252.5z"/>
		<circle class="st2" cx="367.9" cy="220.4" r="10.3"/>
		<path class="st2" d="M150,218.8c0,2.4-2,4.4-4.4,4.4c-2.4,0-4.4-2-4.4-4.4s2-4.4,4.4-4.4C148,214.4,150,216.4,150,218.8z"/>
		<path class="st4" d="M388.4,129.8l3.5,9.8c0.1,0.4,0.4,0.8,0.8,0.9l8.7,3.9c1.2,0.6,1.2,2.5,0,3.1l-8.7,3.9
			c-0.4,0.2-0.7,0.5-0.8,0.9l-3.5,9.8c-0.5,1.4-2.2,1.4-2.7,0l-3.5-9.8c-0.1-0.4-0.4-0.8-0.8-0.9l-8.7-3.9c-1.2-0.6-1.2-2.5,0-3.1
			l8.7-3.9c0.4-0.2,0.7-0.5,0.8-0.9l3.5-9.8C386.2,128.4,387.9,128.4,388.4,129.8z"/>
	</g>
	<g>
		<g>
			<path class="st5" d="M287.6,397.6c-28.6,0-68.5,0-83.1,0c-3.3,0-6.2-2.2-7.2-5.4c-1-3.2,0.3-6.6,3-8.5l33.8-22.6
				c4.4-2.9,7-7.8,7-13.1l-0.2-71c-13.2-5.4-26.5-15.1-37-27.1c-15.7-18-25.6-40.7-29.4-67.5c-3-20.8-1.9-42.5,3-62.8
				c0.1-0.3,0.1-0.5,0.2-0.7c0.2-1.2,0.7-2.2,1.6-3.1c1-1,2.5-1.6,3.9-1.6c56.9,0.2,150.3,0,150.6,0c2.8,0,5.1,2,5.5,4.7
				c0,0.2,0.1,0.4,0.2,0.7c4.9,20.3,6,42,3,62.8c-3.8,26.8-13.8,49.5-29.5,67.4c-13.7,15.6-28,23.3-37.1,27.1v71.1
				c0,5.3,2.6,10.2,7,13.1l33.9,22.6c2.8,1.9,4,5.2,3,8.4c-1,3.2-3.9,5.4-7.2,5.4C306.9,397.6,298,397.6,287.6,397.6L287.6,397.6z
				 M310.6,393L310.6,393L310.6,393z M216.3,386.5c22.5,0,61.6,0,84.6,0l-24.1-16.1c-7.5-5-12-13.4-12-22.4v-74.9
				c0-2.4,1.5-4.5,3.7-5.2c6-2.1,21.5-8.7,36.1-25.3c14.3-16.3,23.4-37,26.9-61.7h0c2.6-18.3,1.9-37.3-2-55.3
				c-0.7,0-130.8-0.1-141.8-0.1c-4,18-4.7,37.1-2.1,55.4c3.5,24.6,12.5,45.4,26.8,61.7c14.5,16.7,30,23.3,36,25.4
				c2.2,0.8,3.7,2.9,3.7,5.2l0.2,74.8c0,9-4.5,17.4-12,22.4L216.3,386.5z M339.4,119.9L339.4,119.9
				C339.4,119.9,339.4,119.9,339.4,119.9z M328.3,119.9L328.3,119.9L328.3,119.9z M177.7,119.9L177.7,119.9
				C177.7,119.9,177.7,119.9,177.7,119.9z M177.7,119.9L177.7,119.9C177.7,119.9,177.7,119.9,177.7,119.9z M339.4,119.9L339.4,119.9
				C339.4,119.9,339.4,119.9,339.4,119.9z"/>
			<path class="st5" d="M258.5,260.3C258.5,260.3,258.5,260.3,258.5,260.3c-7.6-0.1-21.4-5.4-33.8-16.5c-10.9-9.8-24.8-27.7-29-57.6
				c-0.5-3.8-0.9-7.7-1.1-11.7c0-0.9,0.3-1.8,0.9-2.5c0.6-0.7,1.5-1,2.4-1h121.3c0.9,0,1.8,0.4,2.4,1c0.6,0.7,1,1.5,0.9,2.5
				c-0.2,3.9-0.6,7.9-1.1,11.7c-4.3,29.9-18.2,47.9-29,57.6C279.9,254.9,266.1,260.1,258.5,260.3
				C258.6,260.3,258.6,260.3,258.5,260.3L258.5,260.3z M201.4,177.6c0.2,2.5,0.5,5.1,0.8,7.5c4,27.9,16.8,44.6,26.9,53.6
				c11.9,10.7,24.1,14.7,29.4,14.8c5.3-0.1,17.5-4.1,29.4-14.8c10.1-9,22.9-25.7,26.9-53.6c0.4-2.5,0.6-5,0.8-7.5H201.4z"/>
			<g>
				<path class="st6" d="M242.9,236.6c-1.2,0-2.4-0.4-3.4-1.1c-7.5-5.7-13.6-12.6-18.1-20.5c-1.5-2.7-0.6-6.1,2.1-7.6
					c2.7-1.5,6.1-0.6,7.6,2.1c3.7,6.6,8.8,12.3,15.1,17.1c2.4,1.9,2.9,5.3,1.1,7.8C246.3,235.9,244.6,236.6,242.9,236.6z"/>
				<path class="st6" d="M220.5,203.3c-2.5,0-4.7-1.7-5.4-4.2c-0.5-2-1.2-5-1.4-8.1c-0.2-3.1,2.2-5.7,5.2-5.9
					c3.1-0.2,5.7,2.2,5.9,5.2c0.1,1.7,0.4,3.6,1.1,6.1c0.7,3-1.1,6-4,6.7C221.4,203.3,220.9,203.3,220.5,203.3L220.5,203.3z"/>
				<path class="st6" d="M237,146.1C237,146.1,237,146.1,237,146.1c-4.2,0-8.3,0-12.2-0.1c-3.1,0-5.5-2.6-5.5-5.6
					c0-3,2.5-5.5,5.6-5.5h0.1c3.9,0,8,0.1,12.1,0.1c3.1,0,5.5,2.5,5.5,5.6C242.5,143.6,240,146.1,237,146.1L237,146.1z"/>
				<path class="st6" d="M208.2,146H201c-3.1,0-5.6-2.5-5.6-5.6s2.5-5.6,5.6-5.6h7.3c3.1,0,5.6,2.5,5.6,5.6S211.3,146,208.2,146z"/>
			</g>
			<path class="st5" d="M274.5,233.3c-1.8,0-3.3-1.5-3.3-3.3v-6.3c0-1.8,1.5-3.3,3.3-3.3s3.3,1.5,3.3,3.3v6.3
				C277.8,231.8,276.3,233.3,274.5,233.3z"/>
			<path class="st5" d="M288,220.5c-1.8,0-3.3-1.5-3.3-3.3v-6.3c0-1.8,1.5-3.3,3.3-3.3c1.8,0,3.3,1.5,3.3,3.3v6.3
				C291.3,219.1,289.8,220.5,288,220.5z"/>
		</g>
	</g>
</g>
</svg>
