<?xml version="1.0" encoding="utf-8"?>
<!-- Generator: Adobe Illustrator 23.0.1, SVG Export Plug-In . SVG Version: 6.00 Build 0)  -->
<svg version="1.1" id="Calque_1" xmlns="http://www.w3.org/2000/svg" xmlns:xlink="http://www.w3.org/1999/xlink" x="0px" y="0px"
	 viewBox="0 0 250 250" style="enable-background:new 0 0 250 250;" xml:space="preserve">
<style type="text/css">
	.st0{fill:#EDF1F4;}
	.st1{fill-rule:evenodd;clip-rule:evenodd;fill:#364548;}
	.st2{fill-rule:evenodd;clip-rule:evenodd;fill:#22A0C8;}
	.st3{fill-rule:evenodd;clip-rule:evenodd;fill:#37B1D9;}
	.st4{fill-rule:evenodd;clip-rule:evenodd;fill:#1B81A5;}
	.st5{fill-rule:evenodd;clip-rule:evenodd;fill:#1D91B4;}
	.st6{fill-rule:evenodd;clip-rule:evenodd;fill:#23A3C2;}
	.st7{fill-rule:evenodd;clip-rule:evenodd;fill:#34BBDE;}
	.st8{fill-rule:evenodd;clip-rule:evenodd;fill:#D3ECEC;}
	.st9{fill-rule:evenodd;clip-rule:evenodd;fill:#BDD9D7;}
</style>
<rect x="0" y="0" class="st0" width="250" height="250"/>
<g>
	<path class="st1" d="M138.9,106.4h15.9v16.3h8.1c3.7,0,7.5-0.7,11.1-1.9c1.7-0.6,3.7-1.4,5.4-2.4c-2.2-2.9-3.4-6.6-3.7-10.3
		c-0.5-5,0.5-11.4,3.9-15.3l1.7-1.9l2,1.6c5,4,9.2,9.7,10,16.1c6-1.8,13.1-1.4,18.5,1.7l2.2,1.3l-1.2,2.2
		c-4.5,8.8-13.9,11.5-23.1,11c-13.8,34.3-43.8,50.6-80.2,50.6c-18.8,0-36.1-7-45.9-23.7l-0.2-0.3l-1.4-2.9
		c-3.3-7.3-4.4-15.4-3.7-23.4l0.2-2.4H72v-16.3h15.9V90.5h31.9V74.6h19.1V106.4"/>
	<path class="st2" d="M190.5,112.4c1.1-8.3-5.1-14.8-9-17.9c-4.4,5.1-5.1,18.6,1.8,24.2c-3.9,3.5-12.1,6.6-20.5,6.6H60.8
		c-0.8,8.8,0.7,16.8,4.2,23.7l1.2,2.1c0.7,1.2,1.5,2.5,2.4,3.6h0c4.2,0.3,8.1,0.4,11.6,0.3h0c7-0.2,12.6-1,16.9-2.5
		c0.6-0.2,1.3,0.1,1.6,0.8c0.2,0.6-0.1,1.3-0.8,1.6c-0.6,0.2-1.2,0.4-1.8,0.6c0,0,0,0,0,0c-3.4,1-7,1.6-11.7,1.9c0.3,0-0.3,0-0.3,0
		c-0.2,0-0.4,0-0.5,0c-1.8,0.1-3.8,0.1-5.9,0.1c-2.2,0-4.4,0-6.9-0.2l-0.1,0c8.5,9.6,21.8,15.3,38.5,15.3
		c35.3,0,65.2-15.6,78.4-50.7c9.4,1,18.4-1.4,22.5-9.5C203.8,108.8,195.3,110,190.5,112.4"/>
	<path class="st3" d="M190.5,112.4c1.1-8.3-5.1-14.8-9-17.9c-4.4,5.1-5.1,18.6,1.8,24.2c-3.9,3.5-12.1,6.6-20.5,6.6h-96
		c-0.4,13.4,4.6,23.6,13.4,29.7h0c7-0.2,12.6-1,16.9-2.5c0.6-0.2,1.3,0.1,1.6,0.8c0.2,0.6-0.1,1.3-0.8,1.6c-0.6,0.2-1.2,0.4-1.8,0.6
		c0,0,0,0,0,0c-3.4,1-7.3,1.7-12,2c0,0-0.1-0.1-0.1-0.1c12,6.2,29.4,6.1,49.4-1.5c22.4-8.6,43.2-25,57.7-43.7
		C190.9,112.2,190.7,112.3,190.5,112.4"/>
	<path class="st4" d="M61,136c0.6,4.7,2,9.1,4,13.1l1.2,2.1c0.7,1.2,1.5,2.5,2.4,3.6c4.2,0.3,8.1,0.4,11.6,0.3
		c7-0.2,12.6-1,16.9-2.5c0.6-0.2,1.3,0.1,1.6,0.8c0.2,0.6-0.1,1.3-0.8,1.6c-0.6,0.2-1.2,0.4-1.8,0.6c0,0,0,0,0,0
		c-3.4,1-7.3,1.7-12,1.9c-0.2,0-0.4,0-0.6,0c-1.8,0.1-3.8,0.2-5.8,0.2c-2.2,0-4.5,0-7-0.2c8.5,9.6,21.9,15.3,38.6,15.3
		c30.2,0,56.5-11.5,71.7-36.8H61"/>
	<path class="st5" d="M67.8,136c1.8,8.2,6.1,14.7,12.4,19.1c7-0.2,12.6-1,16.9-2.5c0.6-0.2,1.3,0.1,1.6,0.8c0.2,0.6-0.1,1.3-0.8,1.6
		c-0.6,0.2-1.2,0.4-1.8,0.6c0,0,0,0,0,0c-3.4,1-7.4,1.7-12.1,1.9c12,6.2,29.4,6.1,49.3-1.6c12.1-4.6,23.7-11.5,34.1-19.9H67.8"/>
	<path class="st6" d="M74.7,109.1h13.8v13.8H74.7V109.1z M75.8,110.2h1.1v11.5h-1.1V110.2z M77.9,110.2H79v11.5h-1.1V110.2z
		 M80,110.2h1.1v11.5H80V110.2z M82,110.2h1.1v11.5H82V110.2z M84.1,110.2h1.1v11.5h-1.1V110.2z M86.2,110.2h1.1v11.5h-1.1V110.2z"
		/>
	<path class="st6" d="M90.6,93.1h13.8v13.8H90.6V93.1z M91.7,94.3h1.1v11.5h-1.1V94.3z M93.8,94.3h1.1v11.5h-1.1V94.3z M95.9,94.3
		H97v11.5h-1.1V94.3z M98,94.3h1.1v11.5H98V94.3z M100.1,94.3h1.1v11.5h-1.1V94.3z M102.2,94.3h1.1v11.5h-1.1V94.3z"/>
	<path class="st7" d="M90.6,109.1h13.8v13.8H90.6V109.1z M91.7,110.2h1.1v11.5h-1.1V110.2z M93.8,110.2h1.1v11.5h-1.1V110.2z
		 M95.9,110.2H97v11.5h-1.1V110.2z M98,110.2h1.1v11.5H98V110.2z M100.1,110.2h1.1v11.5h-1.1V110.2z M102.2,110.2h1.1v11.5h-1.1
		V110.2z"/>
	<path class="st6" d="M106.5,109.1h13.8v13.8h-13.8V109.1z M107.7,110.2h1.1v11.5h-1.1V110.2z M109.7,110.2h1.1v11.5h-1.1V110.2z
		 M111.8,110.2h1.1v11.5h-1.1V110.2z M113.9,110.2h1.1v11.5h-1.1V110.2z M116,110.2h1.1v11.5H116V110.2z M118.1,110.2h1.1v11.5h-1.1
		V110.2z"/>
	<path class="st7" d="M106.5,93.1h13.8v13.8h-13.8V93.1z M107.7,94.3h1.1v11.5h-1.1V94.3z M109.7,94.3h1.1v11.5h-1.1V94.3z
		 M111.8,94.3h1.1v11.5h-1.1V94.3z M113.9,94.3h1.1v11.5h-1.1V94.3z M116,94.3h1.1v11.5H116V94.3z M118.1,94.3h1.1v11.5h-1.1V94.3z"
		/>
	<path class="st7" d="M122.4,109.1h13.8v13.8h-13.8V109.1z M123.6,110.2h1.1v11.5h-1.1V110.2z M125.6,110.2h1.1v11.5h-1.1V110.2z
		 M127.7,110.2h1.1v11.5h-1.1V110.2z M129.8,110.2h1.1v11.5h-1.1V110.2z M131.9,110.2h1.1v11.5h-1.1V110.2z M134,110.2h1.1v11.5H134
		V110.2z"/>
	<path class="st6" d="M122.4,93.1h13.8v13.8h-13.8V93.1z M123.6,94.3h1.1v11.5h-1.1V94.3z M125.6,94.3h1.1v11.5h-1.1V94.3z
		 M127.7,94.3h1.1v11.5h-1.1V94.3z M129.8,94.3h1.1v11.5h-1.1V94.3z M131.9,94.3h1.1v11.5h-1.1V94.3z M134,94.3h1.1v11.5H134V94.3z"
		/>
	<path class="st7" d="M122.4,77.2h13.8V91h-13.8V77.2z M123.6,78.4h1.1v11.5h-1.1V78.4z M125.6,78.4h1.1v11.5h-1.1V78.4z
		 M127.7,78.4h1.1v11.5h-1.1V78.4z M129.8,78.4h1.1v11.5h-1.1V78.4z M131.9,78.4h1.1v11.5h-1.1V78.4z M134,78.4h1.1v11.5H134V78.4z"
		/>
	<path class="st6" d="M138.4,109.1h13.8v13.8h-13.8V109.1z M139.5,110.2h1.1v11.5h-1.1V110.2z M141.6,110.2h1.1v11.5h-1.1V110.2z
		 M143.7,110.2h1.1v11.5h-1.1V110.2z M145.7,110.2h1.1v11.5h-1.1V110.2z M147.8,110.2h1.1v11.5h-1.1V110.2z M149.9,110.2h1.1v11.5
		h-1.1V110.2z"/>
	<path class="st8" d="M103.5,145.3c2.1,0,3.8,1.7,3.8,3.8c0,2.1-1.7,3.8-3.8,3.8c-2.1,0-3.8-1.7-3.8-3.8
		C99.7,147,101.4,145.3,103.5,145.3"/>
	<path class="st1" d="M103.5,146.3c0.3,0,0.7,0.1,1,0.2c-0.3,0.2-0.6,0.6-0.6,1c0,0.6,0.5,1.1,1.1,1.1c0.4,0,0.8-0.2,1-0.6
		c0.1,0.3,0.2,0.7,0.2,1c0,1.5-1.2,2.7-2.7,2.7c-1.5,0-2.7-1.2-2.7-2.7C100.8,147.6,102,146.3,103.5,146.3"/>
	<path class="st1" d="M36.2,137.4h177.1c-3.9-1-12.2-2.3-10.8-7.4c-7,8.1-23.9,5.7-28.2,1.7c-4.8,6.9-32.4,4.3-34.4-1.1
		c-6,7-24.4,7-30.4,0c-1.9,5.4-29.6,8-34.4,1.1c-4.3,4-21.2,6.4-28.2-1.7C48.4,135.1,40,136.4,36.2,137.4"/>
	<path class="st9" d="M113.7,172.7c-9.4-4.5-14.6-10.6-17.5-17.2c-3.5,1-7.7,1.6-12.6,1.9c-1.8,0.1-3.8,0.2-5.8,0.2
		c-2.3,0-4.8-0.1-7.4-0.2c8.6,8.6,19.3,15.3,39,15.4C110.8,172.8,112.2,172.7,113.7,172.7"/>
	<path class="st8" d="M99.7,161.6c-1.3-1.8-2.6-4-3.5-6.1c-3.5,1-7.7,1.6-12.6,1.9C86.9,159.2,91.7,160.9,99.7,161.6"/>
</g>
</svg>
