<?xml version="1.0" encoding="utf-8"?>
<!-- Generator: Adobe Illustrator 23.0.1, SVG Export Plug-In . SVG Version: 6.00 Build 0)  -->
<svg version="1.1" id="Calque_1" xmlns="http://www.w3.org/2000/svg" xmlns:xlink="http://www.w3.org/1999/xlink" x="0px" y="0px"
	 viewBox="0 0 250 250" style="enable-background:new 0 0 250 250;" xml:space="preserve">
<style type="text/css">
	.st0{fill:#8080F2;}
	.st1{fill:#4B32C3;}
</style>
<path class="st0" d="M113.4,117.3l12.2-7c0.3-0.2,0.7-0.2,1,0l12.2,7c0.3,0.2,0.5,0.5,0.5,0.9v14c0,0.3-0.2,0.7-0.5,0.9l-12.2,7
	c-0.3,0.2-0.7,0.2-1,0l-12.2-7c-0.3-0.2-0.5-0.5-0.5-0.9v-14C112.9,117.9,113,117.5,113.4,117.3"/>
<path class="st1" d="M204.2,121.9l-35.9-62.5c-1.3-2.3-3.7-3.9-6.3-3.9H90.1c-2.6,0-5,1.7-6.3,3.9l-35.9,62.4
	c-1.3,2.3-1.3,5.1,0,7.4l35.9,62c1.3,2.3,3.7,3.4,6.3,3.4h71.9c2.6,0,5-1.1,6.3-3.4l35.9-62.1C205.5,126.8,205.5,124.1,204.2,121.9
	 M174.5,152c0,0.9-0.6,1.8-1.4,2.2l-45.8,26.4c-0.8,0.5-1.8,0.5-2.6,0l-45.8-26.4c-0.8-0.5-1.4-1.3-1.4-2.2V99.1
	c0-0.9,0.5-1.8,1.3-2.2l45.8-26.4c0.8-0.5,1.8-0.5,2.6,0l45.8,26.4c0.8,0.5,1.4,1.3,1.4,2.2L174.5,152z"/>
</svg>
