<?xml version="1.0" encoding="utf-8"?>
<!-- Generator: Adobe Illustrator 23.0.1, SVG Export Plug-In . SVG Version: 6.00 Build 0)  -->
<svg version="1.1" id="Calque_1" xmlns="http://www.w3.org/2000/svg" xmlns:xlink="http://www.w3.org/1999/xlink" x="0px" y="0px"
	 viewBox="0 0 250 250" style="enable-background:new 0 0 250 250;" xml:space="preserve">
<style type="text/css">
	.st0{fill:none;stroke:#307594;stroke-width:6;stroke-linecap:round;}
	.st1{fill:none;stroke:#307594;stroke-width:6;}
	.st2{fill-rule:evenodd;clip-rule:evenodd;fill:#307594;}
</style>
<g>
	<g>
		<path class="st0" d="M52,103.7L30.7,125 M52,146.3L30.7,125"/>
		<g>
			<path class="st0" d="M198,103.7l21.3,21.3 M198,146.3l21.3-21.3"/>
		</g>
	</g>
	<g transform="translate(16 4)">
		<circle class="st1" cx="109" cy="121" r="45.6"/>
		<path class="st2" d="M92.3,102.7L92.3,102.7c2.5,0,4.6,2,4.6,4.6v6.1c0,2.5-2,4.6-4.6,4.6l0,0c-2.5,0-4.6-2-4.6-4.6v-6.1
			C87.7,104.8,89.7,102.7,92.3,102.7z"/>
		<path class="st2" d="M125.7,102.7L125.7,102.7c2.5,0,4.6,2,4.6,4.6v6.1c0,2.5-2,4.6-4.6,4.6l0,0c-2.5,0-4.6-2-4.6-4.6v-6.1
			C121.2,104.8,123.2,102.7,125.7,102.7z"/>
		<path class="st2" d="M109,151.4c15.2,0,29-13.7,27.5-16.7c-1.6-3-9.2,7.6-27.5,7.6s-24.3-10.7-25.9-7.6
			C81.6,137.7,93.8,151.4,109,151.4z"/>
	</g>
</g>
</svg>
