<?xml version="1.0" encoding="utf-8"?>
<!-- Generator: Adobe Illustrator 23.0.1, SVG Export Plug-In . SVG Version: 6.00 Build 0)  -->
<svg version="1.1" id="Calque_1" xmlns="http://www.w3.org/2000/svg" xmlns:xlink="http://www.w3.org/1999/xlink" x="0px" y="0px"
	 viewBox="0 0 250 250" style="enable-background:new 0 0 250 250;" xml:space="preserve">
<style type="text/css">
	.st0{fill:#56B3B4;}
	.st1{fill:#EA5E5E;}
	.st2{fill:#BF85BF;}
	.st3{fill:#F7BA3E;}
	.st4{opacity:0.5;fill:#D0D4D8;enable-background:new    ;}
</style>
<g id="Page-1">
	<g id="prettier-icon-dark">
		<g id="Icon-_x28_Dark_x29_">
			<g id="Group">
				<path id="Rectangle" class="st0" d="M160.1,79.4h7c2,0,3.5,1.5,3.5,3.5c0,2-1.5,3.5-3.5,3.5h-7c-2,0-3.5-1.5-3.5-3.5
					C156.6,80.9,158.1,79.4,160.1,79.4z"/>
				<path id="Rectangle_1_" class="st1" d="M54.8,191.7h35.1c2,0,3.5,1.5,3.5,3.5c0,2-1.5,3.5-3.5,3.5H54.8c-2,0-3.5-1.5-3.5-3.5
					C51.3,193.2,52.8,191.7,54.8,191.7z"/>
				<path id="Rectangle_2_" class="st2" d="M139,135.5h21.1c2,0,3.5,1.5,3.5,3.5c0,2-1.5,3.5-3.5,3.5H139c-2,0-3.5-1.5-3.5-3.5
					C135.5,137.1,137.1,135.5,139,135.5z"/>
				<path id="Rectangle_3_" class="st1" d="M96.9,135.5H125c2,0,3.5,1.5,3.5,3.5c0,2-1.5,3.5-3.5,3.5H96.9c-2,0-3.5-1.5-3.5-3.5
					C93.4,137.1,95,135.5,96.9,135.5z"/>
				<path id="Rectangle_4_" class="st0" d="M54.8,135.5h28.1c2,0,3.5,1.5,3.5,3.5c0,2-1.5,3.5-3.5,3.5H54.8c-2,0-3.5-1.5-3.5-3.5
					C51.3,137.1,52.8,135.5,54.8,135.5z"/>
				<path id="Rectangle_5_" class="st2" d="M54.8,163.6h35.1c2,0,3.5,1.5,3.5,3.5c0,2-1.5,3.5-3.5,3.5H54.8c-2,0-3.5-1.5-3.5-3.5
					C51.3,165.2,52.8,163.6,54.8,163.6z"/>
				<path id="Rectangle_6_" class="st2" d="M54.8,107.5h35.1c2,0,3.5,1.5,3.5,3.5c0,2-1.5,3.5-3.5,3.5H54.8c-2,0-3.5-1.5-3.5-3.5
					C51.3,109,52.8,107.5,54.8,107.5z"/>
				<path id="Rectangle_7_" class="st3" d="M89.9,65.3h70.2c2,0,3.5,1.5,3.5,3.5c0,2-1.5,3.5-3.5,3.5H89.9c-2,0-3.5-1.5-3.5-3.5
					C86.4,66.9,87.9,65.3,89.9,65.3z"/>
				<path id="Rectangle_8_" class="st1" d="M54.8,65.3h21.1c2,0,3.5,1.5,3.5,3.5c0,2-1.5,3.5-3.5,3.5H54.8c-2,0-3.5-1.5-3.5-3.5
					C51.3,66.9,52.8,65.3,54.8,65.3z"/>
				<path id="Rectangle_9_" class="st3" d="M82.9,177.6h7c2,0,3.5,1.5,3.5,3.5s-1.5,3.5-3.5,3.5h-7c-2,0-3.5-1.5-3.5-3.5
					S80.9,177.6,82.9,177.6z"/>
				<path id="Rectangle_10_" class="st0" d="M82.9,93.4h7c2,0,3.5,1.5,3.5,3.5c0,2-1.5,3.5-3.5,3.5h-7c-2,0-3.5-1.5-3.5-3.5
					S80.9,93.4,82.9,93.4z"/>
				<path id="Rectangle_11_" class="st0" d="M54.8,177.6h14c2,0,3.5,1.5,3.5,3.5s-1.5,3.5-3.5,3.5h-14c-2,0-3.5-1.5-3.5-3.5
					S52.8,177.6,54.8,177.6z"/>
				<path id="Rectangle_12_" class="st3" d="M54.8,93.4h14c2,0,3.5,1.5,3.5,3.5c0,2-1.5,3.5-3.5,3.5h-14c-2,0-3.5-1.5-3.5-3.5
					S52.8,93.4,54.8,93.4z"/>
				<path id="Rectangle_13_" class="st4" d="M146.1,177.6h7c2,0,3.5,1.5,3.5,3.5s-1.5,3.5-3.5,3.5h-7c-2,0-3.5-1.5-3.5-3.5
					S144.1,177.6,146.1,177.6z"/>
				<path id="Rectangle_14_" class="st4" d="M103.9,177.6H132c2,0,3.5,1.5,3.5,3.5s-1.5,3.5-3.5,3.5h-28.1c-2,0-3.5-1.5-3.5-3.5
					S102,177.6,103.9,177.6z"/>
				<path id="Rectangle_15_" class="st4" d="M167.1,177.6h28.1c2,0,3.5,1.5,3.5,3.5s-1.5,3.5-3.5,3.5h-28.1c-2,0-3.5-1.5-3.5-3.5
					S165.2,177.6,167.1,177.6z"/>
				<path id="Rectangle_16_" class="st0" d="M111,121.5h56.2c2,0,3.5,1.5,3.5,3.5s-1.5,3.5-3.5,3.5H111c-2,0-3.5-1.5-3.5-3.5
					S109,121.5,111,121.5z"/>
				<path id="Rectangle_17_" class="st3" d="M75.9,121.5h21.1c2,0,3.5,1.5,3.5,3.5s-1.5,3.5-3.5,3.5H75.9c-2,0-3.5-1.5-3.5-3.5
					S73.9,121.5,75.9,121.5z"/>
				<path id="Rectangle_18_" class="st1" d="M54.8,121.5h7c2,0,3.5,1.5,3.5,3.5s-1.5,3.5-3.5,3.5h-7c-2,0-3.5-1.5-3.5-3.5
					S52.8,121.5,54.8,121.5z"/>
				<path id="Rectangle_19_" class="st2" d="M118,79.4h28.1c2,0,3.5,1.5,3.5,3.5c0,2-1.5,3.5-3.5,3.5H118c-2,0-3.5-1.5-3.5-3.5
					C114.5,80.9,116,79.4,118,79.4z"/>
				<path id="Rectangle_20_" class="st0" d="M54.8,79.4h49.1c2,0,3.5,1.5,3.5,3.5c0,2-1.5,3.5-3.5,3.5H54.8c-2,0-3.5-1.5-3.5-3.5
					C51.3,80.9,52.8,79.4,54.8,79.4z"/>
				<path id="Rectangle_21_" class="st3" d="M75.9,149.6H139c2,0,3.5,1.5,3.5,3.5c0,2-1.5,3.5-3.5,3.5H75.9c-2,0-3.5-1.5-3.5-3.5
					C72.4,151.1,73.9,149.6,75.9,149.6z"/>
				<path id="Rectangle_22_" class="st2" d="M54.8,149.6h7c2,0,3.5,1.5,3.5,3.5c0,2-1.5,3.5-3.5,3.5h-7c-2,0-3.5-1.5-3.5-3.5
					C51.3,151.1,52.8,149.6,54.8,149.6z"/>
				<path id="Rectangle_23_" class="st1" d="M139,93.4h35.1c2,0,3.5,1.5,3.5,3.5c0,2-1.5,3.5-3.5,3.5H139c-2,0-3.5-1.5-3.5-3.5
					S137.1,93.4,139,93.4z"/>
				<path id="Rectangle_24_" class="st3" d="M139,107.5h35.1c2,0,3.5,1.5,3.5,3.5c0,2-1.5,3.5-3.5,3.5H139c-2,0-3.5-1.5-3.5-3.5
					C135.5,109,137.1,107.5,139,107.5z"/>
				<path id="Rectangle_25_" class="st0" d="M54.8,51.3H139c2,0,3.5,1.5,3.5,3.5c0,2-1.5,3.5-3.5,3.5H54.8c-2,0-3.5-1.5-3.5-3.5
					S52.8,51.3,54.8,51.3z"/>
				<path id="Rectangle_26_" class="st4" d="M153.1,51.3h42.1c2,0,3.5,1.5,3.5,3.5c0,2-1.5,3.5-3.5,3.5h-42.1c-2,0-3.5-1.5-3.5-3.5
					S151.1,51.3,153.1,51.3z"/>
				<path id="Rectangle_27_" class="st4" d="M153.1,149.6h14c2,0,3.5,1.5,3.5,3.5c0,2-1.5,3.5-3.5,3.5h-14c-2,0-3.5-1.5-3.5-3.5
					C149.6,151.1,151.1,149.6,153.1,149.6z"/>
				<path id="Rectangle_28_" class="st4" d="M181.2,149.6h14c2,0,3.5,1.5,3.5,3.5c0,2-1.5,3.5-3.5,3.5h-14c-2,0-3.5-1.5-3.5-3.5
					C177.6,151.1,179.2,149.6,181.2,149.6z"/>
				<path id="Rectangle_29_" class="st4" d="M174.1,135.5h21.1c2,0,3.5,1.5,3.5,3.5c0,2-1.5,3.5-3.5,3.5h-21.1c-2,0-3.5-1.5-3.5-3.5
					C170.6,137.1,172.2,135.5,174.1,135.5z"/>
				<path id="Rectangle_30_" class="st4" d="M174.1,65.3h21.1c2,0,3.5,1.5,3.5,3.5c0,2-1.5,3.5-3.5,3.5h-21.1c-2,0-3.5-1.5-3.5-3.5
					C170.6,66.9,172.2,65.3,174.1,65.3z"/>
				<path id="Rectangle_31_" class="st4" d="M181.2,121.5h14c2,0,3.5,1.5,3.5,3.5s-1.5,3.5-3.5,3.5h-14c-2,0-3.5-1.5-3.5-3.5
					S179.2,121.5,181.2,121.5z"/>
				<path id="Rectangle_32_" class="st4" d="M181.2,79.4h14c2,0,3.5,1.5,3.5,3.5c0,2-1.5,3.5-3.5,3.5h-14c-2,0-3.5-1.5-3.5-3.5
					C177.6,80.9,179.2,79.4,181.2,79.4z"/>
				<path id="Rectangle_33_" class="st4" d="M188.2,93.4h7c2,0,3.5,1.5,3.5,3.5c0,2-1.5,3.5-3.5,3.5h-7c-2,0-3.5-1.5-3.5-3.5
					S186.2,93.4,188.2,93.4z"/>
				<path id="Rectangle_34_" class="st4" d="M188.2,107.5h7c2,0,3.5,1.5,3.5,3.5c0,2-1.5,3.5-3.5,3.5h-7c-2,0-3.5-1.5-3.5-3.5
					C184.7,109,186.2,107.5,188.2,107.5z"/>
				<path id="Rectangle_35_" class="st4" d="M132,163.6h63.2c2,0,3.5,1.5,3.5,3.5c0,2-1.5,3.5-3.5,3.5H132c-2,0-3.5-1.5-3.5-3.5
					C128.5,165.2,130.1,163.6,132,163.6z"/>
				<path id="Rectangle_36_" class="st4" d="M103.9,163.6h14c2,0,3.5,1.5,3.5,3.5c0,2-1.5,3.5-3.5,3.5h-14c-2,0-3.5-1.5-3.5-3.5
					C100.4,165.2,102,163.6,103.9,163.6z"/>
				<path id="Rectangle_37_" class="st4" d="M160.1,191.7h35.1c2,0,3.5,1.5,3.5,3.5c0,2-1.5,3.5-3.5,3.5h-35.1c-2,0-3.5-1.5-3.5-3.5
					C156.6,193.2,158.1,191.7,160.1,191.7z"/>
				<path id="Rectangle_38_" class="st4" d="M103.9,191.7h42.1c2,0,3.5,1.5,3.5,3.5c0,2-1.5,3.5-3.5,3.5h-42.1c-2,0-3.5-1.5-3.5-3.5
					C100.4,193.2,102,191.7,103.9,191.7z"/>
				<path id="Rectangle_39_" class="st4" d="M103.9,93.4H125c2,0,3.5,1.5,3.5,3.5c0,2-1.5,3.5-3.5,3.5h-21.1c-2,0-3.5-1.5-3.5-3.5
					S102,93.4,103.9,93.4z"/>
				<path id="Rectangle_40_" class="st4" d="M103.9,107.5H125c2,0,3.5,1.5,3.5,3.5c0,2-1.5,3.5-3.5,3.5h-21.1c-2,0-3.5-1.5-3.5-3.5
					C100.4,109,102,107.5,103.9,107.5z"/>
			</g>
		</g>
	</g>
</g>
</svg>
