<?xml version="1.0" encoding="utf-8"?>
<!-- Generator: Adobe Illustrator 23.0.1, SVG Export Plug-In . SVG Version: 6.00 Build 0)  -->
<svg version="1.1" id="Calque_1" xmlns="http://www.w3.org/2000/svg" xmlns:xlink="http://www.w3.org/1999/xlink" x="0px" y="0px"
	 viewBox="0 0 250 250" style="enable-background:new 0 0 250 250;" xml:space="preserve">
<style type="text/css">
	.st0{fill:#FFFFFF;}
</style>
<path class="st0" d="M126.1,198.7c17-60.7,16.5-61,28.8-104.3l3,1.7c1.6,0.9,2.9,0.2,2.9-1.7V73.8c3.3-11.4,5.8-20.2,6.6-22.9h13.3
	l22.1,20.5l-14.5,12.5l11,11.9l-72.3,103C126.4,199.3,125.9,199.2,126.1,198.7L126.1,198.7z M134,67.8c0.7,0,1.2,0.4,1.2,0.8v10.6
	c0,0.4-0.5,0.8-1.2,0.8h-17.9c-0.7,0-1.2-0.4-1.2-0.8V68.6c0-0.4,0.5-0.8,1.2-0.8L134,67.8L134,67.8L134,67.8z M156,56.1l-19.7,11.3
	c0.2,0.3,0.4,0.7,0.4,1.2v10.6c0,0.5-0.2,1-0.6,1.4L156,92.1c1.4,0.8,2.5,0.1,2.5-1.4V57.5C158.5,55.9,157.4,55.3,156,56.1L156,56.1
	z M113.3,79.2V68.6c0-0.4,0.1-0.8,0.4-1.2L94,56.1c-1.4-0.8-2.5-0.1-2.5,1.4v33.2c0,1.6,1.1,2.2,2.5,1.4l19.9-11.5
	C113.5,80.2,113.3,79.7,113.3,79.2L113.3,79.2L113.3,79.2z M123.2,198.7h0.7c-17-60.7-16.5-61-28.8-104.3l-3,1.7
	c-1.6,0.9-2.9,0.2-2.9-1.7V73.8c-3.3-11.4-5.8-20.2-6.6-22.9H69.4L47.3,71.4l14.5,12.5l-11,11.9L123.2,198.7L123.2,198.7z
	 M124.5,102.1c3,0,5.4-2.4,5.4-5.4s-2.4-5.4-5.4-5.4s-5.4,2.4-5.4,5.4C119.1,99.7,121.5,102.1,124.5,102.1L124.5,102.1z M124.5,134
	c3,0,5.4-2.4,5.4-5.4s-2.4-5.4-5.4-5.4s-5.4,2.4-5.4,5.4S121.5,134,124.5,134L124.5,134z M124.5,165.9c3,0,5.4-2.4,5.4-5.4
	s-2.4-5.4-5.4-5.4s-5.4,2.4-5.4,5.4S121.5,165.9,124.5,165.9L124.5,165.9z"/>
</svg>
