<?xml version="1.0" encoding="utf-8"?>
<!-- Generator: Adobe Illustrator 23.0.1, SVG Export Plug-In . SVG Version: 6.00 Build 0)  -->
<svg version="1.1" id="Capa_1" xmlns="http://www.w3.org/2000/svg" xmlns:xlink="http://www.w3.org/1999/xlink" x="0px" y="0px"
	 viewBox="0 0 512 512" style="enable-background:new 0 0 512 512;" xml:space="preserve">
<style type="text/css">
	.st0{fill:none;stroke:#ACC0CC;stroke-miterlimit:10;}
	.st1{fill:#FFFFFF;}
	.st2{fill:#E1BDFC;}
	.st3{fill:#C49A8B;}
	.st4{fill:#FAF1A9;}
	.st5{fill:#F6E06E;}
	.st6{fill:#3C122C;}
</style>
<rect class="st0" width="511.9" height="511.9"/>
<g>
	<g>
		<path class="st1" d="M394.8,270.5c-4-10.5-19.9-15.8-38-15.6c0-0.3,0-0.6,0-0.8c0-16.4-7-29.8-18.6-40.3
			c-1.8-4.8-4.3-9.6-7.7-14.2c-2.4-16.4-15.4-29-31.1-29c-4.4,0-8.5,1-12.3,2.7c-10.8-2.6-23.7-4.1-39-4.1c-15.2,0-28,1.5-38.8,4.1
			c-2.9-1.5-6-2.3-9.4-2.3c-9.3,0-17.3,6.3-20.6,15.3c-0.1,0.1-0.2,0.2-0.3,0.2c-1.8-0.5-3.6-0.8-5.5-0.8
			c-12.2,0-22.1,10.8-22.1,24.1c0,3.2,0.6,6.2,1.6,9c-8.5,9.6-13.5,21.3-13.5,35.1c0,41.9,23.8,78.3,58.6,96.5
			c-4.3,2.5-6.8,5.6-6.8,9.3c0,12.1,25.5,26.5,56.9,26.5c31.4,0,56.9-14.4,56.9-26.5c0-3.8-2.5-6.8-6.8-9.3
			c10.2-5.3,19.5-12.2,27.5-20.4c10.1,3.3,21.5,3.7,32.9,0.3C386,322.3,403.9,294.9,394.8,270.5L394.8,270.5z M354.7,312.7
			c-5.3,1.6-10.7,1.7-15.6,0.7c7.9-12.1,13.5-26,16.1-40.9c9.6,0,17.8,2.7,19.9,8.1C379.9,293.6,369.9,308.2,354.7,312.7
			L354.7,312.7z"/>
		<path class="st2" d="M345.7,221.8c0.2,12.7-2.4,25.5-9.4,35.7c-7.4,44.6-50.5,78.8-99.4,78.8c-51.8,0-94.1-38.4-97.2-86.8
			c-0.1,1.5-0.2,3-0.2,4.5c0,60,48.7,108.7,108.7,108.7c60,0,108.7-48.7,108.7-108.7C356.8,241.6,352.7,230.8,345.7,221.8
			L345.7,221.8z"/>
		<g>
			<ellipse class="st3" cx="219.4" cy="209.9" rx="12.8" ry="8.2"/>
			<path class="st3" d="M202.8,229.8c0.7-1.1,1.1-2.4,1.1-3.7c0-5.4-6.9-9.9-15.3-9.9c-8.5,0-15.3,4.4-15.3,9.9
				c0,4.9,5.5,8.9,12.7,9.7c-1.3,1.6-2.1,3.4-2.1,5.4c0,6.3,8,11.4,17.8,11.4c9.8,0,17.8-5.1,17.8-11.4
				C219.4,235.2,212.1,230.2,202.8,229.8L202.8,229.8z"/>
			<ellipse class="st3" cx="260.2" cy="199" rx="12.8" ry="8.2"/>
			<ellipse class="st3" cx="301.5" cy="220.2" rx="17.8" ry="11.5"/>
		</g>
		<path class="st4" d="M387.4,159.7l4.8,13.4c0.2,0.6,0.6,1,1.1,1.3l11.9,5.4c1.7,0.8,1.7,3.4,0,4.2l-11.9,5.4
			c-0.5,0.2-0.9,0.7-1.1,1.3l-4.8,13.4c-0.7,1.9-3.1,1.9-3.7,0l-4.8-13.4c-0.2-0.6-0.6-1-1.1-1.3l-11.9-5.4c-1.7-0.8-1.7-3.4,0-4.2
			l11.9-5.4c0.5-0.2,0.9-0.7,1.1-1.3l4.8-13.4C384.4,157.8,386.7,157.8,387.4,159.7z"/>
		<circle class="st5" cx="142.3" cy="146.8" r="10.4"/>
		<path class="st4" d="M347.5,113.4l3.5,10c0.2,0.4,0.5,0.8,0.8,0.9l8.8,4c1.3,0.6,1.3,2.6,0,3.1l-8.8,4c-0.4,0.2-0.7,0.5-0.8,0.9
			l-3.5,10c-0.5,1.4-2.3,1.4-2.8,0l-3.5-10c-0.2-0.4-0.5-0.8-0.8-0.9l-8.8-4c-1.3-0.6-1.3-2.6,0-3.1l8.8-4c0.4-0.2,0.7-0.5,0.8-0.9
			l3.5-10C345.3,111.9,347,111.9,347.5,113.4z"/>
	</g>
	<g>
		<path class="st6" d="M219.4,221.6c9.1,0,16.3-5.2,16.3-11.7s-7.2-11.7-16.3-11.7s-16.3,5.2-16.3,11.7S210.3,221.6,219.4,221.6z
			 M219.4,205.1c5.3,0,9.3,2.6,9.3,4.8s-4.1,4.8-9.3,4.8s-9.3-2.6-9.3-4.8C210.1,207.7,214.2,205.1,219.4,205.1z"/>
		<path class="st6" d="M207.4,226.8c0-0.2,0-0.5,0-0.7c0-7.5-8.3-13.4-18.8-13.4c-10.6,0-18.8,5.9-18.8,13.4c0,5.4,4.4,10.1,11,12.2
			c-0.3,0.9-0.4,1.9-0.4,2.9c0,8.4,9.3,14.9,21.3,14.9c11.9,0,21.3-6.5,21.3-14.9C222.9,234.3,216.5,228.6,207.4,226.8L207.4,226.8z
			 M201.6,249.2c-8.4,0-14.3-4.2-14.3-7.9c0-1.1,0.4-2.1,1.3-3.1c0.8-1,1-2.3,0.5-3.5c-0.5-1.2-1.6-2-2.8-2.2
			c-5.3-0.6-9.6-3.4-9.6-6.3c0-3,5.1-6.4,11.9-6.4c6.8,0,11.9,3.4,11.9,6.4c0,0.6-0.2,1.2-0.6,1.8c-0.7,1.1-0.7,2.4-0.1,3.5
			c0.6,1.1,1.7,1.8,2.9,1.9c7.9,0.3,13.3,4.4,13.3,7.9C215.9,245,210,249.2,201.6,249.2L201.6,249.2z"/>
		<path class="st6" d="M260.2,210.7c9.1,0,16.3-5.2,16.3-11.7s-7.2-11.7-16.3-11.7s-16.3,5.2-16.3,11.7
			C243.9,205.6,251.1,210.7,260.2,210.7z M260.2,194.3c5.3,0,9.3,2.6,9.3,4.8s-4.1,4.8-9.3,4.8c-5.3,0-9.3-2.6-9.3-4.8
			C250.9,196.8,255,194.3,260.2,194.3L260.2,194.3z"/>
		<path class="st6" d="M322.8,220.2c0-8.4-9.4-14.9-21.3-14.9c-12,0-21.3,6.6-21.3,14.9c0,2.6,0.9,5.1,2.5,7.2
			c-2.2,0.1-4.4,0.5-6.6,1.2c-4.5-8-13.1-13.2-22.4-13.2c-14.1,0-25.6,11.5-25.6,25.6c0,1.9,1.6,3.5,3.5,3.5c1.9,0,3.5-1.6,3.5-3.5
			c0-10.3,8.4-18.6,18.6-18.6c7.7,0,14.7,4.8,17.5,12.1c0.7,1.8,2.7,2.7,4.5,2c0.3-0.1,0.6-0.3,0.8-0.4c0.1,0,0.2-0.1,0.3-0.1
			c4-2,8.5-2.1,12.6-0.2c5.7,2.5,9.1,8.4,8.7,14.6c-0.1,1.9,1.3,3.6,3.2,3.7c0.1,0,0.2,0,0.3,0c1.8,0,3.3-1.4,3.5-3.2
			c0.4-5.8-1.5-11.4-5.1-15.7c0.5,0,1.1,0,1.6,0C313.4,235.1,322.8,228.6,322.8,220.2L322.8,220.2z M301.5,212.2
			c8.4,0,14.3,4.2,14.3,8s-5.9,8-14.3,8c-8.4,0-14.3-4.2-14.3-8S293,212.2,301.5,212.2z"/>
		<path class="st6" d="M400.2,268.5c-2.5-6.7-8.6-12-17.5-15.4c-6-2.2-12.9-3.5-20.3-3.9c-1.2-14.8-7.7-28-19.3-38.8
			c-1.9-4.7-4.2-9-7.1-13c-1.6-8.7-5.8-16.7-12.1-22.6c-6.8-6.4-15.5-9.9-24.5-9.9c-4.4,0-8.8,0.8-12.9,2.5
			c-11.3-2.6-24.2-3.9-38.4-3.9c-14.1,0-26.9,1.3-38.2,3.8c-3.2-1.3-6.5-2-10-2c-10.1,0-19.2,5.7-24.1,14.8
			c-0.8-0.1-1.5-0.1-2.3-0.1c-15.4,0-27.9,13.4-27.9,30c0,2.6,0.3,5.2,0.9,7.6c-8.4,10.6-12.8,22.8-12.8,36.5
			c0,41.1,21.8,77.2,54.4,97.4c-1.7,2.4-2.7,5.1-2.7,8.3c0,8.3,7.3,16.7,19.9,23c12.1,6,27.3,9.3,42.8,9.3c15.5,0,30.7-3.3,42.8-9.3
			c12.6-6.3,19.9-14.6,19.9-23c0-3.2-1-5.9-2.7-8.3c6.9-4.3,13.3-9.2,19.1-14.8c4.9,1.3,10,2,15.2,2c5.9,0,11.9-0.9,17.8-2.6
			c16.3-4.9,30.4-16.4,37.6-30.8C403.8,293.2,404.6,280.2,400.2,268.5L400.2,268.5z M360.4,276.4c2.3,0.3,4.4,0.8,6.2,1.5
			c1.9,0.7,4.4,2,5.2,4.1c2.1,5.5,0.6,10.5-1,13.7c-3.2,6.4-9.6,11.5-17.1,13.8c-2,0.6-4,1-6,1.1C353.6,300.1,358,288.6,360.4,276.4
			z M173.5,191.6c1.3,0,2.7,0.2,4,0.5c1.7,0.5,3.5,0.2,5-0.9l0.3-0.2c1-0.7,1.7-1.6,2.1-2.8c2.5-6.9,8.5-11.4,15.1-11.4
			c2.3,0,4.6,0.6,6.7,1.6c1.2,0.6,2.7,0.8,4,0.5c10.8-2.6,23.4-3.9,37.4-3.9c14.1,0,26.7,1.3,37.6,4c1.3,0.3,2.6,0.2,3.8-0.4
			c3.1-1.5,6.5-2.2,9.9-2.2c12.7,0,23.3,10.1,25.3,24c0.1,0.9,0.5,1.9,1.1,2.6c7.5,10.1,11.2,23,11.2,38.2c0,14.1-19.6,27.3-50,33.4
			c-2.2,0.5-4,2.2-4.5,4.4c-1.4,6.1-8.7,10.7-17,10.7c-5.6,0-11-2.1-14.2-5.6c-1.1-1.2-2.6-1.9-4.3-1.9c0,0-0.1,0-0.1,0
			c-1.7,0-3.2,0.8-4.3,2c-1.7,2-6,4.1-11.7,4.1c-7.5,0-12.5-3.7-12.5-6.1c0,0,0-0.1,0-0.3c0.4-3.1-1.7-6-4.8-6.5
			c-16.7-2.9-30.7-7.8-40.6-14.3c-6.4-4.2-14-11-14-20c0-5.8,0.6-11.4,1.7-16.5c0.3-1.5,0.1-3-0.7-4.3c-1.9-3.1-2.9-6.7-2.9-10.5
			C157.1,199.8,164.5,191.6,173.5,191.6L173.5,191.6z M145.2,254c0-5.3,0.8-10.1,2.3-14.5c0,0.6,0,1.1,0,1.7
			c0,11.2,6.7,21.5,19.3,29.7c10.3,6.7,24.2,11.9,40.6,15.2c2.4,8,11.9,13.8,23.6,13.8c6.1,0,11.7-1.6,16-4.3
			c5.1,3.7,11.6,5.7,18.5,5.7c12.2,0,23-6.5,27.1-16c35.2-7.8,56.1-24.2,56.1-44.1c0-0.6,0-1.1,0-1.7c1.4,4.4,2.3,9.2,2.3,14.5
			c0,56.7-46.1,102.9-102.9,102.9C191.4,356.9,145.2,310.8,145.2,254z M299.2,359.8c0,2.8-4.2,8-13.4,12.5
			c-10.4,5.1-24.1,8.1-37.7,8.1c-13.6,0-27.3-3-37.7-8.1c-9.2-4.6-13.4-9.7-13.4-12.5c0-0.8,0.5-1.7,1.5-2.6
			c15,7.3,31.9,11.3,49.6,11.3c17.8,0,34.6-4.1,49.6-11.3C298.7,358.1,299.2,359,299.2,359.8L299.2,359.8z M387.4,300
			c-5.8,11.6-17.2,20.9-30.5,24.9c-6.8,2-13.7,2.6-20.4,1.8c2.4-2.9,4.6-5.9,6.7-9.1c0.7,0,1.4,0.1,2.1,0.1c3.3,0,6.8-0.5,10.2-1.5
			c9.4-2.8,17.4-9.3,21.4-17.4c3.1-6.3,3.6-13.2,1.3-19.3c-1.3-3.5-4.5-6.3-9.2-8.1c-2.3-0.9-4.8-1.5-7.6-1.8
			c0.4-2.9,0.7-5.8,0.8-8.7c5.9,0.4,11.5,1.4,16.2,3.2c4,1.5,9.1,4.2,10.7,8.6C392.6,281.2,391.9,291,387.4,300L387.4,300z"/>
		<path class="st6" d="M248.1,346c-1.9,0-3.5-1.5-3.5-3.5c0-1.9,1.5-3.5,3.5-3.5c13.7-0.1,27.4-3.7,38.7-9.9
			c1.7-0.9,3.8-0.3,4.7,1.4c0.9,1.7,0.3,3.8-1.4,4.7C277.9,342,263,345.8,248.1,346C248.1,346,248.1,346,248.1,346L248.1,346z"/>
		<path class="st6" d="M304.7,324c-0.9,0-1.9-0.4-2.6-1.1c-1.3-1.4-1.2-3.6,0.2-4.9c2.5-2.3,4.8-4.7,7-7.2c1.2-1.5,3.5-1.6,4.9-0.4
			c1.5,1.2,1.6,3.4,0.4,4.9c-2.3,2.8-4.9,5.4-7.6,7.8C306.4,323.7,305.6,324,304.7,324L304.7,324z"/>
		<path class="st6" d="M193.3,151.9c-1.3,0-2.5-0.4-3.6-1.3c-2.5-2-2.9-5.7-0.9-8.2c1.3-1.6,4.6-6.8,4.6-11c0-1.6-0.4-2.2-1.6-3.7
			c-1.7-2.1-4.2-5.3-4.2-10.9c0-9.1,6.3-17.4,7.1-18.3c2-2.5,5.7-2.9,8.2-0.9c2.5,2,2.9,5.6,1,8.2c-1.3,1.6-4.6,6.8-4.6,11.1
			c0,1.6,0.4,2.2,1.6,3.7c1.7,2.1,4.2,5.3,4.2,10.9c0,9.1-6.3,17.4-7.1,18.3C196.7,151.1,195,151.9,193.3,151.9z"/>
		<path class="st6" d="M286.3,151.9c-1.3,0-2.5-0.4-3.6-1.3c-2.5-2-2.9-5.7-0.9-8.2c1.3-1.6,4.6-6.8,4.6-11c0-1.6-0.4-2.2-1.6-3.7
			c-1.7-2.1-4.2-5.3-4.2-10.9c0-9.1,6.3-17.4,7.1-18.3c2-2.5,5.7-2.9,8.2-0.9c2.5,2,2.9,5.6,1,8.2c-1.3,1.6-4.6,6.8-4.6,11.1
			c0,1.6,0.4,2.2,1.6,3.7c1.7,2.1,4.2,5.3,4.2,10.9c0,9.1-6.3,17.4-7.1,18.3C289.7,151.1,288,151.9,286.3,151.9L286.3,151.9z"/>
		<path class="st6" d="M239.8,151.9c-1.3,0-2.5-0.4-3.6-1.3c-2.5-2-2.9-5.7-0.9-8.2c1.3-1.6,4.6-6.8,4.6-11c0-1.6-0.4-2.2-1.6-3.7
			c-1.7-2.1-4.2-5.3-4.2-10.9c0-9.1,6.3-17.4,7.1-18.3c2-2.5,5.7-2.9,8.2-0.9c2.5,2,2.9,5.6,1,8.2c-1.3,1.6-4.6,6.8-4.6,11.1
			c0,1.6,0.4,2.2,1.6,3.7c1.7,2.1,4.2,5.3,4.2,10.9c0,9.1-6.3,17.4-7.1,18.3C243.2,151.1,241.5,151.9,239.8,151.9L239.8,151.9z"/>
	</g>
</g>
</svg>
