<?xml version="1.0" encoding="utf-8"?>
<!-- Generator: Adobe Illustrator 23.0.1, SVG Export Plug-In . SVG Version: 6.00 Build 0)  -->
<svg version="1.1" id="Capa_1" xmlns="http://www.w3.org/2000/svg" xmlns:xlink="http://www.w3.org/1999/xlink" x="0px" y="0px"
	 viewBox="0 0 512 512" style="enable-background:new 0 0 512 512;" xml:space="preserve">
<style type="text/css">
	.st0{fill:none;stroke:#ACC0CC;stroke-miterlimit:10;}
	.st1{fill:#A07575;}
	.st2{fill:#D789B9;}
	.st3{fill:#FFFFFF;}
	.st4{fill:#E1BDFC;}
	.st5{fill:#C668B9;}
	.st6{fill:#925873;}
	.st7{fill:#E8C2D8;}
	.st8{fill:#3C122C;}
</style>
<rect class="st0" width="511.9" height="511.9"/>
<g>
	<g>
		<path class="st1" d="M291.5,304.9c15.9-15.9,26.4-34.4,30.9-52c1.2-4.8,12.2-34.6,12.2-34.6c4.4-10.8,11-20.6,19.2-28.8l24.3-24.3
			L347,134.1l-24.3,24.3c-8.2,8.2-18,14.7-28.7,19.2c0,0-29.8,10.8-34.6,12.1c-17.7,4.5-36.2,15-52.2,31
			c-10.3,10.3-16,18.2-21.6,29.8c-4.9,10.2-9.7,19.1-16.1,27.5c-4,5.2-9.2,9.4-15,12.3c-7.7,3.9-16.6,11.6-23.1,19.9
			c-7.5,9.5-6.6,23.1,1.9,31.6l36.8,36.8c8.1,8.1,20.9,9.3,30.4,2.8c8.9-6.1,17.3-14.6,21.3-22.4c3.7-7.2,8.8-13.5,15.1-18.6
			c7.2-5.8,14.7-10.5,23.8-14.9C272.2,319.8,281.2,315.2,291.5,304.9L291.5,304.9z"/>
		<path class="st2" d="M289,310.6l-85.8-85.8c13.1-15.1,28.3-25.4,45.3-31.2l69.7,69.7C315,277.7,304.4,293.7,289,310.6L289,310.6z"
			/>
		<path class="st3" d="M237.8,258.8c21.6,2.8,36.4,21.2,51.3,20.5c9.9-0.5,21-5.8,28.2-9.9l0.3-5.7l-10.7-10.4
			c-5.2,1-10.8,1.4-15.9,0.7c-16.1-2.3-27.7-26.9-52.3-31.4c-16.9-3-28-0.7-35.4,3.1"/>
		<path class="st4" d="M314.6,273.4c1.2-2.3,2.3-4.6,3.2-7l-12.7-12.7c-3.2,0.5-6.3,0.5-9.4,0.5c-3.3,8.1-8.2,16.2-14.6,23.8
			C292.4,281.2,303.7,276.9,314.6,273.4L314.6,273.4z"/>
		<path class="st5" d="M281.2,278c-2,2.4-4.1,4.7-6.3,6.9c-1.5,1.5-2.9,2.8-4.3,4c6.1,6.1,12.3,12.3,18.4,18.4
			c0.8-0.8,1.7-1.6,2.5-2.4c9.8-9.8,17.5-20.6,23.1-31.5C303.7,276.9,292.4,281.2,281.2,278L281.2,278z"/>
		<path class="st5" d="M305.2,253.7l-6.8-6.8c-0.7,2.4-1.6,4.9-2.6,7.3C298.9,254.3,302,254.3,305.2,253.7z"/>
		<path class="st6" d="M266.4,292.2c-4.9,3.5-9.9,6-15.7,8.8c-6.9,3.4-12.7,7-18.2,11.4c-5,4-9.2,9-12.2,14.7
			c-3.1,6.2-9.8,12.9-16.8,17.7c-7.4,5.1-17.4,4.1-23.7-2.2L151,313.7c-4.9-4.9-6.6-12-4.8-18.3c-5.3,4-10.6,9.2-14.9,14.7
			c-7.5,9.5-6.6,23.1,1.9,31.6l36.8,36.8c8.1,8.1,20.9,9.3,30.4,2.8c8.8-6,17.2-14.5,21.3-22.3c3.8-7.2,8.9-13.6,15.2-18.7
			c7.2-5.8,14.7-10.5,23.8-14.9c9.1-4.4,16.6-8.2,24.4-14.6L266.4,292.2z"/>
		<path class="st6" d="M326.1,154.9l-9,8.9l12.9,12.9c3.1,3.1,3.1,8.2,0,11.4l-6.3,6.4c-6.5,6.5-11.6,14.1-15.1,22.6
			c0,0-6.1,16.6-8.6,24L320,261c1-2.7,1.8-5.4,2.5-8.1c1.2-4.8,12.2-34.6,12.2-34.6c4.4-10.8,11-20.6,19.2-28.8l3.4-3.4
			C346.9,175.7,336.5,165.3,326.1,154.9z"/>
		<path class="st2" d="M362.1,185.2L327,150.2c-2-2-2-5.3,0-7.3l15-15c2-2,5.3-2,7.3,0l35.1,35.1c2,2,2,5.3,0,7.3l-15,15
			C367.3,187.3,364.1,187.3,362.1,185.2z"/>
		<path class="st7" d="M157.4,185.4l4.3,12.2c0.2,0.5,0.6,0.9,1,1.1l10.8,4.9c1.5,0.7,1.5,3.1,0,3.8l-10.8,4.9
			c-0.5,0.2-0.8,0.6-1,1.1l-4.3,12.2c-0.6,1.7-2.8,1.7-3.4,0l-4.3-12.2c-0.2-0.5-0.6-0.9-1-1.1l-10.8-4.9c-1.5-0.7-1.5-3.1,0-3.8
			l10.8-4.9c0.5-0.2,0.8-0.6,1-1.1l4.3-12.2C154.6,183.6,156.8,183.6,157.4,185.4L157.4,185.4z"/>
		<ellipse class="st2" cx="189.5" cy="149.7" rx="9.5" ry="9.5"/>
		<path class="st2" d="M263.7,154.2c0,2.3-1.8,4.1-4.1,4.1c-2.3,0-4.1-1.8-4.1-4.1c0-2.3,1.8-4.1,4.1-4.1
			C261.9,150.2,263.7,152,263.7,154.2z"/>
		<path class="st7" d="M359.5,301.8l3.2,9c0.1,0.4,0.4,0.7,0.8,0.8l8,3.6c1.1,0.5,1.1,2.3,0,2.8l-8,3.6c-0.3,0.2-0.6,0.5-0.8,0.8
			l-3.2,9c-0.5,1.3-2.1,1.3-2.5,0l-3.2-9c-0.1-0.4-0.4-0.7-0.8-0.8l-8-3.6c-1.1-0.5-1.1-2.3,0-2.8l8-3.6c0.3-0.2,0.6-0.5,0.8-0.8
			l3.2-9C357.4,300.5,359,300.5,359.5,301.8L359.5,301.8z"/>
	</g>
	<g>
		<path class="st8" d="M388,159.3l-35-35c-4.1-4.1-10.7-4.1-14.7,0l-15,15c-3.4,3.4-4,8.7-1.5,12.7l-2.8,2.8
			c-7.7,7.7-16.8,13.8-26.9,18c-11.9,4.3-30.7,11-34,11.9c-19.2,4.9-38.6,16.3-54.6,32.3c-10.6,10.6-16.7,19-22.6,31.2
			c-5,10.3-9.6,18.8-15.6,26.6c-3.4,4.5-8,8.2-13.2,10.8c-8.2,4.1-17.6,12.1-24.9,21.4c-9.2,11.5-8.2,28.1,2.3,38.6l36.8,36.8
			c5.6,5.6,13.1,8.6,20.7,8.6c5.7,0,11.5-1.7,16.4-5.1c10.1-7,18.8-16.1,23-24.4c3.4-6.6,8-12.3,13.7-16.9
			c7-5.6,14.2-10.1,22.8-14.3c12.7-6.2,21.8-11,32.3-21.5c15.9-15.9,27.4-35.3,32.3-54.4c0.8-3.3,7.6-22.1,12-34
			c4.2-10.2,10.3-19.2,18-27l2.7-2.7c1.6,1,3.4,1.5,5.4,1.5c2.8,0,5.4-1.1,7.4-3.1l15-15C392.1,170,392.1,163.3,388,159.3L388,159.3
			z M309.9,271c-6.6,3-14,4.9-21,5.2c-5.4,0.3-13.3-4.7-20.9-9.5c-10.2-6.5-20.8-13.1-30.5-11.6l-27.6-27.6
			c6.7-2.1,16.5-3.8,28.2-1.7c12.6,2.3,21.8,10.5,30,17.7c7.3,6.4,14.2,12.5,22.4,13.7c1.7,0.2,3.6,0.4,5.6,0.4
			c3.8,0,7.8-0.4,10.8-1.2l6.6,6.6C312.5,265.6,311.3,268.3,309.9,271L309.9,271z M291.4,250.9c-6.4-0.9-12.3-6.1-19.1-12.2
			c-8.8-7.8-18.8-16.6-33.1-19.2c-8.8-1.6-16.6-1.2-23.1-0.1c10.2-9.1,21.5-16.3,33.1-20.9l52.3,52.3
			C298.2,251.3,294.4,251.3,291.4,250.9L291.4,250.9z M258.3,320.7c-9.3,4.5-17.2,9.5-24.8,15.6c-6.9,5.5-12.4,12.3-16.5,20.3
			c-3.5,6.7-11,14.6-19.6,20.5c-7.4,5.1-17.3,4.1-23.6-2.2L137,338c-6.7-6.7-7.3-17.3-1.5-24.6c6.4-8,14.5-15.1,21.4-18.5
			c6.7-3.3,12.5-8.1,16.9-13.8c6.5-8.5,11.4-17.5,16.7-28.4c4.1-8.4,8.2-14.8,14.2-21.6l13.7,13.7c-1.6,2.1-3.2,4.3-4.8,6.5
			c-15.6,21.2-33.3,45.3-51.3,56.1c-1.5,0.9-2,2.8-1.1,4.3c0.6,1,1.6,1.5,2.7,1.5c0.6,0,1.1-0.1,1.6-0.5
			c19.1-11.4,37.2-36.1,53.2-57.8c1.4-1.9,2.8-3.8,4.2-5.7l17.7,17.7l-62.4,62.4c-1.2,1.2-1.2,3.2,0,4.5c0.6,0.6,1.4,0.9,2.2,0.9
			c0.8,0,1.6-0.3,2.2-0.9l62.4-62.4l17.1,17.1c-2,1.5-4.1,3-6.2,4.6c-21.4,15.8-45.7,33.6-57.2,52.8c-0.9,1.5-0.4,3.4,1.1,4.3
			c0.5,0.3,1.1,0.5,1.6,0.5c1.1,0,2.1-0.5,2.7-1.5c10.8-18.1,34.6-35.6,55.5-51c2.4-1.7,4.7-3.4,7-5.1l14.2,14.2
			C274.1,312.8,267.4,316.3,258.3,320.7L258.3,320.7z M287.8,301.2c-0.7,0.7-1.4,1.4-2.1,2l-41.5-41.5c6.3,1.4,13.5,5.9,20.5,10.4
			c8.5,5.4,16.6,10.5,23.8,10.5c0.2,0,0.5,0,0.7,0c5.2-0.3,10.6-1.3,15.8-2.9C300.3,287.2,294.5,294.5,287.8,301.2L287.8,301.2z
			 M350.1,185.8c-8.8,8.8-15.6,19.1-20.4,30.5c0,0.1,0,0.1-0.1,0.2c-1.1,3.1-11.1,30.2-12.4,35.1c-0.4,1.6-0.8,3.1-1.3,4.7
			l-27.8-27.8l16.7-16.7c1.2-1.2,1.2-3.2,0-4.5c-1.2-1.2-3.2-1.2-4.5,0L283.6,224l-27.8-27.8c1.6-0.5,3.3-1,4.9-1.4
			c4.9-1.2,32-11.1,35.1-12.2c0.1,0,0.1-0.1,0.2-0.1c11.4-4.7,21.7-11.6,30.4-20.3l2.5-2.5l23.7,23.7L350.1,185.8z M365.7,181.4
			l-34.8-34.8l14.8-14.8l34.8,34.8L365.7,181.4z"/>
		<g>
			<path class="st3" d="M307.7,191.5c-1.9,0-3.7-1-4.6-2.8c-1.4-2.6-0.4-5.8,2.1-7.2c1.2-0.6,2.3-1.3,3.4-1.9
				c2.5-1.5,5.7-0.7,7.3,1.7c1.5,2.5,0.7,5.7-1.7,7.3c-1.2,0.7-2.5,1.5-3.9,2.2C309.5,191.3,308.6,191.5,307.7,191.5L307.7,191.5z"
				/>
			<path class="st3" d="M272.4,205c-2.4,0-4.6-1.7-5.2-4.2c-0.6-2.9,1.2-5.7,4.1-6.3c7.6-1.6,14.8-4.5,22.3-7.6l1-0.4
				c2.7-1.1,5.8,0.2,6.9,2.9c1.1,2.7-0.2,5.8-2.9,6.9l-1,0.4c-7.6,3.1-15.5,6.3-24.1,8.1C273.2,205,272.8,205,272.4,205L272.4,205z"
				/>
		</g>
	</g>
</g>
</svg>
