<?xml version="1.0" encoding="utf-8"?>
<!-- Generator: Adobe Illustrator 23.0.1, SVG Export Plug-In . SVG Version: 6.00 Build 0)  -->
<svg version="1.1" id="Capa_1" xmlns="http://www.w3.org/2000/svg" xmlns:xlink="http://www.w3.org/1999/xlink" x="0px" y="0px"
	 viewBox="0 0 512 512" style="enable-background:new 0 0 512 512;" xml:space="preserve">
<style type="text/css">
	.st0{fill:#A1E8C3;}
	.st1{fill:#F6E06E;}
	.st2{fill:#C1E5EF;}
	.st3{fill:#E8A284;}
	.st4{fill:#A6AAED;}
	.st5{fill:#D57B84;}
	.st6{fill:#EFC5B4;}
	.st7{fill:#3C122C;}
	.st8{fill:#FFFFFF;}
</style>
<g>
	<ellipse class="st0" cx="366.8" cy="158.9" rx="48.9" ry="48.9"/>
	<circle class="st1" cx="366.8" cy="158.8" r="35.2"/>
	<path class="st2" d="M314.7,390l-48.9-29.3v-83.5l100.7-117.5H136.1l100.7,117.5v83.5L187.9,390c-1.5,0.9-0.8,3.1,0.9,3.1h125.1
		C315.6,393.2,316.2,390.9,314.7,390z"/>
	<path class="st3" d="M191.7,195.5l54.7,66.3c2.6,3.4,7.2,3.4,9.7,0l54.5-66.3H191.7z"/>
	<path class="st4" d="M341.2,160.8l-93.1,92.2c-4.4,4.7-12.2,4.7-16.6,0L138,160.8l104.2,118.5c4.9,6,13.6,6,18.5,0l103.7-118.5
		H341.2z"/>
	<path class="st5" d="M306.3,195.5l-58.1,57.6c-1.7,1.8-3.9,2.9-6.2,3.3l4.5,5.4c2.6,3.4,7.2,3.4,9.7,0l54.5-66.3L306.3,195.5z"/>
	<path class="st6" d="M351.3,285.6l5.4,15.1c0.2,0.6,0.7,1.2,1.3,1.4l13.4,6c1.9,0.9,1.9,3.9,0,4.7l-13.4,6c-0.6,0.3-1,0.8-1.3,1.4
		l-5.4,15.1c-0.8,2.1-3.4,2.1-4.2,0l-5.4-15.1c-0.2-0.6-0.7-1.2-1.3-1.4l-13.4-6c-1.9-0.9-1.9-3.9,0-4.7l13.4-6
		c0.6-0.3,1-0.8,1.3-1.4l5.4-15.1C347.8,283.5,350.5,283.5,351.3,285.6z"/>
	<path class="st3" d="M157.6,256.5c0,6.5-5.2,11.7-11.7,11.7c-6.5,0-11.7-5.2-11.7-11.7c0-6.5,5.2-11.7,11.7-11.7
		C152.4,244.8,157.6,250.1,157.6,256.5z"/>
	<ellipse class="st3" cx="251.8" cy="119.1" rx="5" ry="5"/>
	<path class="st6" d="M193.3,80.4l4,11.2c0.2,0.5,0.5,0.9,0.9,1l9.9,4.5c1.4,0.6,1.4,2.9,0,3.5l-9.9,4.5c-0.4,0.2-0.8,0.6-0.9,1
		l-4,11.2c-0.6,1.6-2.5,1.6-3.1,0l-4-11.2c-0.2-0.5-0.5-0.9-0.9-1l-9.9-4.5c-1.4-0.6-1.4-2.9,0-3.5l9.9-4.5c0.4-0.2,0.8-0.6,0.9-1
		l4-11.2C190.7,78.8,192.7,78.8,193.3,80.4z"/>
</g>
<g>
	<g>
		<path class="st7" d="M251.3,267.9c-3,0-5.8-1.4-7.7-3.9L189,197.8c-0.9-1.1-1.1-2.5-0.5-3.8c0.6-1.2,1.8-2,3.2-2h119
			c1.4,0,2.6,0.8,3.2,2c0.6,1.2,0.4,2.7-0.5,3.8L259,264C257.1,266.5,254.3,267.9,251.3,267.9L251.3,267.9z M199.3,199.1
			c0,0,50,60.6,50,60.6c0.5,0.7,1.3,1.1,2,1.1c0.8,0,1.5-0.4,2-1.1c0,0,49.8-60.6,49.8-60.6H199.3z"/>
		<path class="st7" d="M366.8,106.1c-27.4,0-49.9,21-52.4,47.7H136.1c-2.3,0-4.4,1.4-5.4,3.5c-1,2.1-0.6,4.6,0.9,6.4l99.2,115.9
			v77.9l-46,27.6c-3,1.8-4.4,5.2-3.4,8.6c0.9,3.3,3.9,5.6,7.4,5.6h125.1c3.5,0,6.4-2.2,7.4-5.6c0.9-3.3-0.5-6.8-3.4-8.6c0,0,0,0,0,0
			l-46-27.6v-77.9l65.8-76.9c8.4,5.6,18.4,8.9,29.2,8.9c29.1,0,52.7-23.6,52.7-52.7S395.9,106.1,366.8,106.1L366.8,106.1z
			 M261.3,273.4c-0.9,1.1-1.4,2.4-1.4,3.9v83.5c0,2.1,1.1,4,2.9,5.1l35.7,21.4h-94.3l35.7-21.4c1.8-1.1,2.9-3,2.9-5.1v-83.5
			c0-1.4-0.5-2.8-1.4-3.9l-92.3-107.7h204.5L261.3,273.4z M362.7,190c-4-0.5-7.7-1.8-11.1-3.7l11.1-12.9V190z M370.2,167.9
			l15.8,15.8c-4.5,3.5-9.9,5.7-15.8,6.4V167.9z M391.4,178.5l-15.9-15.9H398C397.3,168.6,394.9,174,391.4,178.5z M375.5,155.1
			l15.9-15.9c3.6,4.5,6,9.9,6.7,15.9H375.5z M370.2,149.7v-22.2c5.9,0.6,11.3,2.9,15.8,6.4L370.2,149.7z M362.7,149.7l-15.5-15.5
			c4.4-3.5,9.7-5.8,15.5-6.6V149.7z M341.9,139.7l14.2,14.2h-20.3C336.6,148.6,338.8,143.7,341.9,139.7L341.9,139.7z M366.8,204
			c-8.9,0-17.3-2.6-24.3-7.1l4.1-4.7c5.9,3.6,12.8,5.7,20.2,5.7c21.5,0,39-17.5,39-39s-17.5-39-39-39c-19.8,0-36.2,14.8-38.7,34
			h-6.2c2.5-22.6,21.7-40.2,44.9-40.2c24.9,0,45.2,20.3,45.2,45.2C412,183.7,391.7,204,366.8,204L366.8,204z"/>
		<path class="st8" d="M226.5,184.9c-7.2,0-14.3,0-21.5,0c-3.5,0-6.3-2.8-6.3-6.3c0-3.5,2.8-6.3,6.3-6.3h0c15.1,0,30.2,0,44.9,0h0
			c3.5,0,6.3,2.8,6.3,6.3c0,3.5-2.8,6.3-6.3,6.3C242.2,184.9,234.4,184.9,226.5,184.9L226.5,184.9z"/>
		<path class="st8" d="M186,184.9h-5.5c-3.5,0-6.3-2.8-6.3-6.3s2.8-6.3,6.3-6.3h5.5c3.5,0,6.3,2.8,6.3,6.3S189.5,184.9,186,184.9z"
			/>
		<g>
			<path class="st7" d="M254.3,245.6c-0.8,0-1.6-0.2-2.3-0.8c-1.7-1.3-2-3.6-0.7-5.3l5.4-7.1c1.3-1.7,3.6-2,5.3-0.7
				c1.7,1.3,2,3.6,0.7,5.3l-5.4,7.1C256.5,245,255.4,245.6,254.3,245.6z"/>
			<path class="st7" d="M270.2,226c-0.8,0-1.6-0.2-2.3-0.8c-1.7-1.3-2-3.6-0.7-5.3l5.4-7.1c1.3-1.7,3.6-2,5.3-0.7
				c1.7,1.3,2,3.6,0.7,5.3l-5.4,7.1C272.4,225.5,271.3,226,270.2,226L270.2,226z"/>
		</g>
	</g>
</g>
</svg>
