<?xml version="1.0" encoding="utf-8"?>
<!-- Generator: Adobe Illustrator 23.0.1, SVG Export Plug-In . SVG Version: 6.00 Build 0)  -->
<svg version="1.1" id="Capa_1" xmlns="http://www.w3.org/2000/svg" xmlns:xlink="http://www.w3.org/1999/xlink" x="0px" y="0px"
	 viewBox="0 0 512 512" style="enable-background:new 0 0 512 512;" xml:space="preserve">
<style type="text/css">
	.st0{fill:#FFFFFF;}
	.st1{fill:#FAF1A9;}
	.st2{fill:#DFB5A7;}
	.st3{fill:#E1BDFC;}
	.st4{fill:#F6E06E;}
	.st5{fill:#DDA86A;}
	.st6{fill:#3C122C;}
</style>
<g>
	<g>
		<path class="st0" d="M408.6,277.3l-17-84c-1.6-7.2-8-14.5-19.6-14.5h-26.4l0.5-12.2c0.4-10.1-7.3-18.8-17.4-19.4l-147.9-9.5
			c-4-0.3-6.7,4-4.7,7.5l24.8,44c-10.6,71-24.8,138.9-13.1,185.6c2.9,11.6,13.3,19.8,25.2,19.8c30.2,0.2,89.8,0.4,120.1,0.3
			c12-0.1,22.3-8.2,25.2-19.8c10.8-43.2-0.5-104.6-10.6-169.7h9.2c6.3,0,11.6,4.4,12.8,10.6l12.8,66.4c1.2,6.4,6.8,10.8,13,10.8
			c0.8,0,1.7-0.1,2.5-0.2C405.3,291.5,410,284.5,408.6,277.3z"/>
		<path class="st1" d="M201.1,188c-10.6,71.4-25,139.8-13.3,186.8c2.9,11.6,13.3,19.8,25.2,19.8c30.2,0.2,89.8,0.4,120.1,0.3
			c12-0.1,22.3-8.2,25.2-19.8c11.8-47-2.6-115.5-13.2-187.1H201.1z"/>
		<path class="st2" d="M315.7,189.7c8.5,58.3,18.8,113.5,9.6,152c-2.4,10-10.9,17-20.7,17c-24.8,0.1-73.6-0.1-98.4-0.2
			c-9.8-0.1-18.3-7.1-20.7-17c-0.9-3.7-1.6-7.5-2.1-11.5c-0.2,16.4,1,31.5,4.3,44.9c2.9,11.6,13.3,19.8,25.2,19.8
			c30.2,0.2,89.8,0.4,120.1,0.3c12-0.1,22.3-8.2,25.2-19.8c11.7-46.7-2.4-114.5-13-185.4L315.7,189.7z"/>
		<path class="st3" d="M315.4,162.6l-0.8,19.3c0.3,2.1,0.6,4.1,0.9,6.2h29.8l0.9-21.4c0.4-10.1-7.3-18.8-17.4-19.4l-29.2-1.9v0.4
			l1.5,0.1C309.4,146.5,315.7,153.9,315.4,162.6z"/>
		<path class="st0" d="M214.5,338.1l-15.1-19.8c-3.8-5-2.8-12.1,2.2-15.9l19.2-14.6c5-3.8,12.1-2.8,15.9,2.2l15.1,19.8
			c3.8,5,2.8,12.1-2.2,15.9l-19.2,14.6C225.4,344.1,218.3,343.1,214.5,338.1z"/>
		<ellipse class="st4" cx="308.2" cy="340.3" rx="41.5" ry="41.5"/>
		<path class="st5" d="M328.9,304.3c0.1,13.6-0.9,26.2-3.6,37.3c-2.4,10-10.9,17-20.7,17c-8.9,0-20.8,0-33.6,0
			c6.8,13.7,20.9,23.1,37.2,23.1c22.9,0,41.5-18.6,41.5-41.5C349.7,324.9,341.3,311.5,328.9,304.3L328.9,304.3z"/>
		<circle class="st1" cx="308.2" cy="340.3" r="29.9"/>
		<path class="st2" d="M328.5,318.4c-0.5,8.3-1.5,16-3.2,23.2c-2.4,10-10.9,17-20.7,17c-5.6,0-12.4,0-19.9,0
			c5.5,6.9,13.9,11.4,23.5,11.4c16.5,0,29.9-13.4,29.9-29.9C338,331.7,334.4,323.9,328.5,318.4z"/>
		<circle class="st4" cx="245.8" cy="257.6" r="40.8"/>
		<circle class="st1" cx="245.8" cy="257.6" r="29.4"/>
		<path class="st0" d="M304.2,281.6l-19.1-16c-4.8-4-5.5-11.2-1.4-16l15.4-18.5c4-4.8,11.2-5.5,16-1.4l19.1,16
			c4.8,4,5.5,11.2,1.4,16l-15.4,18.5C316.1,285,309,285.6,304.2,281.6z"/>
		<path class="st3" d="M334.1,245.7l-11.6-9.7c1.8,12.4,3.3,24.4,4.5,36l8.6-10.2C339.6,256.9,339,249.7,334.1,245.7z"/>
		<path class="st0" d="M229.8,362.1l2.6-24.8c0.6-6.2,6.2-10.8,12.5-10.1l23.9,2.5c6.2,0.6,10.8,6.2,10.1,12.5l-2.6,24.8
			c-0.6,6.2-6.2,10.8-12.5,10.1l-23.9-2.5C233.7,373.9,229.2,368.3,229.8,362.1L229.8,362.1z"/>
		<path class="st3" d="M240,374.6l23.8,2.5c6.3,0.6,11.9-3.9,12.5-10.2l0.8-8.1c-15.2,0-32.2-0.1-47-0.1l-0.4,3.4
			C229.2,368.3,233.7,373.9,240,374.6L240,374.6z"/>
		<path class="st4" d="M117.6,377.8c16,16.9,40.3,21.3,60.4,12.7c0.7-0.3,1.5-0.2,2,0.4c0,0,0,0,0.1,0.1c5.9,6.3,16.3,6.1,23.2-0.4
			c6.9-6.5,7.6-16.9,1.7-23.1c0,0,0,0-0.1-0.1c-0.5-0.5-0.6-1.3-0.3-2c9.7-19.6,6.7-44.1-9.3-61c-16-16.9-40.3-21.3-60.4-12.7
			c-0.7,0.3-1.5,0.1-2-0.4c0,0,0,0,0,0c-5.9-6.3-16.3-6.1-23.2,0.4c-6.9,6.5-7.6,16.9-1.7,23.1c0,0,0,0,0,0c0.5,0.5,0.6,1.3,0.3,2
			C98.6,336.4,101.6,360.9,117.6,377.8L117.6,377.8z"/>
		<path class="st5" d="M204.9,367.3c-0.5-0.5-0.6-1.3-0.3-2c9.7-19.6,6.7-44.1-9.3-61c-15-15.8-37.1-20.7-56.3-14.3
			c12.2,0.8,28.4-0.1,39.7,11.9c7.8,8.4,20,43.7-1.7,63.3s-48.3,8-60.9-5.4c-8.5-9-12.4-20.7-11.7-32.1
			c-4.2,17.2,0.2,36.2,13.3,50.1c16,16.9,40.3,21.3,60.4,12.7c0.7-0.3,1.5-0.2,2,0.4c0,0,0,0,0.1,0.1c5.9,6.3,16.3,6.1,23.2-0.4
			S210.9,373.7,204.9,367.3C205,367.4,204.9,367.4,204.9,367.3L204.9,367.3z"/>
		<path class="st1" d="M130.6,161.5l5.1,14.5c0.2,0.6,0.7,1.1,1.2,1.4l12.8,5.8c1.8,0.8,1.8,3.7,0,4.5l-12.8,5.8
			c-0.5,0.2-1,0.7-1.2,1.4l-5.1,14.5c-0.7,2-3.3,2-4,0l-5.1-14.5c-0.2-0.6-0.7-1.1-1.2-1.4l-12.8-5.8c-1.8-0.8-1.8-3.7,0-4.5
			l12.8-5.8c0.5-0.2,1-0.7,1.2-1.4l5.1-14.5C127.3,159.5,129.9,159.5,130.6,161.5z"/>
		<circle class="st4" cx="320.8" cy="98.4" r="11.2"/>
		<circle class="st4" cx="201.5" cy="105.9" r="4.8"/>
		<path class="st1" d="M383.5,110.1l3.8,10.7c0.2,0.5,0.5,0.8,0.9,1l9.5,4.3c1.3,0.6,1.3,2.8,0,3.4l-9.5,4.3c-0.4,0.2-0.7,0.5-0.9,1
			l-3.8,10.7c-0.5,1.5-2.4,1.5-3,0l-3.8-10.7c-0.2-0.5-0.5-0.8-0.9-1l-9.5-4.3c-1.3-0.6-1.3-2.8,0-3.4l9.5-4.3
			c0.4-0.2,0.7-0.5,0.9-1l3.8-10.7C381,108.6,382.9,108.6,383.5,110.1z"/>
	</g>
	<g>
		<g>
			<path class="st6" d="M414.8,276l-17-84l0-0.1c-2.2-9.6-11-19.3-25.7-19.3h-19.9l0.2-5.6c0.6-13.4-9.9-25.1-23.3-25.9l-147.9-9.5
				c-4.1-0.3-8.1,1.8-10.3,5.3c-2.2,3.5-2.3,8-0.3,11.6l23.7,42.1c-1.5,10.3-3.2,20.6-4.8,30.6c-3.5,22.4-7,44.3-9.4,65.2
				c-14.1-6.2-30.4-7-45.2-1.5c-3.8-2.9-8.5-4.5-13.5-4.4c-5.9,0.1-11.7,2.5-16.1,6.7c-4.5,4.2-7.2,9.8-7.6,15.7
				c-0.4,5,0.9,9.8,3.6,13.8c-9.6,21.9-5,47.9,11.6,65.5c16.7,17.6,42.4,23.6,64.7,15.2c3.7,2.9,8.3,4.4,13.2,4.4c0.1,0,0.3,0,0.4,0
				c3.7-0.1,7.4-1,10.7-2.8c3.4,1.2,7.1,1.9,10.8,1.9c25.3,0.1,66.8,0.3,97.9,0.3c8.3,0,15.9,0,22.2,0c14.8-0.1,27.7-10.2,31.3-24.6
				c10.2-40.8,1.4-96.6-7.9-155.7c-0.5-3.1-1-6.2-1.5-9.3h1.8c3.3,0,6.1,2.3,6.7,5.5l12.8,66.4c1.8,9.2,9.8,15.8,19.2,15.8
				c1.2,0,2.5-0.1,3.7-0.4c5.1-1,9.6-3.9,12.5-8.2C414.7,286.4,415.8,281.2,414.8,276L414.8,276z M182.7,144.1l145.7,9.4
				c6.7,0.4,11.9,6.2,11.6,12.9l-0.8,18.6H205.7L182.7,144.1z M191.2,389.3c-2.6,0-4.9-0.9-6.6-2.6c-1.5-1.6-3.6-2.5-5.8-2.5
				c-1.1,0-2.2,0.2-3.2,0.7c-18.2,7.8-39.7,3.3-53.4-11.3c-13.8-14.5-17.1-36.2-8.3-54c1.5-3,1-6.6-1.3-9c0,0,0,0,0,0
				c-1.6-1.7-2.4-4.1-2.3-6.7c0.2-2.8,1.5-5.5,3.7-7.6c2.2-2.1,5-3.2,7.8-3.3c2.6-0.1,4.9,0.9,6.6,2.6c0,0,0,0,0,0
				c2.3,2.4,5.9,3.1,8.9,1.8c18.2-7.8,39.7-3.3,53.4,11.3c13.8,14.5,17.1,36.2,8.3,54c-1.5,3-1,6.7,1.4,9.1
				c3.6,3.8,2.9,10.2-1.5,14.3C196.8,388.1,194,389.2,191.2,389.3L191.2,389.3z M254.5,261.4h16.6c-0.6,4.3-2.4,8.3-4.9,11.7
				L254.5,261.4z M260.8,278.4c-3.4,2.4-7.3,4.1-11.6,4.7v-16.3L260.8,278.4z M249.2,248.6v-16.3c4.3,0.6,8.3,2.2,11.6,4.7
				L249.2,248.6z M254.5,253.9l11.7-11.7c2.5,3.4,4.3,7.3,4.9,11.7H254.5z M245.8,224.5c-18.3,0-33.1,14.9-33.1,33.1
				s14.9,33.1,33.1,33.1c16.5,0,30.2-12.1,32.7-27.9c0.7,1.7,1.7,3.2,3,4.5c-4.3,15.7-18.7,27.3-35.7,27.3c-20.4,0-37-16.6-37-37
				s16.6-37,37-37c16.6,0,30.7,11,35.4,26.1l-0.4,0.4c-1.1,1.3-1.9,2.7-2.5,4.2C275.4,236.1,261.9,224.5,245.8,224.5z M236.4,261.4
				l-11.3,11.3c-2.4-3.3-4-7.1-4.6-11.3H236.4z M220.4,253.9c0.6-4.2,2.2-8,4.6-11.3l11.3,11.3H220.4z M241.7,266.7v16.2
				c-4.2-0.7-8.1-2.4-11.4-4.9L241.7,266.7z M230.3,237.2c3.3-2.5,7.1-4.2,11.4-4.9v16.2L230.3,237.2z M219.4,293.5
				c6.2,4.6,13.6,7.6,21.7,8.4l7.7,10c2.6,3.4,1.9,8.2-1.5,10.7l-1.1,0.8l-0.9-0.1c-4-0.4-8,0.8-11.1,3.3c-3.1,2.5-5.1,6.1-5.5,10.1
				l-0.4,0.3c-3.4,2.6-8.2,1.9-10.7-1.5l-1.6-2.1c-1.4-10.2-5.3-20.1-11.7-28.6L219.4,293.5z M304.1,349.4v16.7
				c-4.4-0.7-8.3-2.5-11.7-5L304.1,349.4z M287.1,355.7c-4.2-5.6-4.6-11.7-4.6-11.7h16.3L287.1,355.7z M292.4,319.5
				c3.4-2.6,7.4-4.3,11.7-5v16.7L292.4,319.5z M298.8,336.5h-16.4c0.6-4.3,2.3-8.3,4.8-11.7L298.8,336.5z M308.2,373.9
				c18.5,0,33.6-15.1,33.6-33.6s-15.1-33.6-33.6-33.6c-14.5,0-26.9,9.2-31.6,22.2c-1.1-0.8-2.3-1.5-3.6-2
				c5.4-14.2,19.2-24.3,35.3-24.3c20.8,0,37.7,16.9,37.7,37.7S329,378,308.2,378c-11.1,0-21-4.8-27.9-12.4l0.6-5.8
				C286.9,368.4,296.9,373.9,308.2,373.9L308.2,373.9z M316.9,336.5l12.1-12.1c2.6,3.4,4.4,7.6,5.1,12.1H316.9z M334,344.1
				c-0.6,4.5-2.4,8.6-5.1,12l-12-12H334z M311.6,331.2v-16.8c4.4,0.6,8.6,2.3,12,4.8L311.6,331.2z M323.6,361.4
				c-3.5,2.5-7.6,4.2-12,4.8v-16.8L323.6,361.4z M273.5,336.2c1.4,1.8,1.8,4.1,1.6,6.1l-2.5,24.2c-0.4,4.2-4.2,7.3-8.4,6.8
				l-23.8-2.5c-4.2-0.4-7.3-4.2-6.8-8.4l2.6-24.7c0.2-2,1.2-3.9,2.8-5.2c1.4-1.1,3.1-1.7,4.8-1.7c0.3,0,24.6,2.5,24.6,2.5
				C270.4,333.6,272.2,334.6,273.5,336.2L273.5,336.2z M352.2,373.6c-2.2,8.8-10.1,15.1-19.2,15.1c-29.9,0.1-120.3-0.3-120.5-0.3
				c3.8-7.4,3.5-16.2-1.1-22.9c2.9-6.7,4.5-13.9,4.9-21c1.6,0.9,4.1,1.5,5.9,1.8c2.2,0.1,4.1-0.2,5.4-0.5l-1.7,15.9
				c-0.4,4,0.8,8,3.3,11.1c2.6,3.1,6.2,5.1,10.2,5.5l23.8,2.5c0.5,0.1,1.1,0.1,1.6,0.1c5.3,0,10.1-2.8,12.8-7.1
				c8,7.3,18.7,11.8,30.4,11.8c25,0,45.2-20.3,45.2-45.2S333.1,295,308.2,295c-19.8,0-36.7,12.8-42.8,30.5l-9.8-1
				c3.2-5.2,3-12-0.9-17.1l-4.2-5.5c17.2-1.8,31.5-13.5,37.2-29.2l14,11.7c2.8,2.3,7.4,3.8,11.1,3.5c4-0.4,7.7-2.3,10.3-5.4
				l15.4-18.4c2.6-3.1,3.8-7,3.5-11.1c-0.4-4-2.3-7.7-5.4-10.3l-19-15.9c-3.1-2.6-7-3.8-11.1-3.5c-4,0.4-7.7,2.3-10.3,5.4l-9.4,11.3
				c-6.8-15.9-22.6-27-40.9-27c-24.6,0-44.5,20-44.5,44.5c0,11.9,4.7,22.8,12.4,30.8l-14.3,10.9c0,0-0.1,0-0.1,0.1
				c-2.2-2.3-4.6-4.4-7.2-6.3c2.3-22.2,6.1-45.9,9.9-70.1c1.6-10,3.2-20.3,4.7-30.6h132.6c1.5,10.3,3.2,20.5,4.7,30.5
				C353.2,280.7,361.9,335.3,352.2,373.6L352.2,373.6z M286.6,252l15.4-18.4c1.3-1.6,3.2-2.5,5.2-2.7c2-0.2,4,0.4,5.6,1.8l19,15.9
				c1.6,1.3,2.5,3.2,2.7,5.2c0.2,2-0.4,4-1.8,5.6l-15.4,18.4c-1.3,1.6-3.2,2.5-5.2,2.7c-2,0.2-4-0.4-5.6-1.8l-19-15.9
				c-1.6-1.3-2.5-3.2-2.7-5.2C284.6,255.5,285.2,253.6,286.6,252z M401.4,283.7c-1.1,1.6-2.6,2.6-4.5,3c-0.4,0.1-0.9,0.1-1.4,0.1
				c-3.4,0-6.3-2.4-6.9-5.7l-12.8-66.4c-1.8-9.1-9.7-15.7-19-15.7h-3.8c-0.5-3.5-1.1-6.9-1.6-10.4l0.2-3.7h20.4
				c8.3,0,12.4,4.9,13.5,9.5l17,83.9C402.8,280.3,402.5,282.2,401.4,283.7z"/>
			<path class="st0" d="M123.8,333.6c-0.6,0-1.1-0.1-1.7-0.2c-3.3-0.9-5.3-4.4-4.4-7.7c0.5-2,1.2-4,2-6c1.3-3.2,5-4.7,8.2-3.4
				c3.2,1.3,4.7,5,3.4,8.2c-0.6,1.5-1.1,3-1.6,4.5C129.1,331.8,126.6,333.6,123.8,333.6z"/>
			<path class="st0" d="M126.1,360.3c-2.3,0-4.5-1.2-5.6-3.4c-1.7-3.3-3-6.7-4-10.2c-1-3.3,0.9-6.8,4.3-7.8c3.3-1,6.8,0.9,7.8,4.3
				c0.8,2.7,1.9,5.4,3.2,7.9c1.6,3.1,0.4,6.8-2.7,8.4C128.1,360.1,127.1,360.3,126.1,360.3L126.1,360.3z"/>
			<g>
				<path class="st6" d="M171.5,353.6c-2.1,0-3.7-1.7-3.8-3.7l0-3.6c0-2.1,1.7-3.8,3.7-3.8h0c2.1,0,3.7,1.7,3.8,3.7l0,3.6
					C175.3,351.8,173.6,353.5,171.5,353.6C171.5,353.6,171.5,353.6,171.5,353.6z"/>
				<path class="st6" d="M186.7,337.5c-2.1,0-3.7-1.7-3.8-3.7l0-3.6c0-2.1,1.7-3.8,3.7-3.8h0c2.1,0,3.7,1.7,3.8,3.7l0,3.6
					C190.5,335.8,188.8,337.5,186.7,337.5C186.7,337.5,186.7,337.5,186.7,337.5z"/>
				<path class="st6" d="M183.6,365.2c-2.1,0-3.7-1.7-3.8-3.7l0-3.6c0-2.1,1.7-3.8,3.7-3.8h0c2.1,0,3.7,1.7,3.8,3.7l0,3.6
					C187.4,363.5,185.7,365.2,183.6,365.2C183.6,365.2,183.6,365.2,183.6,365.2z"/>
			</g>
		</g>
	</g>
</g>
</svg>
