<?xml version="1.0" encoding="utf-8"?>
<!-- Generator: Adobe Illustrator 23.0.1, SVG Export Plug-In . SVG Version: 6.00 Build 0)  -->
<svg version="1.1" id="Capa_1" xmlns="http://www.w3.org/2000/svg" xmlns:xlink="http://www.w3.org/1999/xlink" x="0px" y="0px"
	 viewBox="0 0 512 512" style="enable-background:new 0 0 512 512;" xml:space="preserve">
<style type="text/css">
	.st0{fill:#F4DAB5;}
	.st1{fill:#DBA2B3;}
	.st2{fill:#A1E8C3;}
	.st3{fill:#9781DD;}
	.st4{fill:#CCF3E2;}
	.st5{fill:#FFFFFF;}
	.st6{fill:#E1BDFC;}
	.st7{fill:#85ADC2;}
	.st8{fill:#F6E06E;}
	.st9{fill:#DDA86A;}
	.st10{fill:#B1B6E1;}
	.st11{fill:#CDF4E3;}
	.st12{fill:#A2E9C4;}
	.st13{fill:#3C122C;}
</style>
<g>
	<g>
		<path class="st0" d="M298.1,402.1h-98.7c-12.6,0-22.9-9.8-23.7-22.3l-11.5-194.6h169.1l-11.5,194.6
			C321,392.4,310.6,402.1,298.1,402.1L298.1,402.1z"/>
		<path class="st1" d="M307.3,206.7c-2.8,9.7-5.6,19.5-8.4,29.2L292.4,351c-0.6,10.7-9.1,19-19.3,19h-80.3
			c-8.8,0-16.3-6.2-18.6-14.7l1.5,24.5c0.7,12.5,11.1,22.3,23.7,22.3h98.7c12.6,0,22.9-9.8,23.7-22.3L332,206.7L307.3,206.7z"/>
		<path class="st2" d="M244.7,122.2c0,0-27.3,9.5-37.1,31.2c-0.7-0.7-1.5-1.4-2.3-2.1c-18.6-16-48.6-11.6-48.6-11.6
			s0.2,30.3,18.8,46.3c12.9,11.1,26.8,14.5,35.7,13.3c0.4,0.2,0.8,0.4,1.2,0.6c8.1,2.7,27.7-5.1,36.9-27.8
			C258.5,149.2,244.7,122.2,244.7,122.2z"/>
		<g>
			<path class="st3" d="M325.6,98.9c-5-1.3-10.2,1.7-11.5,6.7l-18.7,70.6h19.5l17.4-65.7C333.6,105.4,330.6,100.3,325.6,98.9
				L325.6,98.9z"/>
			<path class="st3" d="M292.7,259.9l14.2-53.7h-19.5l-16.5,62.5c0.8,0.6,1.6,1.2,2.4,1.9C279.5,266.4,286,263,292.7,259.9
				L292.7,259.9z"/>
			<path class="st3" d="M271.7,321c-4.8,2.7-10.4,3.7-15.2,1.9l-12.3,46.5c-1.3,5,1.7,10.2,6.7,11.5c0.8,0.2,1.6,0.3,2.4,0.3
				c4.2,0,8-2.8,9.1-7l15.3-57.9C276,318.1,273.9,319.7,271.7,321L271.7,321z"/>
		</g>
		<path class="st4" d="M237.7,361.1c-6.4,5.6-26.5,1.5-41.5-17.9c-15-19.4-9.1-49.1-9.1-49.1s30.2,1.8,45.2,21.2
			C247.4,334.6,244.1,355.5,237.7,361.1z"/>
		<path class="st4" d="M256.4,312.3c-5.9-6.1-2.7-26.4,16-42.3c18.7-15.9,48.6-11.3,48.6-11.3s-0.4,30.3-19.1,46.2
			C283.3,320.7,262.3,318.4,256.4,312.3z"/>
		<path class="st5" d="M236.6,371.8l-24,13.9c-5.3,3.1-12.2,1.3-15.3-4.1l-13.4-23.3c-3.1-5.3-1.3-12.2,4.1-15.3l24-13.9
			c5.3-3.1,12.2-1.3,15.3,4.1l13.4,23.3C243.8,361.9,242,368.7,236.6,371.8z"/>
		<path class="st6" d="M212.7,385.7l23.9-13.8c0.9-0.5,1.7-1.1,2.4-1.8h-46.1c-0.8,0-1.5-0.1-2.3-0.1l6.7,11.6
			C200.4,386.9,207.3,388.8,212.7,385.7L212.7,385.7z"/>
		<path class="st2" d="M299.9,309.8c19.6,17.2,21.5,47.1,4.3,66.6c-17.2,19.6-47.1,21.5-66.6,4.3L299.9,309.8z"/>
		<path class="st7" d="M299.9,309.8l-5.5,6.2l-2,35c-0.6,10.7-9.1,19-19.3,19h-26.3l-9.4,10.7c19.6,17.2,49.4,15.3,66.6-4.3
			C321.3,356.9,319.4,327.1,299.9,309.8z"/>
		<path class="st8" d="M289.5,321.7c13,11.5,14.3,31.4,2.8,44.4c-11.5,13-31.4,14.3-44.4,2.8L289.5,321.7z"/>
		<path class="st9" d="M293.8,326.3l-1.4,24.7c-0.6,10.7-9.1,19-19.3,19h-23.9c13,10.2,32,8.6,43-4
			C302.3,354.7,302.6,338,293.8,326.3L293.8,326.3z"/>
		
			<ellipse transform="matrix(8.248051e-02 -0.9966 0.9966 8.248051e-02 -64.9415 456.2328)" class="st2" cx="215.3" cy="263.4" rx="41.3" ry="41.3"/>
		<ellipse class="st8" cx="215.3" cy="263.4" rx="26.9" ry="26.9"/>
		<path class="st5" d="M255.2,321.3L232.1,302c-4.7-4-5.4-11-1.4-15.7l18.7-22.4c4-4.7,11-5.4,15.7-1.4l23.1,19.3
			c4.7,4,5.4,11,1.4,15.7l-18.7,22.4C267,324.6,260,325.3,255.2,321.3L255.2,321.3z"/>
		<path class="st5" d="M326.8,206.4H170.7c-8.1,0-14.7-6.6-14.7-14.7v-0.8c0-8.1,6.6-14.7,14.7-14.7h156.2c8.1,0,14.7,6.6,14.7,14.7
			v0.8C341.5,199.8,335,206.4,326.8,206.4z"/>
		<path class="st10" d="M297.6,259.2l-2.9,50.9c2.4-1.5,4.9-3.2,7.2-5.2c18.7-15.9,19.1-46.2,19.1-46.2S310.2,257.1,297.6,259.2
			L297.6,259.2z"/>
		<path class="st11" d="M375.4,131.7l5.2,14.5c0.2,0.6,0.7,1.1,1.2,1.4l12.9,5.8c1.8,0.8,1.8,3.7,0,4.6l-12.9,5.8
			c-0.6,0.2-1,0.7-1.2,1.4l-5.2,14.5c-0.7,2.1-3.3,2.1-4,0l-5.2-14.5c-0.2-0.6-0.7-1.1-1.2-1.4L352,158c-1.8-0.8-1.8-3.7,0-4.6
			l12.9-5.8c0.6-0.2,1-0.7,1.2-1.4l5.2-14.5C372.1,129.6,374.6,129.6,375.4,131.7L375.4,131.7z"/>
		<ellipse class="st12" cx="191.9" cy="106.6" rx="11.3" ry="11.3"/>
		<circle class="st12" cx="390.9" cy="223" r="4.9"/>
		<path class="st11" d="M125.5,203.5l3.8,10.8c0.2,0.5,0.5,0.8,0.9,1l9.6,4.3c1.4,0.6,1.4,2.8,0,3.4l-9.6,4.3
			c-0.4,0.2-0.7,0.6-0.9,1l-3.8,10.8c-0.5,1.5-2.5,1.5-3,0l-3.8-10.8c-0.2-0.5-0.5-0.8-0.9-1l-9.6-4.3c-1.4-0.6-1.4-2.8,0-3.4
			l9.6-4.3c0.4-0.2,0.7-0.6,0.9-1l3.8-10.8C123,202,125,202,125.5,203.5L125.5,203.5z"/>
	</g>
	<g>
		<path class="st13" d="M326.7,169.9h-6.3l15.5-58.5c1.9-7-2.3-14.2-9.3-16.1c-3.4-0.9-6.9-0.4-10,1.3c-3,1.8-5.2,4.6-6.1,8
			l-17.3,65.2H254c7.2-23.2-5.5-48.2-6-49.3c-0.8-1.6-2.8-2.4-4.5-1.8c-1.1,0.4-25.4,9-37,28.7c-19.7-15.7-49.1-11.6-50.3-11.5
			c-1.8,0.3-3.2,1.8-3.2,3.7c0,0.9,0.2,17.3,7.8,32.7c-6.6,3.6-11,10.5-11,18.5v0.6c0,7.4,3.9,13.9,9.7,17.7l10.1,171
			c0.9,15.8,14,28.1,29.8,28.1h98.7c15.8,0,28.9-12.4,29.8-28.1l10.1-171c5.8-3.7,9.7-10.3,9.7-17.7v-0.6
			C347.7,179.3,338.3,169.9,326.7,169.9L326.7,169.9z M317.6,106.6c0.4-1.5,1.3-2.7,2.7-3.5c0.9-0.5,1.9-0.8,2.9-0.8
			c0.5,0,1,0.1,1.5,0.2c3.1,0.8,4.9,4,4.1,7l-16,60.4h-11.9L317.6,106.6z M242.7,127c3.1,7.3,9.6,26.4,3.4,42.9h-17.4l6.1-14.9
			c0.8-1.9-0.1-4.1-2-4.8c-1.9-0.8-4.1,0.1-4.8,2l-7.2,17.7h-14.1c0.6-4.2,1.8-8.8,3.7-13.6C217,139.7,235.4,130.2,242.7,127
			L242.7,127z M160.6,143c8-0.5,28.7-0.6,42.3,11.1c0.1,0.1,0.2,0.2,0.3,0.3c-2.1,5.4-3.3,10.7-3.9,15.5h-2.7l-12-10.4
			c-1.5-1.3-3.9-1.2-5.2,0.4c-1.3,1.5-1.2,3.9,0.4,5.2l5.5,4.8h-14.4c-1,0-1.9,0.1-2.9,0.2C162.6,159.8,161,148.5,160.6,143
			L160.6,143z M172,212.6h109.9L269.1,261l-1.5-1.2c-2.3-1.9-5.1-3-7.8-3.4c-3.4-21.5-22-38-44.4-38c-18.5,0-34.5,11.2-41.4,27.3
			L172,212.6z M230.5,331.5c-2-3.5-5.2-5.9-9.1-7c-2.3-0.6-4.7-0.7-7-0.2l-4-5.3c-1.2-1.6-3.6-1.9-5.2-0.7c-1.6,1.2-1.9,3.6-0.7,5.2
			l3,3.9l-12.3,7.1c-6-12-5.9-26.2-5.2-34c7.2,4.9,15.9,7.8,25.3,7.8c1.3,0,2.6-0.1,3.9-0.2c3.8,2.5,7.4,5.5,10.3,9.3
			c8.1,10.5,10.3,21.2,9.8,29.1L230.5,331.5z M234.7,368.7l-23.9,13.8c-3.6,2.1-8.2,0.8-10.3-2.8l-13.3-23.1
			c-2.1-3.6-0.8-8.2,2.8-10.3l23.9-13.8c1.2-0.7,2.5-1,3.8-1c0.7,0,1.3,0.1,2,0.3c2,0.5,3.6,1.8,4.6,3.5l13.3,23.1
			C239.6,362,238.3,366.6,234.7,368.7L234.7,368.7z M268.2,317.5c-1.3,1.5-3.1,2.5-5.1,2.7c-2,0.2-4-0.4-5.5-1.7l-22.9-19.2
			c-1.5-1.3-2.5-3.1-2.7-5.1c-0.2-2,0.4-4,1.7-5.5l18.6-22.2c1.3-1.5,3.1-2.5,5.1-2.7c0.2,0,0.5,0,0.7,0c1.8,0,3.5,0.6,4.8,1.8
			l22.9,19.2c1.5,1.3,2.5,3.1,2.7,5.1c0.2,2-0.4,4-1.7,5.5L268.2,317.5z M280.8,319.6c2.3-0.5,4.9-1.2,7.5-2.3l-9.9,11.3
			L280.8,319.6z M230.1,281.3c-4,3.3-9.2,5.3-14.8,5.3c-12.8,0-23.2-10.4-23.2-23.2s10.4-23.2,23.2-23.2s23.2,10.4,23.2,23.2
			c0,4.1-1.1,8-3,11.4L230.1,281.3z M246.5,261.6l-0.6,0.7c-0.6-16.4-14.1-29.6-30.6-29.6c-16.9,0-30.6,13.7-30.6,30.6
			c0,16.9,13.7,30.6,30.6,30.6c3.2,0,6.3-0.5,9.2-1.4c0,0.7,0,1.4,0,2.2c0.1,1.7,0.6,3.2,1.2,4.7c-3.3,1-6.8,1.5-10.4,1.5
			c-20.7,0-37.6-16.9-37.6-37.6c0-20.7,16.9-37.6,37.6-37.6c18.7,0,34.2,13.7,37.1,31.6C250.2,258.2,248.2,259.7,246.5,261.6
			L246.5,261.6z M235.3,313c-1.9-2.5-4.1-4.7-6.4-6.7c0.6-0.2,1.2-0.4,1.8-0.6l21.7,18.1l-5.7,21.5c0-0.7,0-1.4,0-2
			C246.5,335.9,244.4,324.7,235.3,313z M259.2,327.2c1,0.2,2.1,0.3,3.1,0.3c0.5,0,0.9,0,1.4-0.1c3-0.3,5.9-1.4,8.2-3.4l-4.5,16.9
			l-17,19.3L259.2,327.2z M289.8,326.9c9.1,10.4,9.3,26.2-0.1,36.8c-4.9,5.6-11.8,9-19.2,9.4c-6.2,0.4-12.2-1.2-17.3-4.7
			L289.8,326.9z M282.9,311.3L282.9,311.3l9.5-11.4c2.6-3.1,3.8-6.9,3.4-10.9c-0.1-1.4-0.5-2.8-1-4.1l2.2-1.9
			c1.6-1.3,1.8-3.7,0.4-5.2c-1.3-1.6-3.7-1.8-5.2-0.4l-1.8,1.5l-11.2-9.3c13.3-8.2,30.6-8,37.7-7.5c-0.7,8-3.9,28.4-17.5,40
			C294,306.8,288.3,309.7,282.9,311.3L282.9,311.3z M276.3,262.7l13.3-50.2h11.9l-11.8,44.6C285.1,258.4,280.6,260.2,276.3,262.7
			L276.3,262.7z M176.3,285.9c1.9,3.3,4.2,6.3,6.9,9c-0.9,5.8-3.3,26.3,5.6,43.4l-2.6,1.5c-2.9,1.7-5,4.2-6.3,7L176.3,285.9z
			 M199.4,396c-9.3,0-17-7.3-17.5-16.5l-1.1-19.1l13.3,23.1c2.8,4.8,7.8,7.5,13,7.5c2.5,0,5.1-0.6,7.5-2l22-12.7l-1.9,2.1
			c-1.4,1.5-1.2,3.9,0.3,5.2c8.1,7.1,18,11.4,28.6,12.4H199.4z M242.8,380.3l5.4-6.1c6,4.3,13,6.5,20.4,6.5c0.8,0,1.5,0,2.3-0.1
			c9.4-0.6,18.1-4.8,24.3-11.9c12.1-13.7,11.6-34.2-0.5-47.3l5.4-6.1c15.5,16.1,16.3,41.8,1.2,58.9c-7.7,8.7-18.3,13.9-29.9,14.7
			C261.1,389.4,251,386.4,242.8,380.3L242.8,380.3z M315.6,379.5c-0.5,9.3-8.2,16.5-17.5,16.5h-24.5c12.9-1.2,24.7-7.2,33.4-17
			c4.4-5,7.6-10.6,9.7-16.4L315.6,379.5z M318.3,333.9c-2.2-9.5-7.1-18.5-14.6-25.6c0.2-0.2,0.5-0.4,0.7-0.6
			c9.4-8,14.5-19.2,17.2-28.8L318.3,333.9z M322.9,255.5c-0.4-0.2-0.9-0.4-1.3-0.5c-0.7-0.1-11.3-1.6-23.8,0.3l11.3-42.8h16.4
			L322.9,255.5z M335.4,191.5c0,4.8-3.9,8.7-8.7,8.7H170.8c-4.8,0-8.7-3.9-8.7-8.7v-0.6c0-4.8,3.9-8.7,8.7-8.7h155.9
			c4.8,0,8.7,3.9,8.7,8.7V191.5z"/>
		<g>
			<path class="st5" d="M191.9,295.3c-3.1,0-5.8-2.3-6.1-5.5c-0.6-5.6-0.7-11-0.9-16.2c-0.1-5.1-0.2-9.9-0.8-14.8
				c-0.4-3.4,2.1-6.4,5.5-6.8c3.4-0.4,6.4,2.1,6.8,5.5c0.6,5.4,0.7,10.7,0.8,15.8c0.1,5.2,0.2,10.1,0.8,15.2
				c0.4,3.4-2.1,6.4-5.5,6.8C192.3,295.3,192.1,295.3,191.9,295.3L191.9,295.3z"/>
			<path class="st5" d="M189.2,245.5c-3.3,0-6-2.6-6.2-5.8l-0.6-11.1c-0.2-3.4,2.4-6.3,5.8-6.5c3.4-0.2,6.3,2.4,6.5,5.8l0.6,11.1
				c0.2,3.4-2.4,6.3-5.8,6.5C189.5,245.5,189.4,245.5,189.2,245.5L189.2,245.5z"/>
		</g>
	</g>
</g>
</svg>
