<?xml version="1.0" encoding="utf-8"?>
<!-- Generator: Adobe Illustrator 23.0.1, SVG Export Plug-In . SVG Version: 6.00 Build 0)  -->
<svg version="1.1" id="Capa_1" xmlns="http://www.w3.org/2000/svg" xmlns:xlink="http://www.w3.org/1999/xlink" x="0px" y="0px"
	 viewBox="0 0 512 512" style="enable-background:new 0 0 512 512;" xml:space="preserve">
<style type="text/css">
	.st0{fill:#FFFFFF;}
	.st1{fill:#D789B9;}
	.st2{fill:#F6E06E;}
	.st3{fill:#FAF1A9;}
	.st4{fill:#E8A284;}
	.st5{fill:#EFC5B4;}
	.st6{fill:#C668B9;}
	.st7{fill:#D57B84;}
	.st8{fill:#D994B3;}
	.st9{fill:#E1BDFC;}
	.st10{fill:#DDA86A;}
	.st11{fill:#DFB5A7;}
	.st12{fill:#E8C2D8;}
	.st13{fill:#3C122C;}
</style>
<g>
	<g>
		<path class="st0" d="M354.3,143.2l-141.7,9.1c-9.7,0.6-17.1,8.9-16.7,18.6l0.5,11.7h-25.3c-11.1,0-17.2,7-18.8,13.9l-16.3,80.5
			c-1.3,6.9,3.2,13.6,10.1,14.9c0.8,0.2,1.6,0.2,2.4,0.2c6,0,11.3-4.2,12.5-10.3l12.3-63.6c1.1-5.9,6.3-10.1,12.3-10.1h8.8
			c-9.7,62.4-20.6,121.2-10.2,162.6c2.8,11.1,12.7,18.9,24.2,19c29,0.1,86.1-0.1,115.1-0.3c11.5-0.1,21.4-7.9,24.2-19
			c11.2-44.8-2.5-109.8-12.6-177.8l23.7-42.2C360.7,147,358.1,142.9,354.3,143.2L354.3,143.2z"/>
		<path class="st1" d="M334.9,191.4c10.1,68.4,24,133.9,12.8,179c-2.8,11.1-12.7,18.9-24.2,19c-29,0.1-86,0.4-115.1,0.3
			c-11.5-0.1-21.4-7.9-24.2-19c-11.3-45.1,2.5-110.7,12.7-179.3L334.9,191.4z"/>
		<path class="st0" d="M318.4,335.8l11.3-14.8c3.6-4.8,2.7-11.6-2.1-15.3l-14.2-10.8c-4.8-3.6-11.6-2.7-15.3,2.1l-11.3,14.8
			c-3.6,4.8-2.7,11.6,2.1,15.3l14.2,10.8C308,341.5,314.8,340.6,318.4,335.8z"/>
		<ellipse transform="matrix(0.29 -0.957 0.957 0.29 -13.5813 460.0282)" class="st2" cx="303.3" cy="239.2" rx="35.1" ry="35.1"/>
		<ellipse class="st3" cx="303.2" cy="239.2" rx="25.3" ry="25.3"/>
		<ellipse class="st2" cx="229.9" cy="328.6" rx="35.1" ry="35.1"/>
		<ellipse class="st3" cx="230.2" cy="328.7" rx="25.3" ry="25.3"/>
		<path class="st0" d="M242.7,250.1l14.3-11.9c4.6-3.9,5.2-10.7,1.4-15.3l-11.5-13.7c-3.9-4.6-10.7-5.2-15.3-1.4l-14.3,11.9
			c-4.6,3.9-5.2,10.7-1.4,15.3l11.5,13.7C231.2,253.4,238.1,254,242.7,250.1L242.7,250.1z"/>
		<path class="st0" d="M269.3,362.9l-1.9-18.5c-0.6-6-6-10.3-12-9.7l-17.8,1.8c-6,0.6-10.3,6-9.7,12l1.9,18.5c0.6,6,6,10.3,12,9.7
			l17.8-1.8C265.6,374.3,270,368.9,269.3,362.9z"/>
		<path class="st4" d="M282.1,305.4c-7.6,3.8-30.4-13.6-33.4-19.4c-2.9-5.8-0.5-15,12.7-21.7c13.2-6.6,21.9-3.4,25,2.7
			C289.5,273.1,289.7,301.6,282.1,305.4L282.1,305.4z"/>
		<path class="st5" d="M257.6,267.2l9.2,18.3c1.2,2.4,4.1,3.3,6.4,2.1c2.4-1.2,3.3-4.1,2.1-6.4l-9.3-18.5"/>
		<path class="st4" d="M198.1,290.9c7.9,4,31.6-14.1,34.7-20.2c3.1-6.1,0.5-15.6-13.2-22.5c-13.7-6.9-22.8-3.5-25.9,2.8
			C190.4,257.4,190.1,286.9,198.1,290.9z"/>
		<path class="st5" d="M223.6,251.3l-9.6,19c-1.2,2.5-4.2,3.4-6.7,2.2c-2.5-1.2-3.4-4.2-2.2-6.7l9.7-19.2"/>
		<path class="st4" d="M336.7,336.3c-5-6.9-33.1-1.9-38.4,1.9c-5.3,3.8-7.3,13.1,1.3,25c8.7,11.9,17.8,13,23.4,9
			C328.5,368.2,341.7,343.2,336.7,336.3L336.7,336.3z"/>
		<path class="st5" d="M297.5,358.8l16.6-12c2.1-1.5,5.1-1.1,6.7,1.1c1.5,2.1,1.1,5.1-1.1,6.7l-16.7,12.1"/>
		<path class="st6" d="M335.1,192.6h-27.7c0.7,4.6,1.3,9.2,2,13.7c11.4,8.5,22.3,21.4,20.8,36.2c-0.9,8.6-3.8,21.1-11.2,27.3
			c1.5,11.6,2.5,22.8,2.9,33.3c4.3,2.5,9.2,4.7,9.5,10.5c0.4,7.2-6.4,11.3-10.3,16.3c-0.1,0.5-0.1,1-0.2,1.5c2,1,3.5,3.1,4.3,5.2
			c1.4,3.4,1.3,7.4,0.8,11c-1,7.3-4.7,14.8-11.3,18.5c-7.3,4.2-12.4-1.1-16.6-6.5c-8,0-18.4,0.1-29.6,0.1
			c-1.1,8.1-9.4,13.2-17.9,13.7c-1.9,0.1-4.1,0.1-6.2-0.1c-3.4,0-6.8-0.6-9.6-2.3c-4.2-2.7-4.7-6.8-5.1-11.1c-10,0-19.1,0-26.2,0
			c-9.5-0.1-17.7-6.9-20-16.7c-1.8-7.5-2.8-15.7-3.2-24.5c-0.8,19.1,0.2,36.6,4,51.8c2.8,11.1,12.7,18.9,24.2,19
			c29,0.1,86.1-0.1,115.1-0.3c11.5-0.1,21.4-7.9,24.2-19C358.8,325.6,345.2,260.6,335.1,192.6L335.1,192.6z"/>
		<path class="st7" d="M320.8,332.9c-0.5,3.5-1.1,6.9-1.9,10.2c-2.3,9.8-10.5,16.7-20,16.7c-0.5,0-0.9,0-1.4,0
			c0.6,1.1,1.4,2.2,2.2,3.3c8.7,11.9,17.8,13,23.4,9c5.5-4,18.7-29,13.7-35.9C334.6,333.3,327.9,332.5,320.8,332.9L320.8,332.9z"/>
		<path class="st8" d="M302.9,366.7l16.7-12.1c2.1-1.5,2.6-4.5,1.1-6.7c-0.7-1-1.7-1.6-2.7-1.8c-3.1,8.2-10.6,13.7-19.1,13.8
			c-0.2,0-0.4,0-0.7,0L302.9,366.7z"/>
		<path class="st9" d="M329.7,321c3.7-4.8,2.7-11.7-2.1-15.3l-5.7-4.4c0.5,11.1,0.2,21.6-1.1,31.4L329.7,321z"/>
		<path class="st9" d="M229.9,367c0.6,6,6,10.4,12,9.7l17.7-1.8c6-0.6,10.4-6,9.7-12L269,360c-13,0.1-27.1,0.1-39.9,0.1L229.9,367z"
			/>
		<path class="st10" d="M309.2,204.5c3.5,23.1,7.4,45.3,9.9,65.9c11.4-5.8,19.2-17.6,19.2-31.3C338.3,221.8,325.7,207.3,309.2,204.5
			L309.2,204.5z"/>
		<path class="st11" d="M310.8,215c2.4,15.5,4.9,30.5,6.9,44.8c6.5-4.6,10.8-12.1,10.8-20.7C328.5,227.8,321,218.2,310.8,215
			L310.8,215z"/>
		<path class="st9" d="M307,189.5c0.1,0.8,0.2,1.6,0.3,2.4h28.1l23.4-41.6c1.9-3.4-0.7-7.5-4.5-7.2l-26.4,1.7c0.9,1.3,1.1,3,0.3,4.6
			L307,189.5z"/>
		<path class="st12" d="M118.7,142.9l5,14.1c0.2,0.6,0.6,1.1,1.2,1.3l12.5,5.6c1.8,0.8,1.8,3.6,0,4.4l-12.5,5.6
			c-0.5,0.2-1,0.7-1.2,1.3l-5,14.1c-0.7,2-3.2,2-3.9,0l-5-14.1c-0.2-0.6-0.6-1.1-1.2-1.3L96,168.4c-1.8-0.8-1.8-3.6,0-4.4l12.5-5.6
			c0.5-0.2,1-0.7,1.2-1.3l5-14.1C115.5,140.9,118,140.9,118.7,142.9z"/>
		<ellipse class="st1" cx="381.2" cy="197.5" rx="11" ry="11"/>
		
			<ellipse transform="matrix(0.1058 -0.9944 0.9944 0.1058 97.8987 351.312)" class="st1" cx="244.3" cy="121.2" rx="4.6" ry="4.6"/>
		<path class="st12" d="M185.2,91l3.7,10.5c0.2,0.4,0.5,0.8,0.9,1l9.3,4.2c1.3,0.6,1.3,2.7,0,3.3l-9.3,4.2c-0.4,0.2-0.7,0.5-0.9,1
			l-3.7,10.5c-0.5,1.5-2.4,1.5-2.9,0l-3.7-10.5c-0.2-0.4-0.5-0.8-0.9-1l-9.3-4.2c-1.3-0.6-1.3-2.7,0-3.3l9.3-4.2
			c0.4-0.2,0.7-0.5,0.9-1l3.7-10.5C182.8,89.5,184.6,89.5,185.2,91z"/>
	</g>
	<g>
		<path class="st13" d="M363.8,142.2c-2.1-3.4-5.9-5.3-9.9-5l-141.7,9.1c-12.8,0.8-22.8,12-22.3,24.8l0.2,5.4h-19
			c-14.1,0-22.5,9.3-24.6,18.5l-16.3,80.7c-2,10.1,4.7,20,14.8,21.9c1.2,0.2,2.4,0.3,3.6,0.3c8.9,0,16.7-6.4,18.4-15.2l12.3-63.6
			c0.6-3.1,3.3-5.3,6.4-5.3h1.8c-0.5,3-0.9,6-1.4,8.9c-8.9,56.6-17.4,110.1-7.6,149.2c3.5,13.8,15.8,23.5,30,23.5
			c6.1,0,13.3,0,21.3,0c29.8,0,69.6-0.2,93.8-0.3c14.2-0.1,26.5-9.8,29.9-23.5c9.7-39,1.3-92.3-7.6-148.8
			c-1.5-9.6-3.1-19.5-4.6-29.4l22.7-40.4C366,149.8,365.9,145.6,363.8,142.2L363.8,142.2z M185.7,202c-8.9,0-16.5,6.3-18.2,15
			l-12.3,63.6c-0.6,3.2-3.4,5.5-6.6,5.5c-0.4,0-0.9,0-1.3-0.1c-3.6-0.7-6-4.2-5.3-7.8l16.3-80.4c1-4.4,4.9-9.1,12.9-9.1h19.6
			l0.2,3.6c-0.5,3.3-1,6.6-1.5,9.9H185.7z M341.9,368.9c-2.1,8.5-9.7,14.4-18.4,14.5c-30.7,0.2-86.4,0.4-115,0.3
			c-8.7,0-16.3-6-18.4-14.5c-5.9-23.6-4.6-53.6-0.6-86.7c1.2,5.2,3.3,9.9,7,11.7c1.3,0.6,2.7,1,4.4,1c4.6,0,10.8-2.5,18.4-7.5
			c6.7-4.4,14.6-11.1,16.7-15.2c2.3-4.6,2.2-10.5-1.4-16.2c0.4,0,0.8,0.1,1.2,0.1c3.4,0,6.7-1.2,9.3-3.4l14.2-11.9
			c3-2.5,4.8-6,5.2-9.9c0.3-3.9-0.8-7.6-3.3-10.6l-11.4-13.7c-2.5-3-6-4.8-9.9-5.2c-3.9-0.3-7.6,0.8-10.6,3.3L215,216.9
			c-3,2.5-4.8,6-5.2,9.9c-0.3,3.9,0.8,7.6,3.3,10.6l5.4,6.5c-10.4-4.5-18.6-3.5-23.7,0.3c1-6.4,2-12.9,3-19.4
			c1.5-9.5,3-19.3,4.5-29.2h127.1c0.9,6,1.8,12,2.8,17.9c-7.1-8-17.5-13.1-29-13.1c-21.3,0-38.7,17.4-38.7,38.7
			c0,6.7,1.7,13,4.8,18.5c-3,0.6-6.1,1.8-9.4,3.4c-6.7,3.4-11.6,7.8-14,12.8c-2.3,4.6-2.4,9.6-0.3,13.7c2,4,9.7,10.5,16.2,14.7
			c7.3,4.8,13.3,7.2,17.8,7.2c1.6,0,3-0.3,4.3-0.9c4.7-2.4,7.4-9.5,8.1-21.3c0.2-3.5,0.2-7.5-0.1-11.2c3.6,1.1,7.4,1.7,11.4,1.7
			c15.8,0,29.4-9.5,35.4-23.1C345.2,298.6,349.3,339,341.9,368.9L341.9,368.9z M219.1,252.1l-8.3,16.6c-0.3,0.7-1.2,1-1.8,0.6
			c-0.4-0.2-0.6-0.6-0.7-0.8c-0.1-0.2-0.1-0.6,0.1-1l8.3-16.6c0.4,0.2,0.8,0.4,1.2,0.6C218.3,251.7,218.7,251.9,219.1,252.1
			L219.1,252.1z M218.7,232.8c-1.3-1.5-1.9-3.4-1.7-5.4c0.2-2,1.1-3.7,2.6-5l14.2-11.9c1.3-1.1,3-1.7,4.7-1.7c0.2,0,0.4,0,0.7,0
			c2,0.2,3.7,1.1,5,2.6l11.4,13.7c1.3,1.5,1.9,3.4,1.7,5.4s-1.1,3.7-2.6,5l-14.2,11.9c-1.5,1.3-3.4,1.9-5.4,1.7
			c-2-0.2-3.7-1.1-5-2.6L218.7,232.8z M201.9,264.2c-1,2-1.2,4.4-0.5,6.5c0.7,2.2,2.2,3.9,4.3,5c1.2,0.6,2.5,0.9,3.8,0.9
			c3.1,0,6.2-1.7,7.7-4.7l7.9-15.7c5.2,4.6,6.1,9.5,4.4,12.9c-1,1.9-6.6,7.4-14.3,12.5c-8.8,5.8-14.1,6.8-15.6,6.1
			c-1.4-0.7-3.8-5.6-4.4-16c-0.6-9.2,0.5-17,1.5-19c1.3-2.6,4.2-4.7,8.9-4.7c1.2,0,2.6,0.1,4.1,0.5L201.9,264.2z M263.6,287.2
			c1.5,2.9,4.4,4.6,7.5,4.6c1.3,0,2.5-0.3,3.8-0.9c4.1-2.1,5.8-7.1,3.7-11.3l-7.5-15c1.3-0.3,2.6-0.4,3.8-0.4c0.8,0,1.6,0.1,2.4,0.2
			c2.9,0.5,5,2,6.1,4.2c1,1.9,2,9.3,1.5,18.2c-0.6,10-2.8,14.7-4.2,15.3c-1.3,0.7-6.4-0.3-14.9-5.9c-7.4-4.8-12.8-10.1-13.7-11.9
			c-1.1-2.1-1-4.7,0.3-7.3c0.7-1.3,1.8-3,3.8-4.8L263.6,287.2z M262,268.1c0.3-0.2,0.7-0.4,1.1-0.6c0.4-0.2,0.7-0.3,1.1-0.5l8,15.8
			c0.3,0.6,0.1,1.3-0.5,1.6c-0.4,0.2-0.7,0.1-0.9,0.1c-0.2-0.1-0.5-0.2-0.7-0.6L262,268.1z M294.8,235.5h-13
			c0.6-3.4,1.9-6.5,3.8-9.1L294.8,235.5z M290.8,221.4c2.7-1.9,5.7-3.1,9.1-3.7v12.8L290.8,221.4z M281.8,242.7h13l-9.1,9.1
			C283.8,249.2,282.4,246.1,281.8,242.7L281.8,242.7z M299.9,247.8v12.7c-3.3-0.5-6.4-1.8-9.1-3.7L299.9,247.8z M303.2,268
			c15.9,0,28.9-13,28.9-28.9c0-15.9-13-28.9-28.9-28.9c-15.9,0-28.9,13-28.9,28.9c0,7.3,2.8,14,7.3,19.1c-1-0.4-2.1-0.7-3.2-0.9
			c-0.3-0.1-0.6-0.1-1-0.1c-3.6-5.1-5.7-11.4-5.7-18.1c0-17.4,14.1-31.5,31.5-31.5s31.5,14.1,31.5,31.5c0,17.4-14.1,31.5-31.5,31.5
			c-4.5,0-8.8-1-12.6-2.6c-0.3-1-0.6-1.8-0.9-2.6c-0.2-0.4-0.4-0.8-0.7-1.2C293.2,266.6,298,268,303.2,268L303.2,268z M312.2,235.5
			l8.8-8.8c1.8,2.6,3.1,5.6,3.6,8.8H312.2z M324.6,242.7c-0.5,3.2-1.8,6.2-3.6,8.8l-8.8-8.8L324.6,242.7z M307.1,230.4v-12.6
			c3.3,0.6,6.3,1.9,8.9,3.8L307.1,230.4z M315.9,256.7c-2.6,1.9-5.6,3.2-8.8,3.8v-12.6L315.9,256.7z M330.5,188.4H202.7l-0.8-17.8
			c-0.3-6.4,4.7-11.9,11.1-12.3l139.6-9L330.5,188.4z"/>
		<path class="st13" d="M271,344.1c-0.3-2.9-1.4-5.5-3.1-7.6c0.5-2.6,0.8-5.2,0.8-8c0-21.3-17.4-38.7-38.7-38.7
			s-38.7,17.4-38.7,38.7c0,20.1,15.4,36.6,35,38.5l0,0.3c0.4,3.9,2.3,7.3,5.3,9.8c2.6,2.1,5.8,3.3,9.1,3.3c0.5,0,1,0,1.5-0.1
			l17.7-1.8c3.9-0.4,7.3-2.3,9.8-5.3c2.4-3,3.6-6.8,3.2-10.7L271,344.1z M226.7,339.5c-1.9,2.8-2.7,6.1-2.3,9.5l0.1,0.6
			c-2.5-0.7-4.8-1.7-6.8-3.2l9.1-9.1L226.7,339.5L226.7,339.5z M221.6,332.2l-9.1,9.1c-1.9-2.7-3.3-5.8-3.8-9.1H221.6z M208.6,325
			c0.6-3.4,1.9-6.5,3.8-9.1l9.1,9.1H208.6z M226.7,319.9l-9.1-9.1c2.7-1.9,5.7-3.1,9.1-3.7V319.9z M230,299.7
			c-15.9,0-28.9,13-28.9,28.9c0,14.3,10.4,26.2,24.1,28.5l0.3,2.7c-15.2-2.2-27-15.3-27-31.2c0-17.4,14.1-31.5,31.5-31.5
			s31.5,14.1,31.5,31.5c0,1.1-0.1,2.2-0.2,3.3c-0.8-0.3-1.7-0.5-2.6-0.7c0.1-0.9,0.1-1.8,0.1-2.7C258.9,312.7,245.9,299.7,230,299.7
			L230,299.7z M239,325l8.8-8.8c1.8,2.6,3.1,5.6,3.6,8.8H239z M245.2,332.2l-5.6,0.6l-0.6-0.6H245.2z M233.9,319.9v-12.6
			c3.3,0.6,6.3,1.9,8.9,3.8L233.9,319.9z M264.2,368.7c-1.2,1.5-3,2.5-4.9,2.7l-17.7,1.8c-2,0.2-3.9-0.4-5.4-1.6
			c-1.5-1.2-2.5-3-2.7-4.9l-1.9-18.4c-0.2-1.9,0.4-3.9,1.6-5.4c1.2-1.5,3-2.5,4.9-2.7l17.7-1.8c0.3,0,0.5,0,0.8,0
			c3.7,0,6.9,2.8,7.3,6.6l1.9,18.4C266,365.2,265.4,367.1,264.2,368.7L264.2,368.7z"/>
		<path class="st13" d="M339.7,334.2c-2-2.8-6-4.4-11.8-4.8l4.7-6.1c4.9-6.4,3.6-15.5-2.8-20.4l-14.2-10.8
			c-3.1-2.4-6.9-3.4-10.8-2.8c-3.8,0.5-7.3,2.5-9.6,5.6L284,309.6c-2.4,3.1-3.4,6.9-2.8,10.8c0.5,3.8,2.5,7.3,5.6,9.6l8.2,6.3
			c-6,5.4-7.7,16.1,1.7,29.1c6.5,9,13.7,12.6,19.8,12.6c3.2,0,6.2-1,8.6-2.7C331.1,370.8,346.6,343.7,339.7,334.2L339.7,334.2z
			 M289.8,313.9l11.2-14.7c1.4-1.9,3.6-2.9,5.8-2.9c1.6,0,3.1,0.5,4.4,1.5l14.2,10.8c3.2,2.5,3.8,7.1,1.4,10.3l-8.1,10.6
			c-0.5,0-1,0.1-1.5,0.1c-4.9,0.5-10.6,1.6-15.1,3l-11-8.4C287.9,321.7,287.3,317.1,289.8,313.9z M302.6,361c-0.2-0.3-0.5-0.6-0.7-1
			l14.3-10.4c0.5-0.4,1.3-0.3,1.6,0.3c0.4,0.5,0.3,1.3-0.3,1.6L303.3,362C303,361.7,302.8,361.4,302.6,361L302.6,361z M330.5,353.9
			c-3.6,8.1-7.9,14.2-9.6,15.4c-2.8,2-7.4,2.2-12.6-2l13.5-9.8c3.7-2.7,4.6-7.9,1.9-11.7c-1.3-1.8-3.2-3-5.5-3.4
			c-2.2-0.4-4.4,0.2-6.2,1.5l-13.5,9.8c-2.2-6-1-10.5,2-12.6c1.6-1.2,8.8-3.4,17.6-4.3c2.4-0.2,4.5-0.4,6.4-0.4c5.8,0,8.8,1,9.5,2
			C334.7,339.6,334.6,344.7,330.5,353.9L330.5,353.9z"/>
	</g>
</g>
</svg>
