<?xml version="1.0" encoding="utf-8"?>
<!-- Generator: Adobe Illustrator 23.0.1, SVG Export Plug-In . SVG Version: 6.00 Build 0)  -->
<svg version="1.1" id="Capa_1" xmlns="http://www.w3.org/2000/svg" xmlns:xlink="http://www.w3.org/1999/xlink" x="0px" y="0px"
	 viewBox="0 0 512 512" style="enable-background:new 0 0 512 512;" xml:space="preserve">
<style type="text/css">
	.st0{fill:none;stroke:#ACC0CC;stroke-miterlimit:10;}
	.st1{fill:#C59B8C;}
	.st2{fill:#A1E8C3;}
	.st3{fill:#85ADC2;}
	.st4{fill:#FFFFFF;}
	.st5{fill:#E8A284;}
	.st6{fill:#CCF3E2;}
	.st7{fill:#E1BDFC;}
	.st8{fill:#B1B6E1;}
	.st9{fill:#EFC5B4;}
	.st10{fill:#3C122C;}
</style>
<rect class="st0" width="511.9" height="511.9"/>
<g>
	<g>
		<ellipse class="st1" cx="326.9" cy="167.6" rx="58.1" ry="58.1"/>
		<circle class="st2" cx="326.9" cy="167.6" r="45.7"/>
		<path class="st3" d="M353.4,130.4c5.3,7.5,8.5,16.6,8.5,26.5c0,25.2-20.4,45.7-45.7,45.7c-9.9,0-19-3.1-26.5-8.5
			c8.3,11.6,21.8,19.1,37.2,19.1c25.2,0,45.7-20.4,45.7-45.7C372.6,152.3,365,138.7,353.4,130.4z"/>
		<path class="st4" d="M307.2,409.9H197.9c-10.1,0-18.4-9.1-18.7-20.6l-6.5-226h158.4l-5.2,225.8
			C325.7,400.7,317.3,409.9,307.2,409.9L307.2,409.9z"/>
		<path class="st5" d="M255.8,371.4c0.8,0,1.7-0.1,2.5-0.3c5.3-1.4,8.4-6.8,7-12.1L192.4,83.8c-1.4-5.3-6.8-8.4-12.1-7
			c-5.3,1.4-8.4,6.8-7,12.1l72.9,275.3C247.4,368.5,251.4,371.4,255.8,371.4L255.8,371.4z"/>
		<path class="st6" d="M290.7,381.5h-75.1c-10.1,0-18.4-9.3-18.7-21.1L192,187.9h121.3l-3.9,172.4
			C309.2,372.1,300.9,381.5,290.7,381.5z"/>
		<path class="st7" d="M286.9,163.4L282.7,352c-0.2,9.6-6.9,17.3-15,17.3h-74.8c-7.2,0-13.3-6-14.7-14.2l1,34.2
			c0.3,11.5,8.6,20.6,18.7,20.6h109.3c10.2,0,18.5-9.2,18.7-20.7l5.2-225.8H286.9z"/>
		<path class="st8" d="M282.7,352c-0.2,9.6-6.9,17.3-15,17.3h-68.9c3.1,7.2,9.5,12.2,16.8,12.2h75.1c10.2,0,18.5-9.4,18.7-21.2
			l3.9-172.4h-27L282.7,352z"/>
		<path class="st9" d="M117.7,118.9l5.5,15.6c0.2,0.7,0.7,1.2,1.3,1.5l13.8,6.2c2,0.9,2,4,0,4.9l-13.8,6.2c-0.6,0.3-1.1,0.8-1.3,1.5
			l-5.5,15.6c-0.8,2.2-3.5,2.2-4.3,0l-5.5-15.6c-0.2-0.7-0.7-1.2-1.3-1.5L92.8,147c-2-0.9-2-4,0-4.9l13.8-6.2
			c0.6-0.3,1.1-0.8,1.3-1.5l5.5-15.6C114.2,116.7,116.9,116.7,117.7,118.9z"/>
		<path class="st5" d="M280.1,86.5c0,6.7-5.4,12.1-12.1,12.1S256,93.2,256,86.5c0-6.7,5.4-12.1,12.1-12.1
			C274.7,74.4,280.1,79.8,280.1,86.5z"/>
		<ellipse class="st5" cx="407.7" cy="233.4" rx="5.2" ry="5.2"/>
		<path class="st9" d="M379.8,259.1l4.1,11.5c0.2,0.5,0.5,0.9,1,1.1l10.3,4.6c1.4,0.7,1.4,3,0,3.6l-10.3,4.6c-0.4,0.2-0.8,0.6-1,1.1
			l-4.1,11.5c-0.6,1.6-2.6,1.6-3.2,0l-4.1-11.5c-0.2-0.5-0.5-0.9-1-1.1l-10.3-4.6c-1.4-0.7-1.4-3,0-3.6l10.3-4.6
			c0.4-0.2,0.8-0.6,1-1.1l4.1-11.5C377.2,257.5,379.2,257.5,379.8,259.1z"/>
	</g>
	<g>
		<g>
			<path class="st10" d="M377,204.4c7.6-10.3,12.1-23,12.1-36.8c0-34.3-27.9-62.2-62.2-62.2c-30.5,0-56,22.1-61.2,51.2h-49.8
				l-19.6-73.9c-1-3.6-3.2-6.6-6.5-8.5c-3.2-1.9-7-2.4-10.5-1.4c-3.6,1-6.6,3.2-8.5,6.5c-1.9,3.2-2.4,7-1.4,10.5l17.7,66.7h-14.5
				c-1.8,0-3.6,0.7-4.8,2c-1.3,1.3-2,3.1-1.9,4.9l6.5,226c0.4,15.2,11.6,27.1,25.5,27.1h109.3c13.9,0,25.1-12,25.5-27.3l3.7-160.3
				c9.2-1.4,17.8-4.8,25.2-9.8l3.6,3.6c0.8,0.8,1.8,1.2,2.9,1.2c1,0,2.1-0.4,2.9-1.2c1.6-1.6,1.6-4.1,0-5.7l-2.8-2.8
				c1.3-1.2,2.6-2.4,3.8-3.6l2.9,2.9c0.8,0.8,1.8,1.2,2.9,1.2c1,0,2.1-0.4,2.9-1.2c1.6-1.6,1.6-4.1,0-5.7L377,204.4z M177.3,87.8
				c-0.4-1.5-0.2-3.1,0.6-4.4c0.8-1.3,2-2.3,3.5-2.7c0.5-0.1,1-0.2,1.5-0.2c1,0,2,0.3,2.9,0.8c1.3,0.8,2.3,2,2.7,3.5l19,71.8h-12
				L177.3,87.8z M308.4,191.3l-3.8,168.2c-0.2,9.5-6.8,17.3-14.7,17.3h-75.1c-7.8,0-14.4-7.7-14.7-17.2l-4.7-168.3H308.4z
				 M202.6,183.2l-3.5-13.1h12l3.5,13.1H202.6z M319.2,389c-0.2,7.8-5.6,14.1-12,14.1H197.9c-6.4,0-11.8-6.3-12-14l-6.3-219h11.1
				l3.5,13.1h-2.9c-1.1,0-2.1,0.4-2.9,1.2c-0.8,0.8-1.2,1.8-1.1,2.9l4.8,172.5c0.4,14,10.4,25,22.8,25h75.1
				c12.5,0,22.5-11.1,22.8-25.2l3.9-172.4c0-1.1-0.4-2.1-1.2-2.9c-0.8-0.8-1.8-1.2-2.9-1.2H223l-3.5-13.1h104.7L319.2,389z
				 M315.5,156.6c0.1-0.1,0.3-0.2,0.4-0.3c1.6-1.6,1.6-4.1,0-5.7l-7.3-7.3c-1.6-1.6-4.1-1.6-5.7,0c-1.6,1.6-1.6,4.1,0,5.7l7.3,7.3
				c0.1,0.1,0.2,0.2,0.4,0.3h-23.8c4.8-17.6,21-30.7,40.1-30.7c22.9,0,41.6,18.7,41.6,41.6c0,19.5-13.5,35.9-31.7,40.4l0.5-23.4
				l7.2,7.2c0.8,0.8,1.8,1.2,2.9,1.2c1,0,2.1-0.4,2.9-1.2c1.6-1.6,1.6-4.1,0-5.7l-7.3-7.3c-1.5-1.5-3.9-1.6-5.5-0.2l0.3-15.2
				c0-1.8-0.7-3.6-1.9-4.9c-1.3-1.3-3-2-4.8-2L315.5,156.6L315.5,156.6z M336.6,216.3c22.8-4.5,40-24.7,40-48.7
				c0-27.4-22.3-49.7-49.7-49.7c-23.6,0-43.5,16.6-48.5,38.8H274c5.1-24.6,26.9-43.1,52.9-43.1c29.8,0,54.1,24.3,54.1,54.1
				c0,26.5-19.2,48.7-44.5,53.2L336.6,216.3z"/>
			<path class="st10" d="M342.3,166.9c0,2.2,1.8,4,4,4h10.3c2.2,0,4-1.8,4-4s-1.8-4-4-4h-10.3C344.1,162.9,342.3,164.7,342.3,166.9z
				"/>
			<path class="st10" d="M327.1,133.5c-2.2,0-4,1.8-4,4v10.3c0,2.2,1.8,4,4,4c2.2,0,4-1.8,4-4v-10.3
				C331.1,135.3,329.3,133.5,327.1,133.5z"/>
			<path class="st10" d="M340.2,157.5c1,0,2.1-0.4,2.9-1.2l7.3-7.3c1.6-1.6,1.6-4.1,0-5.7c-1.6-1.6-4.1-1.6-5.7,0l-7.3,7.3
				c-1.6,1.6-1.6,4.1,0,5.7C338.1,157.1,339.1,157.5,340.2,157.5z"/>
			<path class="st10" d="M289.1,234.5c-2.2,0-4-1.8-4-4V223c0-2.2,1.8-4,4-4c2.2,0,4,1.8,4,4v7.4
				C293.2,232.7,291.4,234.5,289.1,234.5z"/>
			<path class="st10" d="M262,263.7c-2.2,0-4-1.8-4-4v-7.4c0-2.2,1.8-4,4-4c2.2,0,4,1.8,4,4v7.4C266.1,261.8,264.3,263.7,262,263.7z
				"/>
			<path class="st10" d="M280.6,304.7c-2.2,0-4-1.8-4-4v-7.4c0-2.2,1.8-4,4-4s4,1.8,4,4v7.4C284.6,302.9,282.8,304.7,280.6,304.7z"
				/>
			<path class="st10" d="M226.6,292.7c-2.2,0-4-1.8-4-4v-7.4c0-2.2,1.8-4,4-4s4,1.8,4,4v7.4C230.6,290.9,228.8,292.7,226.6,292.7z"
				/>
			<path class="st10" d="M253.1,321.2c-2.2,0-4-1.8-4-4v-7.4c0-2.2,1.8-4,4-4s4,1.8,4,4v7.4C257.1,319.4,255.3,321.2,253.1,321.2z"
				/>
			<path class="st10" d="M232.6,354.2c-2.2,0-4-1.8-4-4v-7.4c0-2.2,1.8-4,4-4s4,1.8,4,4v7.4C236.6,352.4,234.8,354.2,232.6,354.2z"
				/>
			<path class="st10" d="M281.1,356.4c-2.2,0-4-1.8-4-4V345c0-2.2,1.8-4,4-4s4,1.8,4,4v7.4C285.1,354.6,283.3,356.4,281.1,356.4z"/>
		</g>
		<path class="st4" d="M215.6,267.7c-3.7,0-6.7-3-6.7-6.7l-0.2-25.1c0-3.7,3-6.8,6.7-6.8c0,0,0,0,0.1,0c3.7,0,6.7,3,6.7,6.7
			l0.2,25.1C222.3,264.6,219.4,267.7,215.6,267.7C215.6,267.7,215.6,267.7,215.6,267.7z"/>
		<path class="st4" d="M214.8,221.8c-3.7,0-6.7-2.9-6.7-6.6L208,209c-0.1-3.7,2.9-6.8,6.6-6.9c0,0,0.1,0,0.1,0
			c3.7,0,6.7,2.9,6.7,6.6l0.1,6.1c0.1,3.7-2.9,6.8-6.6,6.9C214.9,221.8,214.8,221.8,214.8,221.8z"/>
	</g>
</g>
</svg>
