<svg width="25" height="18" viewBox="0 0 512 336" fill="none" xmlns="http://www.w3.org/2000/svg"><path d="M473.655 0.276001H38.345C17.167 0.276001 0 17.443 0 38.621V102.16H512V38.621C512 17.443 494.833 0.276001 473.655 0.276001Z" fill="#82AFFF"/><path d="M0 297.379C0 318.556 17.167 335.724 38.345 335.724H473.655C494.832 335.724 512 318.557 512 297.379V233.84H0V297.379Z" fill="#73AF00"/><path d="M512 116.1H0V219.89H512V116.1Z" fill="#F5F5F5"/><path d="M0 112.092V116.102H512V112.092V102.159H0V112.092Z" fill="#FF4B55"/><path d="M0 223.908V233.841H512V223.908V219.898H0V223.908Z" fill="#FF4B55"/><path d="M113.491 84.071C95.4189 84.071 80.7699 69.457 80.7699 51.45C80.7699 33.377 95.4179 18.697 113.491 18.697C113.561 18.697 113.629 18.697 113.697 18.698C114.761 18.712 115.134 17.299 114.196 16.796C108.631 13.813 102.28 12.125 95.5279 12.174C73.9039 12.328 56.3389 30.247 56.5689 51.871C56.7949 73.272 74.2909 90.595 95.8109 90.595C102.47 90.595 108.732 88.91 114.228 85.968C115.163 85.467 114.785 84.054 113.725 84.069C113.645 84.071 113.568 84.071 113.491 84.071Z" fill="#F5F5F5"/><path d="M139.113 75.05L137.652 79.432L133.033 79.467C132.435 79.471 132.187 80.235 132.668 80.59L136.384 83.334L134.99 87.738C134.81 88.308 135.459 88.78 135.946 88.432L139.704 85.746L143.462 88.432C143.949 88.78 144.597 88.308 144.418 87.738L143.024 83.334L146.739 80.59C147.22 80.235 146.972 79.471 146.374 79.467L141.755 79.432L140.294 75.05C140.105 74.483 139.303 74.483 139.113 75.05Z" fill="#F5F5F5"/><path d="M171.656 75.05L170.195 79.432L165.576 79.467C164.978 79.471 164.73 80.235 165.211 80.59L168.926 83.334L167.532 87.738C167.352 88.308 168.001 88.78 168.488 88.432L172.246 85.746L176.004 88.432C176.491 88.78 177.139 88.308 176.96 87.738L175.566 83.334L179.281 80.59C179.762 80.235 179.514 79.471 178.916 79.467L174.297 79.432L172.836 75.05C172.647 74.483 171.844 74.483 171.656 75.05Z" fill="#F5F5F5"/><path d="M204.198 75.05L202.737 79.432L198.118 79.467C197.52 79.471 197.272 80.235 197.753 80.59L201.469 83.334L200.075 87.738C199.895 88.308 200.544 88.78 201.031 88.432L204.789 85.746L208.547 88.432C209.034 88.78 209.682 88.308 209.503 87.738L208.109 83.334L211.824 80.59C212.305 80.235 212.057 79.471 211.459 79.467L206.84 79.432L205.379 75.05C205.19 74.483 204.387 74.483 204.198 75.05Z" fill="#F5F5F5"/><path d="M236.74 75.05L235.279 79.432L230.66 79.467C230.062 79.471 229.814 80.235 230.295 80.59L234.01 83.334L232.616 87.738C232.436 88.308 233.085 88.78 233.572 88.432L237.33 85.746L241.088 88.432C241.575 88.78 242.223 88.308 242.044 87.738L240.65 83.334L244.365 80.59C244.846 80.235 244.598 79.471 244 79.467L239.381 79.432L237.92 75.05C237.732 74.483 236.929 74.483 236.74 75.05Z" fill="#F5F5F5"/><path d="M269.283 75.05L267.822 79.432L263.203 79.467C262.605 79.471 262.357 80.235 262.838 80.59L266.554 83.334L265.16 87.738C264.98 88.308 265.629 88.78 266.116 88.432L269.874 85.746L273.632 88.432C274.119 88.78 274.767 88.308 274.588 87.738L273.194 83.334L276.91 80.59C277.391 80.235 277.143 79.471 276.545 79.467L271.926 79.432L270.465 75.05C270.274 74.483 269.472 74.483 269.283 75.05Z" fill="#F5F5F5"/><path d="M171.656 44.678L170.195 49.06L165.576 49.095C164.978 49.099 164.73 49.863 165.211 50.218L168.926 52.962L167.532 57.366C167.352 57.936 168.001 58.408 168.488 58.06L172.246 55.374L176.004 58.06C176.491 58.408 177.139 57.936 176.96 57.366L175.566 52.962L179.281 50.218C179.762 49.863 179.514 49.099 178.916 49.095L174.297 49.06L172.836 44.678C172.647 44.109 171.844 44.109 171.656 44.678Z" fill="#F5F5F5"/><path d="M204.198 44.678L202.737 49.06L198.118 49.095C197.52 49.099 197.272 49.863 197.753 50.218L201.469 52.962L200.075 57.366C199.895 57.936 200.544 58.408 201.031 58.06L204.789 55.374L208.547 58.06C209.034 58.408 209.682 57.936 209.503 57.366L208.109 52.962L211.824 50.218C212.305 49.863 212.057 49.099 211.459 49.095L206.84 49.06L205.379 44.678C205.19 44.109 204.387 44.109 204.198 44.678Z" fill="#F5F5F5"/><path d="M236.74 44.678L235.279 49.06L230.66 49.095C230.062 49.099 229.814 49.863 230.295 50.218L234.01 52.962L232.616 57.366C232.436 57.936 233.085 58.408 233.572 58.06L237.33 55.374L241.088 58.06C241.575 58.408 242.223 57.936 242.044 57.366L240.65 52.962L244.365 50.218C244.846 49.863 244.598 49.099 244 49.095L239.381 49.06L237.92 44.678C237.732 44.109 236.929 44.109 236.74 44.678Z" fill="#F5F5F5"/><path d="M269.283 44.678L267.822 49.06L263.203 49.095C262.605 49.099 262.357 49.863 262.838 50.218L266.554 52.962L265.16 57.366C264.98 57.936 265.629 58.408 266.116 58.06L269.874 55.374L273.632 58.06C274.119 58.408 274.767 57.936 274.588 57.366L273.194 52.962L276.91 50.218C277.391 49.863 277.143 49.099 276.545 49.095L271.926 49.06L270.465 44.678C270.274 44.109 269.472 44.109 269.283 44.678Z" fill="#F5F5F5"/><path d="M204.198 75.05L202.737 79.432L198.118 79.467C197.52 79.471 197.272 80.235 197.753 80.59L201.469 83.334L200.075 87.738C199.895 88.308 200.544 88.78 201.031 88.432L204.789 85.746L208.547 88.432C209.034 88.78 209.682 88.308 209.503 87.738L208.109 83.334L211.824 80.59C212.305 80.235 212.057 79.471 211.459 79.467L206.84 79.432L205.379 75.05C205.19 74.483 204.387 74.483 204.198 75.05Z" fill="#F5F5F5"/><path d="M204.198 14.304L202.737 18.686L198.118 18.721C197.52 18.725 197.272 19.489 197.753 19.844L201.469 22.588L200.075 26.992C199.895 27.562 200.544 28.034 201.031 27.686L204.789 25L208.547 27.686C209.034 28.034 209.682 27.562 209.503 26.992L208.109 22.588L211.824 19.844C212.305 19.489 212.057 18.725 211.459 18.721L206.84 18.686L205.379 14.304C205.19 13.737 204.387 13.737 204.198 14.304Z" fill="#F5F5F5"/><path d="M236.74 75.05L235.279 79.432L230.66 79.467C230.062 79.471 229.814 80.235 230.295 80.59L234.01 83.334L232.616 87.738C232.436 88.308 233.085 88.78 233.572 88.432L237.33 85.746L241.088 88.432C241.575 88.78 242.223 88.308 242.044 87.738L240.65 83.334L244.365 80.59C244.846 80.235 244.598 79.471 244 79.467L239.381 79.432L237.92 75.05C237.732 74.483 236.929 74.483 236.74 75.05Z" fill="#F5F5F5"/><path d="M269.283 75.05L267.822 79.432L263.203 79.467C262.605 79.471 262.357 80.235 262.838 80.59L266.554 83.334L265.16 87.738C264.98 88.308 265.629 88.78 266.116 88.432L269.874 85.746L273.632 88.432C274.119 88.78 274.767 88.308 274.588 87.738L273.194 83.334L276.91 80.59C277.391 80.235 277.143 79.471 276.545 79.467L271.926 79.432L270.465 75.05C270.274 74.483 269.472 74.483 269.283 75.05Z" fill="#F5F5F5"/><path d="M236.74 14.304L235.279 18.686L230.66 18.721C230.062 18.725 229.814 19.489 230.295 19.844L234.01 22.588L232.616 26.992C232.436 27.562 233.085 28.034 233.572 27.686L237.33 25L241.088 27.686C241.575 28.034 242.223 27.562 242.044 26.992L240.65 22.588L244.365 19.844C244.846 19.489 244.598 18.725 244 18.721L239.381 18.686L237.92 14.304C237.732 13.737 236.929 13.737 236.74 14.304Z" fill="#F5F5F5"/><path d="M269.283 14.304L267.822 18.686L263.203 18.721C262.605 18.725 262.357 19.489 262.838 19.844L266.554 22.588L265.16 26.992C264.98 27.562 265.629 28.034 266.116 27.686L269.874 25L273.632 27.686C274.119 28.034 274.767 27.562 274.588 26.992L273.194 22.588L276.91 19.844C277.391 19.489 277.143 18.725 276.545 18.721L271.926 18.686L270.465 14.304C270.274 13.737 269.472 13.737 269.283 14.304Z" fill="#F5F5F5"/></svg>