<svg width="25" height="18" viewBox="0 0 512 336" fill="none" xmlns="http://www.w3.org/2000/svg"><path d="M473.655 0.275879H38.345C17.167 0.275879 0 17.4429 0 38.6209V297.38C0 318.557 17.167 335.725 38.345 335.725H473.655C494.832 335.725 512 318.558 512 297.38V38.6209C512 17.4429 494.833 0.275879 473.655 0.275879Z" fill="#F5F5F5"/><path d="M2.10889 26.0799H509.89C504.694 11.0629 490.438 0.275879 473.655 0.275879H38.3449C21.5609 0.275879 7.30589 11.0629 2.10889 26.0799Z" fill="#FF4B55"/><path d="M512 103.49H0V129.293H512V103.49Z" fill="#FF4B55"/><path d="M512 51.8799H0V77.6829H512V51.8799Z" fill="#FF4B55"/><path d="M0 172.074C0 176.949 3.953 180.902 8.828 180.902H512V155.098H0V172.074Z" fill="#FF4B55"/><path d="M512 258.32H0V284.124H512V258.32Z" fill="#FF4B55"/><path d="M509.891 309.92H2.10889C7.30589 324.937 21.5619 335.724 38.3449 335.724H473.655C490.439 335.724 504.694 324.937 509.891 309.92Z" fill="#FF4B55"/><path d="M512 206.71H0V232.513H512V206.71Z" fill="#FF4B55"/><path d="M8.828 180.902H229.518C234.393 180.902 238.346 176.949 238.346 172.074V9.1029C238.346 4.2269 234.393 0.274902 229.518 0.274902H38.345C17.167 0.275902 0 17.4429 0 38.6209V172.074C0 176.95 3.953 180.902 8.828 180.902Z" fill="#41479B"/><path d="M24.789 20.5371L26.743 26.3971L32.92 26.4441C33.72 26.4511 34.051 27.4711 33.408 27.9461L28.439 31.6151L30.303 37.5041C30.545 38.2661 29.676 38.8981 29.025 38.4321L24 34.8411L18.975 38.4331C18.324 38.8991 17.457 38.2671 17.697 37.5051L19.561 31.6161L14.592 27.9471C13.949 27.4711 14.28 26.4511 15.08 26.4451L21.257 26.3981L23.211 20.5381C23.463 19.7781 24.535 19.7781 24.789 20.5371Z" fill="#F5F5F5"/><path d="M24.789 51.1909L26.743 57.0509L32.92 57.0979C33.72 57.1049 34.051 58.1239 33.408 58.5999L28.439 62.2699L30.303 68.1589C30.545 68.9209 29.676 69.5529 29.025 69.0869L24 65.4959L18.975 69.0879C18.324 69.5529 17.457 68.9219 17.697 68.1599L19.561 62.2709L14.592 58.6009C13.949 58.1249 14.28 57.1059 15.08 57.0989L21.257 57.0519L23.211 51.1919C23.463 50.4329 24.535 50.4329 24.789 51.1909Z" fill="#F5F5F5"/><path d="M24.789 81.846L26.743 87.706L32.92 87.753C33.72 87.76 34.051 88.779 33.408 89.255L28.439 92.925L30.303 98.814C30.545 99.576 29.676 100.208 29.025 99.742L24 96.151L18.975 99.743C18.324 100.208 17.457 99.578 17.697 98.815L19.561 92.926L14.592 89.256C13.949 88.78 14.28 87.761 15.08 87.754L21.257 87.707L23.211 81.847C23.463 81.087 24.535 81.087 24.789 81.846Z" fill="#F5F5F5"/><path d="M24.789 112.5L26.743 118.36L32.92 118.407C33.72 118.414 34.051 119.434 33.408 119.909L28.439 123.579L30.303 129.468C30.545 130.23 29.676 130.862 29.025 130.396L24 126.805L18.975 130.397C18.324 130.862 17.457 130.231 17.697 129.469L19.561 123.58L14.592 119.91C13.949 119.436 14.28 118.415 15.08 118.408L21.257 118.361L23.211 112.501C23.463 111.741 24.535 111.741 24.789 112.5Z" fill="#F5F5F5"/><path d="M24.789 143.154L26.743 149.014L32.92 149.061C33.72 149.068 34.051 150.087 33.408 150.563L28.439 154.233L30.303 160.122C30.545 160.884 29.676 161.516 29.025 161.05L24 157.459L18.975 161.051C18.324 161.516 17.457 160.885 17.697 160.123L19.561 154.234L14.592 150.564C13.949 150.088 14.28 149.069 15.08 149.062L21.257 149.015L23.211 143.155C23.463 142.396 24.535 142.396 24.789 143.154Z" fill="#F5F5F5"/><path d="M48.582 35.5661L50.536 41.4261L56.713 41.4731C57.513 41.4801 57.844 42.5001 57.201 42.9751L52.232 46.6451L54.096 52.5341C54.338 53.2961 53.469 53.9281 52.818 53.4621L47.793 49.8701L42.768 53.4621C42.117 53.9271 41.25 53.2961 41.49 52.5341L43.354 46.6451L38.385 42.9751C37.742 42.4991 38.073 41.4801 38.873 41.4731L45.05 41.4261L47.004 35.5661C47.256 34.8081 48.329 34.8081 48.582 35.5661Z" fill="#F5F5F5"/><path d="M48.582 66.2211L50.536 72.0811L56.713 72.1281C57.513 72.1351 57.844 73.1551 57.201 73.6301L52.232 77.3001L54.096 83.1891C54.338 83.9511 53.469 84.5831 52.818 84.1171L47.793 80.5251L42.768 84.1171C42.117 84.5821 41.25 83.9521 41.49 83.1891L43.354 77.3001L38.385 73.6301C37.742 73.1561 38.073 72.1351 38.873 72.1281L45.05 72.0811L47.004 66.2211C47.256 65.4621 48.329 65.4621 48.582 66.2211Z" fill="#F5F5F5"/><path d="M48.582 96.8749L50.536 102.735L56.713 102.782C57.513 102.789 57.844 103.808 57.201 104.284L52.232 107.954L54.096 113.843C54.338 114.605 53.469 115.237 52.818 114.771L47.793 111.179L42.768 114.771C42.117 115.236 41.25 114.605 41.49 113.843L43.354 107.954L38.385 104.284C37.742 103.808 38.073 102.789 38.873 102.782L45.05 102.735L47.004 96.8749C47.256 96.1159 48.329 96.1159 48.582 96.8749Z" fill="#F5F5F5"/><path d="M48.582 127.529L50.536 133.389L56.713 133.436C57.513 133.443 57.844 134.462 57.201 134.938L52.232 138.608L54.096 144.497C54.338 145.259 53.469 145.891 52.818 145.425L47.793 141.833L42.768 145.425C42.117 145.891 41.25 145.259 41.49 144.497L43.354 138.608L38.385 134.938C37.742 134.462 38.073 133.443 38.873 133.436L45.05 133.389L47.004 127.529C47.256 126.771 48.329 126.771 48.582 127.529Z" fill="#F5F5F5"/><path d="M72.375 20.537L74.329 26.397L80.506 26.444C81.306 26.451 81.637 27.471 80.994 27.946L76.025 31.615L77.889 37.504C78.131 38.266 77.262 38.898 76.611 38.432L71.586 34.84L66.561 38.432C65.91 38.898 65.043 38.266 65.283 37.504L67.147 31.615L62.178 27.946C61.535 27.47 61.866 26.45 62.666 26.444L68.843 26.397L70.797 20.537C71.049 19.778 72.122 19.778 72.375 20.537Z" fill="#F5F5F5"/><path d="M72.375 51.1911L74.329 57.0511L80.506 57.0981C81.306 57.1051 81.637 58.1241 80.994 58.6001L76.025 62.2701L77.889 68.1591C78.131 68.9211 77.262 69.5531 76.611 69.0871L71.586 65.4951L66.561 69.0871C65.91 69.5521 65.043 68.9211 65.283 68.1591L67.147 62.2701L62.178 58.6001C61.535 58.1241 61.866 57.1051 62.666 57.0981L68.843 57.0511L70.797 51.1911C71.049 50.4331 72.122 50.4331 72.375 51.1911Z" fill="#F5F5F5"/><path d="M72.375 81.8461L74.329 87.7061L80.506 87.7531C81.306 87.7601 81.637 88.7791 80.994 89.2551L76.025 92.9251L77.889 98.8141C78.131 99.5761 77.262 100.208 76.611 99.7421L71.586 96.1501L66.561 99.7421C65.91 100.207 65.043 99.5771 65.283 98.8141L67.147 92.9251L62.178 89.2551C61.535 88.7791 61.866 87.7601 62.666 87.7531L68.843 87.7061L70.797 81.8461C71.049 81.0871 72.122 81.0871 72.375 81.8461Z" fill="#F5F5F5"/><path d="M72.375 112.5L74.329 118.36L80.506 118.407C81.306 118.414 81.637 119.434 80.994 119.909L76.025 123.579L77.889 129.468C78.131 130.23 77.262 130.862 76.611 130.396L71.586 126.804L66.561 130.396C65.91 130.861 65.043 130.23 65.283 129.468L67.147 123.579L62.178 119.909C61.535 119.435 61.866 118.414 62.666 118.407L68.843 118.36L70.797 112.5C71.049 111.741 72.122 111.741 72.375 112.5Z" fill="#F5F5F5"/><path d="M72.375 143.154L74.329 149.014L80.506 149.061C81.306 149.068 81.637 150.087 80.994 150.563L76.025 154.233L77.889 160.122C78.131 160.884 77.262 161.516 76.611 161.05L71.586 157.458L66.561 161.05C65.91 161.515 65.043 160.884 65.283 160.122L67.147 154.233L62.178 150.563C61.535 150.087 61.866 149.068 62.666 149.061L68.843 149.014L70.797 143.154C71.049 142.396 72.122 142.396 72.375 143.154Z" fill="#F5F5F5"/><path d="M96.1692 35.5661L98.1232 41.4261L104.3 41.4731C105.1 41.4801 105.431 42.5001 104.788 42.9751L99.8192 46.6451L101.683 52.5341C101.925 53.2961 101.056 53.9281 100.405 53.4621L95.3802 49.8701L90.3552 53.4621C89.7042 53.9271 88.8372 53.2961 89.0772 52.5341L90.9412 46.6451L85.9722 42.9751C85.3292 42.4991 85.6602 41.4801 86.4602 41.4731L92.6372 41.4261L94.5912 35.5661C94.8422 34.8081 95.9162 34.8081 96.1692 35.5661Z" fill="#F5F5F5"/><path d="M96.1692 66.2211L98.1232 72.0811L104.3 72.1281C105.1 72.1351 105.431 73.1551 104.788 73.6301L99.8192 77.3001L101.683 83.1891C101.925 83.9511 101.056 84.5831 100.405 84.1171L95.3802 80.5251L90.3552 84.1171C89.7042 84.5821 88.8372 83.9521 89.0772 83.1891L90.9412 77.3001L85.9722 73.6301C85.3292 73.1561 85.6602 72.1351 86.4602 72.1281L92.6372 72.0811L94.5912 66.2211C94.8422 65.4621 95.9162 65.4621 96.1692 66.2211Z" fill="#F5F5F5"/><path d="M96.1692 96.8749L98.1232 102.735L104.3 102.782C105.1 102.789 105.431 103.808 104.788 104.284L99.8192 107.954L101.683 113.843C101.925 114.605 101.056 115.237 100.405 114.771L95.3802 111.179L90.3552 114.771C89.7042 115.236 88.8372 114.605 89.0772 113.843L90.9412 107.954L85.9722 104.284C85.3292 103.808 85.6602 102.789 86.4602 102.782L92.6372 102.735L94.5912 96.8749C94.8422 96.1159 95.9162 96.1159 96.1692 96.8749Z" fill="#F5F5F5"/><path d="M96.1692 127.529L98.1232 133.389L104.3 133.436C105.1 133.443 105.431 134.462 104.788 134.938L99.8192 138.608L101.683 144.497C101.925 145.259 101.056 145.891 100.405 145.425L95.3802 141.833L90.3552 145.425C89.7042 145.891 88.8372 145.259 89.0772 144.497L90.9412 138.608L85.9722 134.938C85.3292 134.462 85.6602 133.443 86.4602 133.436L92.6372 133.389L94.5912 127.529C94.8422 126.771 95.9162 126.771 96.1692 127.529Z" fill="#F5F5F5"/><path d="M119.962 20.5371L121.916 26.3971L128.093 26.4441C128.893 26.4511 129.224 27.4711 128.581 27.9461L123.612 31.6151L125.476 37.5041C125.718 38.2661 124.849 38.8981 124.198 38.4321L119.172 34.8411L114.147 38.4331C113.496 38.8991 112.629 38.2671 112.869 37.5051L114.733 31.6161L109.764 27.9471C109.121 27.4711 109.452 26.4511 110.252 26.4451L116.429 26.3981L118.383 20.5381C118.636 19.7781 119.709 19.7781 119.962 20.5371Z" fill="#F5F5F5"/><path d="M119.962 51.1911L121.916 57.0511L128.093 57.0981C128.893 57.1051 129.224 58.1241 128.581 58.6001L123.612 62.2701L125.476 68.1591C125.718 68.9211 124.849 69.5531 124.198 69.0871L119.172 65.4951L114.147 69.0871C113.496 69.5521 112.629 68.9211 112.869 68.1591L114.733 62.2701L109.764 58.6001C109.121 58.1241 109.452 57.1051 110.252 57.0981L116.429 57.0511L118.383 51.1911C118.636 50.4331 119.709 50.4331 119.962 51.1911Z" fill="#F5F5F5"/><path d="M119.962 81.846L121.916 87.706L128.093 87.753C128.893 87.76 129.224 88.779 128.581 89.255L123.612 92.925L125.476 98.814C125.718 99.576 124.849 100.208 124.198 99.742L119.172 96.149L114.147 99.741C113.496 100.206 112.629 99.575 112.869 98.813L114.733 92.924L109.764 89.254C109.121 88.778 109.452 87.759 110.252 87.752L116.429 87.705L118.383 81.845C118.636 81.087 119.709 81.087 119.962 81.846Z" fill="#F5F5F5"/><path d="M119.962 112.5L121.916 118.36L128.093 118.407C128.893 118.414 129.224 119.434 128.581 119.909L123.612 123.579L125.476 129.468C125.718 130.23 124.849 130.862 124.198 130.396L119.172 126.804L114.147 130.396C113.496 130.861 112.629 130.23 112.869 129.468L114.733 123.579L109.764 119.909C109.121 119.435 109.452 118.414 110.252 118.407L116.429 118.36L118.383 112.5C118.636 111.741 119.709 111.741 119.962 112.5Z" fill="#F5F5F5"/><path d="M119.962 143.154L121.916 149.014L128.093 149.061C128.893 149.068 129.224 150.087 128.581 150.563L123.612 154.233L125.476 160.122C125.718 160.884 124.849 161.516 124.198 161.05L119.172 157.458L114.147 161.05C113.496 161.515 112.629 160.884 112.869 160.122L114.733 154.233L109.764 150.563C109.121 150.087 109.452 149.068 110.252 149.061L116.429 149.014L118.383 143.154C118.636 142.396 119.709 142.396 119.962 143.154Z" fill="#F5F5F5"/><path d="M143.755 35.5661L145.709 41.4261L151.886 41.4731C152.686 41.4801 153.017 42.5001 152.374 42.9751L147.405 46.6451L149.269 52.5341C149.511 53.2961 148.642 53.9281 147.991 53.4621L142.966 49.8701L137.941 53.4621C137.29 53.9271 136.423 53.2961 136.663 52.5341L138.527 46.6451L133.558 42.9751C132.915 42.4991 133.246 41.4801 134.046 41.4731L140.223 41.4261L142.177 35.5661C142.43 34.8081 143.502 34.8081 143.755 35.5661Z" fill="#F5F5F5"/><path d="M143.755 66.2211L145.709 72.0811L151.886 72.1281C152.686 72.1351 153.017 73.1551 152.374 73.6301L147.405 77.3001L149.269 83.1891C149.511 83.9511 148.642 84.5831 147.991 84.1171L142.966 80.5251L137.941 84.1171C137.29 84.5821 136.423 83.9521 136.663 83.1891L138.527 77.3001L133.558 73.6301C132.915 73.1561 133.246 72.1351 134.046 72.1281L140.223 72.0811L142.177 66.2211C142.43 65.4621 143.502 65.4621 143.755 66.2211Z" fill="#F5F5F5"/><path d="M143.755 96.8749L145.709 102.735L151.886 102.782C152.686 102.789 153.017 103.808 152.374 104.284L147.405 107.954L149.269 113.843C149.511 114.605 148.642 115.237 147.991 114.771L142.966 111.179L137.941 114.771C137.29 115.236 136.423 114.605 136.663 113.843L138.527 107.954L133.558 104.284C132.915 103.808 133.246 102.789 134.046 102.782L140.223 102.735L142.177 96.8749C142.43 96.1159 143.502 96.1159 143.755 96.8749Z" fill="#F5F5F5"/><path d="M143.755 127.529L145.709 133.389L151.886 133.436C152.686 133.443 153.017 134.462 152.374 134.938L147.405 138.608L149.269 144.497C149.511 145.259 148.642 145.891 147.991 145.425L142.966 141.833L137.941 145.425C137.29 145.891 136.423 145.259 136.663 144.497L138.527 138.608L133.558 134.938C132.915 134.462 133.246 133.443 134.046 133.436L140.223 133.389L142.177 127.529C142.43 126.771 143.502 126.771 143.755 127.529Z" fill="#F5F5F5"/><path d="M167.549 20.537L169.503 26.397L175.68 26.444C176.48 26.451 176.811 27.471 176.168 27.946L171.199 31.615L173.063 37.504C173.305 38.266 172.436 38.898 171.785 38.432L166.76 34.84L161.735 38.432C161.084 38.898 160.217 38.266 160.457 37.504L162.321 31.615L157.352 27.946C156.709 27.47 157.04 26.45 157.84 26.444L164.017 26.397L165.971 20.537C166.222 19.778 167.296 19.778 167.549 20.537Z" fill="#F5F5F5"/><path d="M167.549 51.1911L169.503 57.0511L175.68 57.0981C176.48 57.1051 176.811 58.1241 176.168 58.6001L171.199 62.2701L173.063 68.1591C173.305 68.9211 172.436 69.5531 171.785 69.0871L166.76 65.4951L161.735 69.0871C161.084 69.5521 160.217 68.9211 160.457 68.1591L162.321 62.2701L157.352 58.6001C156.709 58.1241 157.04 57.1051 157.84 57.0981L164.017 57.0511L165.971 51.1911C166.222 50.4331 167.296 50.4331 167.549 51.1911Z" fill="#F5F5F5"/><path d="M167.549 81.8461L169.503 87.7061L175.68 87.7531C176.48 87.7601 176.811 88.7791 176.168 89.2551L171.199 92.9251L173.063 98.8141C173.305 99.5761 172.436 100.208 171.785 99.7421L166.76 96.1501L161.735 99.7421C161.084 100.207 160.217 99.5771 160.457 98.8141L162.321 92.9251L157.352 89.2551C156.709 88.7791 157.04 87.7601 157.84 87.7531L164.017 87.7061L165.971 81.8461C166.222 81.0871 167.296 81.0871 167.549 81.8461Z" fill="#F5F5F5"/><path d="M167.549 112.5L169.503 118.36L175.68 118.407C176.48 118.414 176.811 119.434 176.168 119.909L171.199 123.579L173.063 129.468C173.305 130.23 172.436 130.862 171.785 130.396L166.76 126.804L161.735 130.396C161.084 130.861 160.217 130.23 160.457 129.468L162.321 123.579L157.352 119.909C156.709 119.435 157.04 118.414 157.84 118.407L164.017 118.36L165.971 112.5C166.222 111.741 167.296 111.741 167.549 112.5Z" fill="#F5F5F5"/><path d="M167.549 143.154L169.503 149.014L175.68 149.061C176.48 149.068 176.811 150.087 176.168 150.563L171.199 154.233L173.063 160.122C173.305 160.884 172.436 161.516 171.785 161.05L166.76 157.458L161.735 161.05C161.084 161.515 160.217 160.884 160.457 160.122L162.321 154.233L157.352 150.563C156.709 150.087 157.04 149.068 157.84 149.061L164.017 149.014L165.971 143.154C166.222 142.396 167.296 142.396 167.549 143.154Z" fill="#F5F5F5"/><path d="M191.342 35.5661L193.296 41.4261L199.473 41.4731C200.273 41.4801 200.604 42.5001 199.961 42.9751L194.992 46.6451L196.856 52.5341C197.098 53.2961 196.229 53.9281 195.578 53.4621L190.553 49.8701L185.528 53.4621C184.877 53.9271 184.01 53.2961 184.25 52.5341L186.114 46.6451L181.145 42.9751C180.502 42.4991 180.833 41.4801 181.633 41.4731L187.81 41.4261L189.764 35.5661C190.016 34.8081 191.089 34.8081 191.342 35.5661Z" fill="#F5F5F5"/><path d="M191.342 66.2211L193.296 72.0811L199.473 72.1281C200.273 72.1351 200.604 73.1551 199.961 73.6301L194.992 77.3001L196.856 83.1891C197.098 83.9511 196.229 84.5831 195.578 84.1171L190.553 80.5251L185.528 84.1171C184.877 84.5821 184.01 83.9521 184.25 83.1891L186.114 77.3001L181.145 73.6301C180.502 73.1561 180.833 72.1351 181.633 72.1281L187.81 72.0811L189.764 66.2211C190.016 65.4621 191.089 65.4621 191.342 66.2211Z" fill="#F5F5F5"/><path d="M191.342 96.8749L193.296 102.735L199.473 102.782C200.273 102.789 200.604 103.808 199.961 104.284L194.992 107.954L196.856 113.843C197.098 114.605 196.229 115.237 195.578 114.771L190.553 111.179L185.528 114.771C184.877 115.236 184.01 114.605 184.25 113.843L186.114 107.954L181.145 104.284C180.502 103.808 180.833 102.789 181.633 102.782L187.81 102.735L189.764 96.8749C190.016 96.1159 191.089 96.1159 191.342 96.8749Z" fill="#F5F5F5"/><path d="M191.342 127.529L193.296 133.389L199.473 133.436C200.273 133.443 200.604 134.462 199.961 134.938L194.992 138.608L196.856 144.497C197.098 145.259 196.229 145.891 195.578 145.425L190.553 141.833L185.528 145.425C184.877 145.891 184.01 145.259 184.25 144.497L186.114 138.608L181.145 134.938C180.502 134.462 180.833 133.443 181.633 133.436L187.81 133.389L189.764 127.529C190.016 126.771 191.089 126.771 191.342 127.529Z" fill="#F5F5F5"/><path d="M215.136 20.537L217.09 26.397L223.267 26.444C224.067 26.451 224.398 27.471 223.755 27.946L218.786 31.615L220.65 37.504C220.892 38.266 220.023 38.898 219.372 38.432L214.347 34.84L209.322 38.432C208.671 38.898 207.804 38.266 208.044 37.504L209.908 31.615L204.939 27.946C204.296 27.47 204.627 26.45 205.427 26.444L211.604 26.397L213.558 20.537C213.81 19.778 214.882 19.778 215.136 20.537Z" fill="#F5F5F5"/><path d="M215.136 51.1911L217.09 57.0511L223.267 57.0981C224.067 57.1051 224.398 58.1241 223.755 58.6001L218.786 62.2701L220.65 68.1591C220.892 68.9211 220.023 69.5531 219.372 69.0871L214.347 65.4951L209.322 69.0871C208.671 69.5521 207.804 68.9211 208.044 68.1591L209.908 62.2701L204.939 58.6001C204.296 58.1241 204.627 57.1051 205.427 57.0981L211.604 57.0511L213.558 51.1911C213.81 50.4331 214.882 50.4331 215.136 51.1911Z" fill="#F5F5F5"/><path d="M215.136 81.8461L217.09 87.7061L223.267 87.7531C224.067 87.7601 224.398 88.7791 223.755 89.2551L218.786 92.9251L220.65 98.8141C220.892 99.5761 220.023 100.208 219.372 99.7421L214.347 96.1501L209.322 99.7421C208.671 100.207 207.804 99.5771 208.044 98.8141L209.908 92.9251L204.939 89.2551C204.296 88.7791 204.627 87.7601 205.427 87.7531L211.604 87.7061L213.558 81.8461C213.81 81.0871 214.882 81.0871 215.136 81.8461Z" fill="#F5F5F5"/><path d="M215.136 112.5L217.09 118.36L223.267 118.407C224.067 118.414 224.398 119.434 223.755 119.909L218.786 123.579L220.65 129.468C220.892 130.23 220.023 130.862 219.372 130.396L214.347 126.804L209.322 130.396C208.671 130.861 207.804 130.23 208.044 129.468L209.908 123.579L204.939 119.909C204.296 119.435 204.627 118.414 205.427 118.407L211.604 118.36L213.558 112.5C213.81 111.741 214.882 111.741 215.136 112.5Z" fill="#F5F5F5"/><path d="M215.136 143.154L217.09 149.014L223.267 149.061C224.067 149.068 224.398 150.087 223.755 150.563L218.786 154.233L220.65 160.122C220.892 160.884 220.023 161.516 219.372 161.05L214.347 157.458L209.322 161.05C208.671 161.515 207.804 160.884 208.044 160.122L209.908 154.233L204.939 150.563C204.296 150.087 204.627 149.068 205.427 149.061L211.604 149.014L213.558 143.154C213.81 142.396 214.882 142.396 215.136 143.154Z" fill="#F5F5F5"/></svg>