<?xml version="1.0" encoding="utf-8"?>
<!-- Generator: Adobe Illustrator 23.0.1, SVG Export Plug-In . SVG Version: 6.00 Build 0)  -->
<svg version="1.1" id="Calque_1" xmlns="http://www.w3.org/2000/svg" xmlns:xlink="http://www.w3.org/1999/xlink" x="0px" y="0px"
	 viewBox="0 0 250 250" style="enable-background:new 0 0 250 250;" xml:space="preserve">
<style type="text/css">
	.st0{fill:#FFFFFF;}
	.st1{fill:#D0F7E3;}
	.st2{fill:#58CC95;}
	.st3{fill:#35A56F;}
	.st4{fill:#91E8BC;}
</style>
<path class="st0" d="M73.7,97.9v6h19.1v54.3h13.5v-54.3h19.1V98c0-3.3,0-6-0.1-6c0-0.1-11.6-0.1-25.7-0.1l-25.7,0.1v6L73.7,97.9
	L73.7,97.9z M159.4,91.8c3.7,0.9,6.6,2.6,9.2,5.2c1.4,1.5,3.4,4,3.5,4.7c0,0.2-6.3,4.5-10.2,6.9c-0.1,0.1-0.7-0.5-1.3-1.5
	c-1.9-2.7-3.8-3.9-6.9-4.1c-4.4-0.3-7.3,2-7.3,5.9c0,1.2,0.2,1.8,0.7,2.8c1,2,2.8,3.2,8.5,5.7c10.5,4.5,15,7.5,17.8,11.7
	c3.1,4.8,3.8,12.2,1.7,17.9c-2.3,6.1-8.1,10.3-16.2,11.6c-2.6,0.4-8.4,0.4-11.2-0.1c-5.9-1.1-11.5-4-14.9-7.8
	c-1.4-1.5-4-5.4-3.8-5.6l1.4-0.9l5.5-3.2l4.1-2.4l1,1.3c1.2,1.9,3.9,4.5,5.5,5.4c4.8,2.5,11.1,2.1,14.3-0.7c1.4-1.2,1.9-2.6,1.9-4.4
	c0-1.7-0.3-2.5-1.1-3.7c-1.2-1.6-3.5-2.9-10.1-5.9c-7.6-3.2-10.8-5.3-13.8-8.4c-1.7-1.9-3.3-4.9-4-7.3c-0.5-2.1-0.7-7.3-0.2-9.4
	c1.6-7.3,7.1-12.5,15-13.9C150.9,90.8,157,91.1,159.4,91.8L159.4,91.8L159.4,91.8z"/>
<g>
	<path class="st1" d="M149.4,96.7H93.8c-8,0-14.5,6.5-14.5,14.5v75.5c-4.4,2.6-9.8,3.1-14.7,1.6l0.1-0.4V99.6
		c0-8,6.5-14.5,14.5-14.5h58.5C144.2,85.1,149.4,90.3,149.4,96.7z"/>
	<path class="st2" d="M79.3,186.7c4.3-2.5,7.4-6.7,8.6-11.5l15.8-56c1.6-6.6,7.4-11.2,14.1-11.2h65.5c4.4,0,8.5,1.9,11.2,5.3
		c2.8,3.4,3.9,7.8,3,12l-12.4,52c-1.3,6.8-7.3,11.7-14.3,11.7H70.2C73.4,189.2,76.5,188.3,79.3,186.7z"/>
	<path class="st3" d="M171.3,90.4v17.7H164c0-6.3-5.1-11.4-11.4-11.4h-3.2c0-6.4-5.2-11.6-11.6-11.6H79.3c-8,0-14.5,6.5-14.5,14.5
		v88.3l-0.1,0.4c-7.5-2.4-12.6-9.4-12.6-17.3V76.3c0-8.5,6.9-15.4,15.4-15.4h36c3.5,0,6.9,1.3,9.5,3.6l8,7c2.6,2.3,6,3.6,9.5,3.6
		h25.2C164.4,75,171.3,81.9,171.3,90.4z"/>
	<path class="st4" d="M164,108.1h-46.1c-6.7,0-12.6,4.6-14.1,11.2l-15.8,56c-1.2,4.9-4.2,9-8.6,11.5v-75.5c0-8,6.5-14.5,14.5-14.5
		h58.8C158.9,96.7,164,101.8,164,108.1z"/>
</g>
</svg>
