<?xml version="1.0" encoding="utf-8"?>
<!-- Generator: Adobe Illustrator 23.0.1, SVG Export Plug-In . SVG Version: 6.00 Build 0)  -->
<svg version="1.1" id="Calque_1" xmlns="http://www.w3.org/2000/svg" xmlns:xlink="http://www.w3.org/1999/xlink" x="0px" y="0px"
	 viewBox="0 0 250 250" style="enable-background:new 0 0 250 250;" xml:space="preserve">
<style type="text/css">
	.st0{fill:#FFFFFF;}
	.st1{fill:#41B883;}
	.st2{fill:#35A56F;}
	.st3{fill:#58CC95;}
	.st4{fill:#FFF5F5;}
	.st5{fill:#E3E7EA;}
</style>
<path class="st0" d="M73.7,97.9v6h19.1v54.3h13.5v-54.3h19.1V98c0-3.3,0-6-0.1-6c0-0.1-11.6-0.1-25.7-0.1l-25.7,0.1v6L73.7,97.9
	L73.7,97.9z M159.4,91.8c3.7,0.9,6.6,2.6,9.2,5.2c1.4,1.5,3.4,4,3.5,4.7c0,0.2-6.3,4.5-10.2,6.9c-0.1,0.1-0.7-0.5-1.3-1.5
	c-1.9-2.7-3.8-3.9-6.9-4.1c-4.4-0.3-7.3,2-7.3,5.9c0,1.2,0.2,1.8,0.7,2.8c1,2,2.8,3.2,8.5,5.7c10.5,4.5,15,7.5,17.8,11.7
	c3.1,4.8,3.8,12.2,1.7,17.9c-2.3,6.1-8.1,10.3-16.2,11.6c-2.6,0.4-8.4,0.4-11.2-0.1c-5.9-1.1-11.5-4-14.9-7.8
	c-1.4-1.5-4-5.4-3.8-5.6l1.4-0.9l5.5-3.2l4.1-2.4l1,1.3c1.2,1.9,3.9,4.5,5.5,5.4c4.8,2.5,11.1,2.1,14.3-0.7c1.4-1.2,1.9-2.6,1.9-4.4
	c0-1.7-0.3-2.5-1.1-3.7c-1.2-1.6-3.5-2.9-10.1-5.9c-7.6-3.2-10.8-5.3-13.8-8.4c-1.7-1.9-3.3-4.9-4-7.3c-0.5-2.1-0.7-7.3-0.2-9.4
	c1.6-7.3,7.1-12.5,15-13.9C150.9,90.8,157,91.1,159.4,91.8L159.4,91.8L159.4,91.8z"/>
<g>
	<g id="Docs_3_">
		<g>
			<g>
				<g>
					<g>
						<path class="st1" d="M180.9,90.3l-30.1-8.6l-8.6-30.1H82c-7.1,0-12.9,5.8-12.9,12.9v120.9c0,7.1,5.8,12.9,12.9,12.9H168
							c7.1,0,12.9-5.8,12.9-12.9V90.3z"/>
					</g>
				</g>
			</g>
		</g>
		<path class="st2" d="M180.9,90.3v95.1c0,7.1-5.8,12.9-12.9,12.9h-43V51.7h17.2l8.6,30.1L180.9,90.3z"/>
		<path class="st3" d="M180.9,90.3h-30.1c-4.7,0-8.6-3.9-8.6-8.6V51.7c1.1,0,2.2,0.4,3,1.3l34.4,34.4
			C180.4,88.1,180.9,89.2,180.9,90.3z"/>
		<g>
			<path class="st4" d="M150.8,120.7H99.2c-2.4,0-4.3-1.9-4.3-4.3c0-2.4,1.9-4.3,4.3-4.3h51.6c2.4,0,4.3,1.9,4.3,4.3
				C155.1,118.8,153.2,120.7,150.8,120.7z"/>
		</g>
		<g>
			<path class="st4" d="M150.8,137.9H99.2c-2.4,0-4.3-1.9-4.3-4.3s1.9-4.3,4.3-4.3h51.6c2.4,0,4.3,1.9,4.3,4.3
				S153.2,137.9,150.8,137.9z"/>
		</g>
		<g>
			<path class="st4" d="M150.8,155.1H99.2c-2.4,0-4.3-1.9-4.3-4.3c0-2.4,1.9-4.3,4.3-4.3h51.6c2.4,0,4.3,1.9,4.3,4.3
				C155.1,153.2,153.2,155.1,150.8,155.1z"/>
		</g>
		<g>
			<path class="st4" d="M133.6,172.3H99.2c-2.4,0-4.3-1.9-4.3-4.3s1.9-4.3,4.3-4.3h34.4c2.4,0,4.3,1.9,4.3,4.3
				S136,172.3,133.6,172.3z"/>
		</g>
	</g>
	<g id="Docs_4_">
		<g>
			<g>
				<path class="st5" d="M125,172.3h8.6c2.4,0,4.3-1.9,4.3-4.3s-1.9-4.3-4.3-4.3H125V172.3z"/>
			</g>
			<g>
				<path class="st5" d="M125,155.1h25.8c2.4,0,4.3-1.9,4.3-4.3c0-2.4-1.9-4.3-4.3-4.3H125V155.1z"/>
			</g>
			<g>
				<path class="st5" d="M125,137.9h25.8c2.4,0,4.3-1.9,4.3-4.3s-1.9-4.3-4.3-4.3H125V137.9z"/>
			</g>
			<g>
				<path class="st5" d="M125,120.7h25.8c2.4,0,4.3-1.9,4.3-4.3c0-2.4-1.9-4.3-4.3-4.3H125V120.7z"/>
			</g>
		</g>
	</g>
</g>
</svg>
