<?xml version="1.0" encoding="utf-8"?>
<!-- Generator: Adobe Illustrator 23.0.1, SVG Export Plug-In . SVG Version: 6.00 Build 0)  -->
<svg version="1.1" id="Calque_1" xmlns="http://www.w3.org/2000/svg" xmlns:xlink="http://www.w3.org/1999/xlink" x="0px" y="0px"
	 viewBox="0 0 250 250" style="enable-background:new 0 0 250 250;" xml:space="preserve">
<style type="text/css">
	.st0{fill:#FFFFFF;}
	.st1{fill:#F15249;}
	.st2{fill:#AD0E0E;}
	.st3{fill:#D6D6D6;}
</style>
<path class="st0" d="M73.7,97.9v6h19.1v54.3h13.5v-54.3h19.1V98c0-3.3,0-6-0.1-6c0-0.1-11.6-0.1-25.7-0.1l-25.7,0.1v6L73.7,97.9
	L73.7,97.9z M159.4,91.8c3.7,0.9,6.6,2.6,9.2,5.2c1.4,1.5,3.4,4,3.5,4.7c0,0.2-6.3,4.5-10.2,6.9c-0.1,0.1-0.7-0.5-1.3-1.5
	c-1.9-2.7-3.8-3.9-6.9-4.1c-4.4-0.3-7.3,2-7.3,5.9c0,1.2,0.2,1.8,0.7,2.8c1,2,2.8,3.2,8.5,5.7c10.5,4.5,15,7.5,17.8,11.7
	c3.1,4.8,3.8,12.2,1.7,17.9c-2.3,6.1-8.1,10.3-16.2,11.6c-2.6,0.4-8.4,0.4-11.2-0.1c-5.9-1.1-11.5-4-14.9-7.8
	c-1.4-1.5-4-5.4-3.8-5.6l1.4-0.9l5.5-3.2l4.1-2.4l1,1.3c1.2,1.9,3.9,4.5,5.5,5.4c4.8,2.5,11.1,2.1,14.3-0.7c1.4-1.2,1.9-2.6,1.9-4.4
	c0-1.7-0.3-2.5-1.1-3.7c-1.2-1.6-3.5-2.9-10.1-5.9c-7.6-3.2-10.8-5.3-13.8-8.4c-1.7-1.9-3.3-4.9-4-7.3c-0.5-2.1-0.7-7.3-0.2-9.4
	c1.6-7.3,7.1-12.5,15-13.9C150.9,90.8,157,91.1,159.4,91.8L159.4,91.8L159.4,91.8z"/>
<g>
	<circle class="st1" cx="125" cy="125" r="73.3"/>
	<path class="st2" d="M94.2,158.1l39.6,39.6c33.3-3.9,59.7-30.1,63.8-63.4l-39.8-39.8L94.2,158.1z"/>
	<path class="st0" d="M159.7,141.2c3.2,3.2,3.2,8.8,0,12l-6.5,6.5c-3.2,3.2-8.8,3.2-12,0l-50.9-50.9c-3.2-3.2-3.2-8.8,0-12l6.7-6.7
		c3.2-3.2,8.8-3.2,12,0L159.7,141.2z"/>
	<path class="st3" d="M132.9,114.1l-18.7,18.7l27.1,26.8c3.2,3.2,8.8,3.2,12,0l6.7-6.7c3.2-3.2,3.2-8.8,0-12L132.9,114.1z"/>
	<path class="st0" d="M141.2,90.3c3.2-3.2,8.8-3.2,12,0l6.7,6.7c3.2,3.2,3.2,8.8,0,12l-51.1,50.7c-3.2,3.2-8.8,3.2-12,0l-6.5-6.5
		c-3.2-3.2-3.2-8.8,0-12L141.2,90.3z"/>
</g>
</svg>
